<svg width="32" height="32" viewBox="0 0 32 32" fill="none" xmlns="http://www.w3.org/2000/svg">
<g clip-path="url(#clip0_86_17699)">
<rect width="32" height="32" fill="#FFFF2E"/>
<mask id="mask0_86_17699" style="mask-type:luminance" maskUnits="userSpaceOnUse" x="0" y="0" width="32" height="33">
<path d="M32 0H0V32.0003H32V0Z" fill="white"/>
</mask>
<g mask="url(#mask0_86_17699)">
<path d="M22.027 24.2355C21.4375 24.8376 20.6597 25.1637 19.8318 25.1637C18.1258 25.1637 16.746 23.7462 16.746 22.0026C16.746 21.1496 17.0721 20.3593 17.6492 19.7572C18.2262 19.1676 19.0039 18.8289 19.8318 18.8289C20.1956 18.8289 20.4841 18.5404 20.4841 18.1766C20.4841 17.8128 20.1956 17.5117 19.8318 17.5117C18.6652 17.5117 17.5488 17.9759 16.7334 18.8289C15.9055 19.6694 15.4414 20.7984 15.4414 21.99C15.4414 24.4612 17.4108 26.4684 19.8318 26.4684C20.9984 26.4684 22.1148 26.0042 22.9428 25.1512C23.1936 24.9003 23.1936 24.4738 22.9428 24.2229C22.6919 23.972 22.2654 23.972 22.027 24.2229" fill="black"/>
<path d="M25.7288 20.7482C25.5532 20.3468 25.1768 20.0959 24.7504 20.0959H22.8812V15.4545C22.8812 14.8525 22.4046 14.3757 21.815 14.3757H21.6268L18.7668 14.4636C18.5787 14.4636 18.4156 14.5389 18.2776 14.6643L16.2455 16.4832C15.9193 16.7717 15.8942 17.2861 16.1828 17.6121C16.3332 17.7878 16.5591 17.8881 16.7723 17.8881C16.9604 17.8881 17.136 17.8254 17.2866 17.6874L19.1055 16.0567L20.7613 15.994V21.1622C20.7613 21.7517 21.238 22.241 21.815 22.241H24.0479L25.1894 24.9004C25.365 25.3018 25.7539 25.5527 26.1553 25.5527C26.2932 25.5527 26.4438 25.5276 26.5818 25.4649C27.1212 25.2265 27.3595 24.5868 27.1337 24.0473" fill="black"/>
<path d="M21.8892 13.9112C22.5791 13.9112 23.1436 13.3467 23.1436 12.6568C23.1436 11.9668 22.5791 11.4023 21.8892 11.4023C21.1992 11.4023 20.6348 11.9668 20.6348 12.6568C20.6348 13.3467 21.1867 13.9112 21.8892 13.9112Z" fill="black"/>
<path d="M11.7286 11.9673H8.2163V7.94059H11.7286C12.8325 7.94059 13.7482 8.84378 13.7482 9.96018C13.7482 11.0767 12.8325 11.9799 11.7286 11.9799M11.7286 5.31885H5.58203V18.8917H8.20374V14.6141H11.7161C14.2751 14.6141 16.3574 12.5318 16.3574 9.97274C16.3574 7.41373 14.2751 5.31885 11.7161 5.31885" fill="black"/>
</g>
</g>
<defs>
<clipPath id="clip0_86_17699">
<rect width="32" height="32" fill="white"/>
</clipPath>
</defs>
</svg>
