<svg width="24" height="24" viewBox="0 0 24 24" fill="none" xmlns="http://www.w3.org/2000/svg">
<path d="M8.19141 8.90479H20.3819" stroke="#1AEBFF" stroke-width="1.4"/>
<path d="M8.19038 8.90476C8.19038 9.95673 7.33759 10.8095 6.28562 10.8095C5.23365 10.8095 4.38086 9.95673 4.38086 8.90476C4.38086 7.85279 5.23365 7 6.28562 7C7.33759 7 8.19038 7.85279 8.19038 8.90476Z" stroke="#1AEBFF" stroke-width="1.4"/>
<path d="M3.61914 15.0952H15.8096" stroke="#1AEBFF" stroke-width="1.4"/>
<path d="M19.6181 15.0952C19.6181 16.1472 18.7653 17 17.7134 17C16.6614 17 15.8086 16.1472 15.8086 15.0952C15.8086 14.0432 16.6614 13.1904 17.7134 13.1904C18.7653 13.1904 19.6181 14.0432 19.6181 15.0952Z" stroke="#1AEBFF" stroke-width="1.4"/>
</svg>
