<svg width="40" height="40" viewBox="0 0 40 40" fill="none" xmlns="http://www.w3.org/2000/svg">
<path d="M24.4534 33.8101L24.5045 9.3626M15.4344 31.4368L15.4155 7.0542" stroke="white" stroke-width="2" stroke-linecap="round" stroke-linejoin="round"/>
<path d="M27.9914 33.1373C26.7491 33.6147 25.6034 34.0548 24.4532 33.81C21.6799 33.2196 18.9365 32.2671 16.206 31.5006C15.9533 31.4298 15.6916 31.4058 15.4344 31.4367C15.3341 31.4488 15.234 31.4692 15.1359 31.4983C14.2725 31.755 13.3604 32.1063 12.4338 32.4631C12.0436 32.6134 11.6509 32.7646 11.2581 32.9102C11.056 32.985 10.8565 33.0616 10.6597 33.1373C9.97769 33.3994 9.32471 33.6503 8.68421 33.7827C8.41478 33.8385 8.16565 33.7126 7.94628 33.5018C7.13077 32.7178 6.93479 31.4665 6.74914 30.2809C6.72786 30.1449 6.70672 30.0101 6.68481 29.8768C5.77173 24.3235 5.77173 18.6389 6.68481 13.0857L6.79591 12.4099C6.93533 11.562 7.08507 10.7045 7.44918 9.93906C7.66015 9.49559 7.93815 9.05942 8.26537 8.88998C9.1749 8.41905 10.0834 7.96596 10.8932 7.7238C12.1114 7.35946 14.0481 6.82828 15.4155 7.05411C18.1468 7.50515 20.8956 8.5735 23.5616 9.32181C23.872 9.4089 24.1934 9.42241 24.5043 9.36253C24.6958 9.32566 24.8832 9.26093 25.0613 9.16844L25.2641 9.063C26.2834 8.53288 27.3162 7.9956 28.225 7.72384C29.0581 7.47471 30.2269 7.14751 31.32 7.03775C31.6164 7.00799 31.8872 7.18055 32.1206 7.43614C32.8786 8.26565 33.078 9.48455 33.2681 10.6463C33.284 10.7427 33.2997 10.8397 33.3156 10.9351C34.2333 16.4195 34.2255 22.0852 33.3078 27.5696C33.1057 28.7765 32.8876 30.0291 32.2382 31.0335C31.9913 31.4152 31.6965 31.7443 31.3713 31.8601C30.8456 32.0474 30.3082 32.2543 29.7657 32.4631C29.3755 32.6134 28.9828 32.7646 28.5899 32.9102C28.3876 32.9853 28.1883 33.0619 27.9914 33.1373Z" stroke="white" stroke-width="2" stroke-linecap="round" stroke-linejoin="round"/>
</svg>
