<svg width="40" height="40" viewBox="0 0 40 40" fill="none" xmlns="http://www.w3.org/2000/svg">
<path d="M24.4534 33.8101L24.5045 9.3626M15.4344 31.4368L15.4155 7.0542" stroke="white" stroke-width="2" stroke-linecap="round" stroke-linejoin="round"/>
<path d="M27.9914 33.1373C26.7491 33.6147 25.6034 34.0548 24.4532 33.81C21.6799 33.2196 18.9365 32.2671 16.206 31.5006C15.9533 31.4298 15.6916 31.4058 15.4344 31.4367C15.3341 31.4488 15.234 31.4692 15.1359 31.4983C14.2725 31.755 13.3604 32.1063 12.4338 32.4631C12.0436 32.6134 11.6509 32.7646 11.2581 32.9102C11.056 32.985 10.8565 33.0616 10.6597 33.1373C9.97769 33.3994 9.32471 33.6503 8.68421 33.7827C8.41478 33.8385 8.16565 33.7126 7.94628 33.5018C7.13077 32.7178 6.93479 31.4665 6.74914 30.2809C6.72786 30.1449 6.70672 30.0101 6.68481 29.8768C5.77173 24.3235 5.77173 18.6389 6.68481 13.0857L6.79591 12.4099C6.93533 11.562 7.08507 10.7045 7.44918 9.93906C7.66015 9.49559 7.93815 9.05942 8.26537 8.88998C9.1749 8.41905 10.0834 7.96596 10.8932 7.7238C12.1114 7.35946 14.0481 6.82828 15.4155 7.05411C18.1468 7.50515 20.8956 8.5735 23.5616 9.32181C23.872 9.4089 24.1934 9.42241 24.5043 9.36253C24.6958 9.32566 24.8832 9.26093 25.0613 9.16844L25.2641 9.063C26.2834 8.53288 27.3162 7.9956 28.225 7.72384C29.0581 7.47471 30.2269 7.14751 31.32 7.03775C31.6164 7.00799 31.8872 7.18055 32.1206 7.43614C32.8786 8.26565 33.078 9.48455 33.2681 10.6463C33.284 10.7427 33.2997 10.8397 33.3156 10.9351C34.2333 16.4195 34.2255 22.0852 33.3078 27.5696C33.1057 28.7765 32.8876 30.0291 32.2382 31.0335C31.9913 31.4152 31.6965 31.7443 31.3713 31.8601C30.8456 32.0474 30.3082 32.2543 29.7657 32.4631C29.3755 32.6134 28.9828 32.7646 28.5899 32.9102C28.3876 32.9853 28.1883 33.0619 27.9914 33.1373Z" stroke="white" stroke-width="2" stroke-linecap="round" stroke-linejoin="round"/>
<path d="M27.9915 33.1374C26.7492 33.6148 25.6036 34.0549 24.4533 33.8101C21.68 33.2196 18.9366 32.2672 16.206 31.5006C15.9534 31.4299 15.6917 31.4059 15.4345 31.4368C15.3342 31.4489 15.2341 31.4693 15.136 31.4984C14.2726 31.7551 13.3604 32.1063 12.4338 32.4632C12.0437 32.6135 11.6509 32.7647 11.2582 32.9103C11.056 32.9851 10.8566 33.0617 10.6597 33.1374C9.97772 33.3995 9.32473 33.6504 8.68423 33.7828C8.4148 33.8385 8.16566 33.7127 7.9463 33.5019C7.13078 32.7179 6.9348 31.4666 6.74915 30.281C6.72787 30.145 6.70672 30.0101 6.68481 29.8769C5.77173 24.3235 5.77173 18.6389 6.68481 13.0856L6.79592 12.4098C6.93534 11.5619 7.08508 10.7044 7.44919 9.93896C7.66016 9.49549 7.93817 9.05931 8.26539 8.88988C9.17492 8.41894 10.0835 7.96585 10.8932 7.72368C12.1114 7.35934 14.0481 6.82816 15.4156 7.05399C18.1469 7.50503 20.8957 8.57338 23.5618 9.32171C23.8721 9.4088 24.1935 9.4223 24.5044 9.36243C24.6959 9.32556 24.8833 9.26082 25.0614 9.16833L25.2643 9.06289C26.2835 8.53277 27.3164 7.99548 28.2252 7.72373C29.0582 7.47459 30.2271 7.14739 31.3202 7.03763C31.6165 7.00786 31.8874 7.18043 32.1208 7.43602C32.8788 8.26554 33.0781 9.48444 33.2683 10.6462C33.2842 10.7426 33.2999 10.8396 33.3158 10.935C34.2335 16.4195 34.2257 22.0852 33.308 27.5696C33.1059 28.7766 32.8877 30.0292 32.2384 31.0336C31.9915 31.4153 31.6967 31.7444 31.3715 31.8602C30.8458 32.0474 30.3084 32.2544 29.7658 32.4632C29.3756 32.6135 28.983 32.7647 28.5901 32.9103C28.3878 32.9853 28.1884 33.0619 27.9915 33.1374Z" fill="#1AEBFF" stroke="#1AEBFF" stroke-width="2" stroke-linecap="round" stroke-linejoin="round"/>
<path d="M24.4535 32.9559L24.5046 10.5083M15.4344 30.5826L15.4155 8.19983" stroke="#1B1F23" stroke-width="2" stroke-linecap="round" stroke-linejoin="round"/>
</svg>
