<svg width="40" height="40" viewBox="0 0 40 40" fill="none" xmlns="http://www.w3.org/2000/svg">
<path d="M13.3398 33.425V13.3463" stroke="white" stroke-width="2" stroke-linecap="round" stroke-linejoin="round"/>
<path d="M26.6602 33.4774V13.3463" stroke="white" stroke-width="2" stroke-linecap="round" stroke-linejoin="round"/>
<path d="M14.6806 13.0785C14.6629 12.8604 14.6811 11.5518 14.6811 11.3198C14.6811 7.91512 16.5962 6 20.0008 6C23.4055 6 25.3206 7.91512 25.3206 11.3198C25.3206 11.5518 25.2846 12.8604 25.267 13.0785" stroke="white" stroke-width="2" stroke-linecap="round" stroke-linejoin="round"/>
<path d="M6.45585 29.613C6.76667 31.743 8.53955 33.399 10.6986 33.5883C16.9661 34.1371 23.0341 34.1371 29.3015 33.5883C31.4607 33.399 33.2335 31.743 33.5444 29.613C34.1521 25.4478 34.1521 21.5001 33.5444 17.335C33.2335 15.205 31.4607 13.5488 29.3015 13.3597C23.0341 12.8108 16.9661 12.8108 10.6986 13.3597C8.53955 13.5488 6.76667 15.205 6.45585 17.335C5.84805 21.5001 5.84805 25.4478 6.45585 29.613Z" stroke="white" stroke-width="2" stroke-linecap="round" stroke-linejoin="round"/>
</svg>
