<svg width="40" height="40" viewBox="0 0 40 40" fill="none" xmlns="http://www.w3.org/2000/svg">
<path d="M14.6806 13.0785C14.6629 12.8604 14.6811 11.5518 14.6811 11.3198C14.6811 7.91512 16.5962 6 20.0008 6C23.4055 6 25.3206 7.91512 25.3206 11.3198C25.3206 11.5518 25.2846 12.8604 25.267 13.0785" stroke="#1AEBFF" stroke-width="2" stroke-linecap="round" stroke-linejoin="round"/>
<path d="M6.45585 29.613C6.76667 31.7431 8.53954 33.3991 10.6986 33.5884C16.9661 34.1372 23.034 34.1372 29.3015 33.5884C31.4606 33.3991 33.2334 31.7431 33.5443 29.613C34.152 25.4479 34.152 21.5001 33.5443 17.335C33.2334 15.2051 31.4606 13.5489 29.3015 13.3598C23.034 12.8108 16.9661 12.8108 10.6986 13.3598C8.53954 13.5489 6.76667 15.2051 6.45585 17.335C5.84805 21.5001 5.84805 25.4479 6.45585 29.613Z" fill="#1AEBFF" stroke="#1AEBFF" stroke-width="2" stroke-linecap="round" stroke-linejoin="round"/>
<path d="M13 32V15.5" stroke="#1B1F23" stroke-width="2" stroke-linecap="round" stroke-linejoin="round"/>
<path d="M27 32V15.5" stroke="#1B1F23" stroke-width="2" stroke-linecap="round" stroke-linejoin="round"/>
</svg>
