<svg width="40" height="40" viewBox="0 0 40 40" fill="none" xmlns="http://www.w3.org/2000/svg">
<path d="M9.28809 17.878C9.48726 17.8239 9.69151 17.7834 9.89919 17.7572C16.8945 16.8746 23.1025 16.8737 30.098 17.7546C30.3058 17.7807 30.5099 17.8212 30.7093 17.8753C30.3348 15.007 29.6199 12.3413 28.5314 9.73087C27.9408 8.31455 26.5973 7.36931 25.0691 7.23086C21.6736 6.92321 18.3241 6.92321 14.9287 7.23086C13.4004 7.36931 12.0568 8.31455 11.4663 9.73087C10.3776 12.3422 9.66228 15.0088 9.28809 17.878Z" stroke="#1AEBFF" stroke-width="2" stroke-linecap="round" stroke-linejoin="round"/>
<path d="M10.7197 29.8589V33.7712" stroke="#1AEBFF" stroke-width="2" stroke-linecap="round" stroke-linejoin="round"/>
<path d="M29.2788 29.8589V33.7712" stroke="#1AEBFF" stroke-width="2" stroke-linecap="round" stroke-linejoin="round"/>
<path d="M28.8419 17.6048C22.7683 16.9236 17.2303 16.9244 11.1567 17.6072C8.80609 17.8714 6.69841 19.3958 6.28925 21.7255C6.06793 22.9858 5.99517 24.2522 6.00025 25.5473C6.00938 27.8701 7.91162 29.7236 10.2315 29.8414C16.8956 30.1793 23.1053 30.1787 29.7692 29.8391C32.0888 29.7207 33.9905 27.8672 33.9997 25.5451C34.0047 24.25 33.9319 22.9836 33.7108 21.7234C33.3017 19.3931 31.1931 17.8685 28.8419 17.6048Z" fill="#1AEBFF" stroke="#1AEBFF" stroke-width="2" stroke-linecap="round" stroke-linejoin="round"/>
<path d="M13.9316 23.9296H12.21" stroke="#1B1F23" stroke-width="2" stroke-linecap="round" stroke-linejoin="round"/>
<path d="M26.0693 23.9296H27.7909" stroke="#1B1F23" stroke-width="2" stroke-linecap="round" stroke-linejoin="round"/>
</svg>
