<svg width="40" height="40" viewBox="0 0 40 40" fill="none" xmlns="http://www.w3.org/2000/svg">
<path d="M9.2876 17.878C9.48678 17.8239 9.69103 17.7834 9.89871 17.7572C16.8941 16.8745 23.1021 16.8737 30.0976 17.7546C30.3054 17.7807 30.5095 17.8212 30.7089 17.8752C30.3344 15.007 29.6195 12.3413 28.531 9.73077C27.9404 8.31444 26.5968 7.36919 25.0687 7.23074C21.6732 6.92309 18.3236 6.92309 14.9282 7.23074C13.4 7.36919 12.0563 8.31444 11.4658 9.73077C10.3771 12.3421 9.6618 15.0087 9.2876 17.878Z" stroke="white" stroke-width="2" stroke-linecap="round" stroke-linejoin="round"/>
<path d="M13.9316 23.9296H12.21" stroke="white" stroke-width="2" stroke-linecap="round" stroke-linejoin="round"/>
<path d="M26.0693 23.9296H27.7909" stroke="white" stroke-width="2" stroke-linecap="round" stroke-linejoin="round"/>
<path d="M10.7197 29.8588V33.7712" stroke="white" stroke-width="2" stroke-linecap="round" stroke-linejoin="round"/>
<path d="M29.2793 29.8588V33.7712" stroke="white" stroke-width="2" stroke-linecap="round" stroke-linejoin="round"/>
<path d="M28.842 17.6049C22.7683 16.9237 17.2303 16.9245 11.1567 17.6073C8.8061 17.8715 6.69841 19.3959 6.28925 21.7257C6.06793 22.9859 5.99517 24.2524 6.00025 25.5475C6.00938 27.8703 7.91162 29.7238 10.2315 29.8416C16.8957 30.1795 23.1054 30.1789 29.7693 29.8394C32.0889 29.721 33.9906 27.8674 33.9998 25.5453C34.0048 24.2502 33.932 22.9837 33.7109 21.7236C33.3018 19.3932 31.1932 17.8686 28.842 17.6049Z" stroke="white" stroke-width="2" stroke-linecap="round" stroke-linejoin="round"/>
</svg>
