<svg width="32" height="32" viewBox="0 0 32 32" fill="none" xmlns="http://www.w3.org/2000/svg">
<g clip-path="url(#clip0_86_17757)">
<rect width="32" height="32" fill="#FFFF2E"/>
<mask id="mask0_86_17757" style="mask-type:luminance" maskUnits="userSpaceOnUse" x="0" y="0" width="32" height="33">
<path d="M32 0H0V32.0003H32V0Z" fill="white"/>
</mask>
<g mask="url(#mask0_86_17757)">
<path fill-rule="evenodd" clip-rule="evenodd" d="M27 5H5V27H27V5ZM7 8C7 7.4444 7.4444 7 8 7C8.5556 7 9 7.4444 9 8C9 8.5556 8.5556 9 8 9C7.4444 9 7 8.5556 7 8ZM24.0003 7.1583C23.4448 7.1583 23.0003 7.6027 23.0003 8.1583C23.0003 8.7138 23.4448 9.1583 24.0003 9.1583C24.5559 9.1583 25.0003 8.7138 25.0003 8.1583C25.0003 7.6027 24.5559 7.1583 24.0003 7.1583ZM18.9998 8.1583C18.9998 7.6027 19.4442 7.1583 19.9998 7.1583C20.5553 7.1583 20.9998 7.6027 20.9998 8.1583C20.9998 8.7138 20.5553 9.1583 19.9998 9.1583C19.4442 9.1583 18.9998 8.7138 18.9998 8.1583ZM16 7.1582C15.4444 7.1582 15 7.6026 15 8.1582C15 8.7138 15.4444 9.1582 16 9.1582C16.5556 9.1582 17 8.7138 17 8.1582C17 7.6026 16.5556 7.1582 16 7.1582ZM11.0004 8.1583C11.0004 7.6027 11.4449 7.1583 12.0004 7.1583C12.556 7.1583 13.0004 7.6027 13.0004 8.1583C13.0004 8.7138 12.556 9.1583 12.0004 9.1583C11.4449 9.1583 11.0004 8.7138 11.0004 8.1583ZM7.9998 11.0004C7.4443 11.0004 6.9998 11.4449 6.9998 12.0004C6.9998 12.556 7.4443 13.0004 7.9998 13.0004C8.5554 13.0004 8.9998 12.556 8.9998 12.0004C8.9998 11.4449 8.5554 11.0004 7.9998 11.0004ZM23.0003 12.158C23.0003 11.6024 23.4448 11.158 24.0003 11.158C24.5559 11.158 25.0003 11.6024 25.0003 12.158C25.0003 12.7135 24.5559 13.158 24.0003 13.158C23.4448 13.158 23.0003 12.7135 23.0003 12.158ZM19.9998 11.158C19.4442 11.158 18.9998 11.6024 18.9998 12.158C18.9998 12.7135 19.4442 13.158 19.9998 13.158C20.5553 13.158 20.9998 12.7135 20.9998 12.158C20.9998 11.6024 20.5553 11.158 19.9998 11.158ZM15.0001 12.158C15.0001 11.6024 15.4445 11.158 16.0001 11.158C16.5556 11.158 17.0001 11.6024 17.0001 12.158C17.0001 12.7135 16.5556 13.158 16.0001 13.158C15.4445 13.158 15.0001 12.7135 15.0001 12.158ZM12.0004 11.158C11.4449 11.158 11.0004 11.6024 11.0004 12.158C11.0004 12.7135 11.4449 13.158 12.0004 13.158C12.556 13.158 13.0004 12.7135 13.0004 12.158C13.0004 11.6024 12.556 11.158 12.0004 11.158ZM7 16C7 15.4444 7.4444 15 8 15C8.5556 15 9 15.4444 9 16C9 16.5556 8.5556 17 8 17C7.4444 17 7 16.5556 7 16ZM24.0003 15.1585C23.4448 15.1585 23.0003 15.603 23.0003 16.1585C23.0003 16.7141 23.4448 17.1585 24.0003 17.1585C24.5559 17.1585 25.0003 16.7141 25.0003 16.1585C25.0003 15.603 24.5559 15.1585 24.0003 15.1585ZM18.9998 16.1585C18.9998 15.603 19.4442 15.1585 19.9998 15.1585C20.5553 15.1585 20.9998 15.603 20.9998 16.1585C20.9998 16.7141 20.5553 17.1585 19.9998 17.1585C19.4442 17.1585 18.9998 16.7141 18.9998 16.1585ZM16.0001 15.1585C15.4445 15.1585 15.0001 15.603 15.0001 16.1585C15.0001 16.7141 15.4445 17.1585 16.0001 17.1585C16.5556 17.1585 17.0001 16.7141 17.0001 16.1585C17.0001 15.603 16.5556 15.1585 16.0001 15.1585ZM11.0004 16.1585C11.0004 15.603 11.4449 15.1585 12.0004 15.1585C12.556 15.1585 13.0004 15.603 13.0004 16.1585C13.0004 16.7141 12.556 17.1585 12.0004 17.1585C11.4449 17.1585 11.0004 16.7141 11.0004 16.1585ZM7.9998 18.9998C7.4443 18.9998 6.9998 19.4442 6.9998 19.9998C6.9998 20.5553 7.4443 20.9998 7.9998 20.9998C8.5554 20.9998 8.9998 20.5553 8.9998 19.9998C8.9998 19.4442 8.5554 18.9998 7.9998 18.9998ZM23.0003 20.1582C23.0003 19.6026 23.4448 19.1582 24.0003 19.1582C24.5559 19.1582 25.0003 19.6026 25.0003 20.1582C25.0003 20.7138 24.5559 21.1582 24.0003 21.1582C23.4448 21.1582 23.0003 20.7138 23.0003 20.1582ZM19.9998 19.1582C19.4442 19.1582 18.9998 19.6026 18.9998 20.1582C18.9998 20.7138 19.4442 21.1582 19.9998 21.1582C20.5553 21.1582 20.9998 20.7138 20.9998 20.1582C20.9998 19.6026 20.5553 19.1582 19.9998 19.1582ZM15 20.1582C15 19.6026 15.4444 19.1582 16 19.1582C16.5556 19.1582 17 19.6026 17 20.1582C17 20.7138 16.5556 21.1582 16 21.1582C15.4444 21.1582 15 20.7138 15 20.1582ZM12.0004 19.1582C11.4449 19.1582 11.0004 19.6026 11.0004 20.1582C11.0004 20.7138 11.4449 21.1582 12.0004 21.1582C12.556 21.1582 13.0004 20.7138 13.0004 20.1582C13.0004 19.6026 12.556 19.1582 12.0004 19.1582ZM6.9998 24.0003C6.9998 23.4448 7.4443 23.0003 7.9998 23.0003C8.5554 23.0003 8.9998 23.4448 8.9998 24.0003C8.9998 24.5559 8.5554 25.0003 7.9998 25.0003C7.4443 25.0003 6.9998 24.5559 6.9998 24.0003ZM24.0003 23.0003C23.4448 23.0003 23.0003 23.4448 23.0003 24.0003C23.0003 24.5559 23.4448 25.0003 24.0003 25.0003C24.5559 25.0003 25.0003 24.5559 25.0003 24.0003C25.0003 23.4448 24.5559 23.0003 24.0003 23.0003ZM18.9998 24.0003C18.9998 23.4448 19.4442 23.0003 19.9998 23.0003C20.5553 23.0003 20.9998 23.4448 20.9998 24.0003C20.9998 24.5559 20.5553 25.0003 19.9998 25.0003C19.4442 25.0003 18.9998 24.5559 18.9998 24.0003ZM16.0001 23.0003C15.4445 23.0003 15.0001 23.4448 15.0001 24.0003C15.0001 24.5559 15.4445 25.0003 16.0001 25.0003C16.5556 25.0003 17.0001 24.5559 17.0001 24.0003C17.0001 23.4448 16.5556 23.0003 16.0001 23.0003ZM11.0004 24.0003C11.0004 23.4448 11.4449 23.0003 12.0004 23.0003C12.556 23.0003 13.0004 23.4448 13.0004 24.0003C13.0004 24.5559 12.556 25.0003 12.0004 25.0003C11.4449 25.0003 11.0004 24.5559 11.0004 24.0003Z" fill="black"/>
</g>
</g>
<defs>
<clipPath id="clip0_86_17757">
<rect width="32" height="32" fill="white"/>
</clipPath>
</defs>
</svg>
