<svg width="70" height="70" viewBox="0 0 70 70" fill="none" xmlns="http://www.w3.org/2000/svg">
<path d="M2.69238 35.0001C2.69238 43.5686 6.09622 51.7862 12.1551 57.8451C18.214 63.9039 26.4315 67.3078 35.0001 67.3078C43.5686 67.3078 51.7862 63.9039 57.8451 57.8451C63.9039 51.7862 67.3078 43.5686 67.3078 35.0001C67.3078 26.4315 63.9039 18.214 57.8451 12.1551C51.7862 6.09622 43.5686 2.69238 35.0001 2.69238C26.4315 2.69238 18.214 6.09622 12.1551 12.1551C6.09622 18.214 2.69238 26.4315 2.69238 35.0001Z" fill="black" fill-opacity="0.4" stroke="white" stroke-width="3" stroke-linecap="round" stroke-linejoin="round"/>
<path d="M47.1105 33.8185V30.7902C47.1105 23.2943 41.6597 17.1631 34.9975 17.1631C28.3354 17.1631 22.8845 23.2943 22.8845 30.7902V48.2878" stroke="white" stroke-width="3" stroke-linecap="round" stroke-linejoin="round"/>
<path d="M47.1125 48.2879V39.875" stroke="white" stroke-width="3" stroke-linecap="round" stroke-linejoin="round"/>
<path d="M28.9431 39.875V48.2879" stroke="white" stroke-width="3" stroke-linecap="round" stroke-linejoin="round"/>
<path d="M41.0539 48.2875V32.304C41.0539 28.1392 38.3285 24.7334 34.9974 24.7334C31.6663 24.7334 28.9409 28.1392 28.9409 32.304V33.8181" stroke="white" stroke-width="3" stroke-linecap="round" stroke-linejoin="round"/>
<path d="M34.9995 41.3887V48.2874" stroke="white" stroke-width="3" stroke-linecap="round" stroke-linejoin="round"/>
<path d="M34.9995 30.79V35.3324" stroke="white" stroke-width="3" stroke-linecap="round" stroke-linejoin="round"/>
</svg>
