<svg width="80" height="80" viewBox="0 0 80 80" fill="none" xmlns="http://www.w3.org/2000/svg">
<path d="M20 39.0833C18.8954 39.0833 18 38.1879 18 37.0833V20C18 18.8954 18.8954 18 20 18H37.0833C38.1879 18 39.0833 18.8954 39.0833 20V37.0833C39.0833 38.1879 38.1879 39.0833 37.0833 39.0833H20ZM20 64C18.8954 64 18 63.1046 18 62V44.9167C18 43.8121 18.8954 42.9167 20 42.9167H37.0833C38.1879 42.9167 39.0833 43.8121 39.0833 44.9167V62C39.0833 63.1046 38.1879 64 37.0833 64H20ZM44.9167 39.0833C43.8121 39.0833 42.9167 38.1879 42.9167 37.0833V20C42.9167 18.8954 43.8121 18 44.9167 18H62C63.1046 18 64 18.8954 64 20V37.0833C64 38.1879 63.1046 39.0833 62 39.0833H44.9167ZM44.9167 64C43.8121 64 42.9167 63.1046 42.9167 62V44.9167C42.9167 43.8121 43.8121 42.9167 44.9167 42.9167H62C63.1046 42.9167 64 43.8121 64 44.9167V62C64 63.1046 63.1046 64 62 64H44.9167Z" fill="white"/>
</svg>
