<svg width="80" height="80" viewBox="0 0 80 80" fill="none" xmlns="http://www.w3.org/2000/svg">
<path d="M45.354 20.6414C31.9492 20.6414 21 31.6212 21 44.9736C21 58.3261 31.6804 69.3059 45.354 69.3059C59.0276 69.3059 69.708 58.3892 69.708 44.9736C69.708 31.5581 58.7833 20.6414 45.354 20.6414ZM43.9214 66.3709C39.2444 66.0611 34.9694 64.2686 31.5809 61.4337H43.9214V66.3709ZM43.9214 58.5711H28.7393C27.6649 57.2627 26.7615 55.8154 26.0174 54.2772H43.9214V58.5711ZM43.9214 51.4145H24.8562C24.3523 49.8182 24.0531 48.1368 23.9376 46.405H43.9214V51.4145ZM43.9214 43.5423H23.9376C24.0523 41.8104 24.3523 40.1291 24.8562 38.5327H43.9214V43.5423ZM43.9214 35.6701H26.0174C26.7615 34.1319 27.6649 32.6846 28.7393 31.3762H43.9214V35.6701ZM43.9214 28.5136H31.5809C34.9694 25.6796 39.2444 23.8871 43.9214 23.5764V28.5136Z" fill="#F6D087"/>
<mask id="mask0_413_3353" style="mask-type:alpha" maskUnits="userSpaceOnUse" x="46" y="20" width="25" height="50">
<rect x="46.4609" y="20" width="23.7054" height="50" fill="#D9D9D9"/>
</mask>
<g mask="url(#mask0_413_3353)">
<path d="M45.354 20.6414C31.9492 20.6414 21 31.6212 21 44.9736C21 58.3261 31.6804 69.3059 45.354 69.3059C59.0276 69.3059 69.708 58.3892 69.708 44.9736C69.708 31.5581 58.7833 20.6414 45.354 20.6414ZM43.9214 66.3709C39.2444 66.0611 34.9694 64.2686 31.5809 61.4337H43.9214V66.3709ZM43.9214 58.5711H28.7393C27.6649 57.2627 26.7615 55.8154 26.0174 54.2772H43.9214V58.5711ZM43.9214 51.4145H24.8562C24.3523 49.8182 24.0531 48.1368 23.9376 46.405H43.9214V51.4145ZM43.9214 43.5423H23.9376C24.0523 41.8104 24.3523 40.1291 24.8562 38.5327H43.9214V43.5423ZM43.9214 35.6701H26.0174C26.7615 34.1319 27.6649 32.6846 28.7393 31.3762H43.9214V35.6701ZM43.9214 28.5136H31.5809C34.9694 25.6796 39.2444 23.8871 43.9214 23.5764V28.5136Z" fill="#FCB62C"/>
</g>
</svg>
