<svg width="80" height="80" viewBox="0 0 80 80" fill="none" xmlns="http://www.w3.org/2000/svg">
<path d="M32.8788 37.2276L20.3379 26.7219C21.4505 25.3938 23.4289 25.219 24.757 26.3316L32.4885 32.8085C33.8166 33.9211 33.9914 35.8995 32.8788 37.2276Z" fill="#3EC13C"/>
<path d="M62.3895 61.9497L49.8486 51.444C50.9612 50.1158 52.9396 49.9411 54.2678 51.0537L61.9992 57.5305C63.3274 58.6432 63.5021 60.6215 62.3895 61.9497Z" fill="#3EC13C"/>
<path d="M48.9868 52.4727L61.5277 62.9784L59.8078 65.0318C57.6663 67.5883 54.2149 68.6529 51.0161 67.7092C47.2072 66.5886 43.5322 65.0609 40.0429 63.1488C36.8129 61.3809 33.7394 59.2831 30.8603 56.8714C27.9826 54.4613 25.3795 51.8035 23.0727 48.9324C20.5788 45.832 18.433 42.4832 16.6585 38.9299C15.1708 35.9474 15.6143 32.3598 17.7558 29.8033L19.4757 27.7499L32.0166 38.2556L30.3506 40.2449C29.5736 41.1726 29.5583 42.5204 30.3222 43.4604C32.2146 45.789 34.343 47.9487 36.6884 49.914C39.0308 51.8763 41.524 53.589 44.1453 55.0438C45.2084 55.6336 46.5402 55.3926 47.3201 54.4613L48.9861 52.472L48.9868 52.4727Z" fill="#3EC13C"/>
<path d="M66.8712 37.7497C71.9845 31.5927 71.1378 22.456 64.9807 17.3433C58.8237 12.23 49.687 13.0767 44.5744 19.2338C40.4389 24.2132 40.2027 31.142 43.5202 36.3142L42.2992 43.4518C42.1835 44.1261 42.8417 44.6721 43.4831 44.4345L50.2744 41.923C55.9688 44.2347 62.7356 42.7291 66.8712 37.7497Z" fill="#E3FEE4"/>
<path d="M55.9666 19.2884C52.7409 19.2779 51.1547 20.9672 50.4572 22.6431C50.0626 23.5915 50.7642 24.6352 51.7911 24.6352C52.4079 24.6352 52.961 24.244 53.1558 23.6588C53.554 22.463 54.3881 21.6835 55.9084 21.6835C57.7799 21.6835 58.5502 22.9992 58.5502 24.2581C58.5502 25.355 58.2509 26.363 56.793 27.6695C55.3224 28.988 54.6439 29.9574 54.2731 31.1223C54.2703 31.13 54.2682 31.1377 54.2654 31.1454C53.9682 32.0959 54.6895 33.0604 55.6855 33.0604H55.7928C56.493 33.0604 57.1049 32.5775 57.2563 31.8933C57.2829 31.7735 57.3166 31.6501 57.3579 31.5239C57.6138 30.7438 57.9222 30.2742 58.9336 29.351C60.979 27.4852 61.5916 26.227 61.5916 24.3331C61.5916 22.1847 60.2325 19.3017 55.9666 19.2877V19.2884Z" fill="#252935"/>
<path d="M56.3057 38.0769C57.2456 37.6947 57.6976 36.6229 57.3154 35.683C56.9332 34.7431 55.8614 34.2911 54.9215 34.6733C53.9817 35.0555 53.5296 36.1273 53.9118 37.0672C54.294 38.0071 55.3658 38.4591 56.3057 38.0769Z" fill="#252935"/>
</svg>
