<svg width="80" height="80" viewBox="0 0 80 80" fill="none" xmlns="http://www.w3.org/2000/svg">
<path d="M64.9654 59.2275C64.4792 58.1307 63.5771 57.6096 62.4347 57.4058C62.2921 56.6519 62.1387 55.9178 62.0158 55.1788C61.4134 51.5567 60.8526 47.9271 60.2107 44.312C59.7165 41.5297 58.3289 40.3241 55.5389 40.1024C52.0854 39.8277 48.6312 39.5627 45.1773 39.2932C44.9162 39.2728 44.6553 39.2506 44.3733 39.2277C44.3316 38.4704 44.2944 37.792 44.2541 37.0599C44.6328 37.0909 44.9595 37.1177 45.2859 37.1442C47.5215 37.3269 49.7562 37.52 51.9929 37.6875C53.1469 37.7739 54.156 37.4425 54.8507 36.4617C56.2563 34.4775 55.0014 31.8846 52.5276 31.6689C50.0055 31.449 47.4807 31.2579 44.9572 31.0541C44.6761 31.0315 44.3951 31.0084 44.0775 30.9823C43.9732 28.8671 43.8631 26.8368 43.7751 24.8052C43.6217 21.2611 40.4633 18.9391 37.047 19.87C35.109 20.3981 33.7103 22.4898 33.8118 24.698C33.869 25.9388 33.9152 27.1802 33.968 28.4214C34.155 32.8065 34.3277 37.1925 34.5365 41.5764C34.6469 43.8943 36.4756 45.784 38.7627 45.9304C43.3277 46.2228 47.8844 46.6469 52.4444 47.0166C52.7282 47.0397 53.0118 47.0631 53.3262 47.0887C53.6238 48.951 53.9225 50.765 54.2015 52.5819C54.5885 55.1018 54.9425 57.6266 55.3451 60.1437C55.6286 61.9165 56.4566 62.924 57.9964 63.1482C59.4624 63.3617 60.9607 63.4927 62.439 63.4528C64.5284 63.3964 65.8138 61.142 64.9652 59.2275H64.9654Z" fill="#ECCEF9"/>
<path d="M39.0277 16.987C42.2706 17.2364 45.2138 14.7238 45.4586 11.497C45.717 8.09427 43.3522 5.27908 40.0186 5.02114C36.5284 4.75095 33.721 7.09785 33.449 10.5126C33.1842 13.8353 35.6782 16.7295 39.0277 16.987Z" fill="#ECCEF9"/>
<path d="M53.0297 64.7469C52.6034 63.4071 52.4096 61.9945 52.0934 60.5199C51.3186 61.339 50.6701 62.0959 49.9471 62.7747C45.3362 67.1083 39.9683 68.848 33.7337 67.2879C26.916 65.5822 21.5928 59.2904 21.989 51.1722C22.2254 46.2966 24.3291 42.5031 27.8846 39.6567C28.597 39.0809 29.3699 38.548 30.1961 38.0505C30.197 38.05 30.1977 38.0496 30.1986 38.0491C30.3375 37.9657 30.42 37.813 30.42 37.6509V21.7038C30.42 20.7226 29.6245 19.927 28.6432 19.927H23.152C22.2059 19.927 21.3795 20.6403 21.3176 21.5844C21.2498 22.6191 22.0701 23.4807 23.0906 23.4807H25.5488V35.0422C19.2606 39.6301 16.083 46.9938 17.1116 54.9126C18.3322 64.3156 25.7986 71.7888 35.1907 72.8425C41.5162 73.5515 47.1593 71.867 52.0598 67.7022C53.0975 66.8209 53.4441 66.0498 53.0299 64.7474L53.0297 64.7469Z" fill="#C15EEB"/>
</svg>
