<svg width="36" height="36" viewBox="0 0 36 36" fill="none" xmlns="http://www.w3.org/2000/svg">
<path d="M22.1679 32.2498C23.6296 33.1941 25.3715 33.6058 27.1006 33.4153C28.8297 33.2248 30.4406 32.4439 31.6623 31.2037L32.7305 30.1576C33.1987 29.6781 33.4609 29.0337 33.4609 28.363C33.4609 27.692 33.1987 27.0479 32.7305 26.5681L28.1969 22.075C27.7219 21.6075 27.0826 21.3456 26.4167 21.3456C25.7507 21.3456 25.1114 21.6075 24.6365 22.075C24.1575 22.544 23.5142 22.8066 22.8444 22.8066C22.1745 22.8066 21.5313 22.544 21.0523 22.075L13.9315 14.9432C13.6939 14.7088 13.5053 14.4294 13.3765 14.1213C13.2478 13.8131 13.1815 13.4824 13.1815 13.1484C13.1815 12.8144 13.2478 12.4837 13.3765 12.1756C13.5053 11.8674 13.6939 11.588 13.9315 11.3536C14.3983 10.8779 14.6598 10.2376 14.6598 9.57065C14.6598 8.90367 14.3983 8.26339 13.9315 7.7877L9.42167 3.2709C8.94262 2.8019 8.29946 2.53931 7.62965 2.53931C6.95961 2.53931 6.31644 2.8019 5.8374 3.2709L4.79297 4.34067C3.55492 5.56435 2.77522 7.17769 2.58494 8.90945C2.39465 10.6412 2.80567 12.3857 3.74877 13.8497C8.66219 21.1021 14.914 27.3473 22.1679 32.2498Z" fill="#3B4CCF" stroke="#3B4CCF" stroke-width="2.4" stroke-linecap="round" stroke-linejoin="round"/>
</svg>
