<svg width="80" height="80" viewBox="0 0 80 80" fill="none" xmlns="http://www.w3.org/2000/svg">
<path d="M17 41.1459C17 27.8105 27.7452 17 41 17C54.2548 17 65 27.8105 65 41.1459C65 50.8461 59.3146 59.2092 51.1157 63.0483C49.8009 63.6641 48.0816 63.5904 47.0994 62.2756C46.391 61.3272 45.7158 59.9055 45.6499 57.9151C45.5992 56.3835 46.7169 55.2409 47.8858 54.6357C52.7468 52.1189 56.0698 47.0223 56.0698 41.1459C56.0698 32.7725 49.3228 25.9845 41 25.9845C32.6771 25.9845 25.9302 32.7725 25.9302 41.1459C25.9302 45.0044 27.3622 48.5253 29.7217 51.2018C30.7752 50.229 31.6763 49.4476 32.4333 48.8234C33.3221 48.0907 34.3964 47.9558 35.2886 48.3455C36.179 48.7345 36.819 49.6157 36.9107 50.7636C37.1856 54.201 37.1096 58.0117 36.945 61.1505C36.8401 63.1521 35.256 64.7457 33.2665 64.8512C30.1683 65.0156 26.4117 65.092 23.0138 64.8223C21.8592 64.7307 20.9763 64.0746 20.5876 63.1675C20.1986 62.2594 20.3329 61.1646 21.0696 60.262C21.6879 59.5044 22.4561 58.6077 23.4038 57.5662C19.4303 53.2581 17 47.487 17 41.1459Z" fill="white"/>
</svg>
