<svg width="80" height="80" viewBox="0 0 80 80" fill="none" xmlns="http://www.w3.org/2000/svg">
<path d="M46.5736 12H44.7844C39.9599 12 36.0488 16.2905 36.0488 21.5831V36.7507C36.0488 42.0432 39.9599 46.3337 44.7844 46.3337H46.5736C51.3982 46.3337 55.3092 42.0432 55.3092 36.7507V21.5831C55.3092 16.2905 51.3982 12 46.5736 12Z" fill="#1ABAFF"/>
<path d="M62.6763 34.2312C61.3513 34.2312 60.2771 35.3068 60.2771 36.6333C60.2771 45.2114 54.1408 52.1903 46.5978 52.1903H44.4778C36.9355 52.1903 30.7985 45.2114 30.7985 36.6333C30.7985 35.3068 29.7243 34.2312 28.3992 34.2312C27.0742 34.2312 26 35.3068 26 36.6333C26 42.003 27.8948 47.0771 31.3356 50.92C33.0293 52.8113 35.0044 54.3004 37.2069 55.3455C39.101 56.2442 41.091 56.7785 43.1378 56.9405V63.1956H38.5077C37.1827 63.1956 36.1085 64.2713 36.1085 65.5977C36.1085 66.9242 37.1827 67.9998 38.5077 67.9998H52.5664C53.8914 67.9998 54.9656 66.9242 54.9656 65.5977C54.9656 64.2713 53.8914 63.1956 52.5664 63.1956H47.9363V56.9405C49.9832 56.7785 51.9732 56.2442 53.8673 55.3455C56.0697 54.3004 58.0455 52.8113 59.7385 50.92C63.1793 47.0771 65.0741 42.003 65.0741 36.6333C65.0741 35.3068 63.9999 34.2312 62.6749 34.2312H62.6763Z" fill="#BBF9FF"/>
</svg>
