<svg width="48" height="48" viewBox="0 0 48 48" fill="none" xmlns="http://www.w3.org/2000/svg">
<path fill-rule="evenodd" clip-rule="evenodd" d="M8.72727 21.3169C8.26341 21.7493 8 22.3549 8 22.989V36.0714C8 37.9649 9.53502 39.5 11.4286 39.5H21.7143V28.3762C21.7143 27.1138 22.7376 26.0905 24 26.0905C25.2624 26.0905 26.2857 27.1138 26.2857 28.3762V39.5H36.5714C38.4649 39.5 40 37.9649 40 36.0714V22.989C40 22.3549 39.7367 21.7493 39.2727 21.3169L24.7438 7.77514C24.3158 7.40829 23.6842 7.40829 23.2562 7.77514L8.72727 21.3169Z" fill="white"/>
<line x1="17.3794" y1="37.5" x2="31.7242" y2="37.5" stroke="white" stroke-width="4"/>
</svg>
