<svg width="23" height="23" viewBox="0 0 23 23" fill="none" xmlns="http://www.w3.org/2000/svg">
<path d="M18.217 8.91424L10.2256 3.07146C9.77653 2.73912 9.24565 2.54332 8.69356 2.5064C8.14147 2.46948 7.5904 2.59293 7.10326 2.86266C6.61503 3.13572 6.20803 3.53997 5.92568 4.03228C5.64334 4.52459 5.49624 5.0865 5.50008 5.65805V17.3436C5.49618 17.9149 5.64327 18.4766 5.92563 18.9687C6.208 19.4607 6.61504 19.8646 7.10326 20.1372C7.59036 20.4068 8.14126 20.5303 8.69327 20.4937C9.24527 20.4571 9.77619 20.2619 10.2256 19.9302L18.217 14.0874C18.6143 13.7911 18.9377 13.4023 19.1607 12.9527C19.3837 12.5031 19.5 12.0056 19.5 11.5008C19.5 10.9961 19.3837 10.4986 19.1607 10.049C18.9377 9.59938 18.6143 9.21052 18.217 8.91424Z" fill="black"/>
</svg>
