<svg width="23" height="23" viewBox="0 0 23 23" fill="none" xmlns="http://www.w3.org/2000/svg">
<path d="M7.83333 2.5H6.16667C5.72464 2.5 5.30072 2.71071 4.98816 3.08579C4.67559 3.46086 4.5 3.96957 4.5 4.5V18.5C4.5 19.0304 4.67559 19.5391 4.98816 19.9142C5.30072 20.2893 5.72464 20.5 6.16667 20.5H7.83333C8.27536 20.5 8.69928 20.2893 9.01185 19.9142C9.32441 19.5391 9.5 19.0304 9.5 18.5V4.5C9.5 3.96957 9.32441 3.46086 9.01185 3.08579C8.69928 2.71071 8.27536 2.5 7.83333 2.5Z" fill="black"/>
<path d="M16.8333 2.5H15.1667C14.7246 2.5 14.3007 2.71071 13.9882 3.08579C13.6756 3.46086 13.5 3.96957 13.5 4.5V18.5C13.5 19.0304 13.6756 19.5391 13.9882 19.9142C14.3007 20.2893 14.7246 20.5 15.1667 20.5H16.8333C17.2754 20.5 17.6993 20.2893 18.0118 19.9142C18.3244 19.5391 18.5 19.0304 18.5 18.5V4.5C18.5 3.96957 18.3244 3.46086 18.0118 3.08579C17.6993 2.71071 17.2754 2.5 16.8333 2.5Z" fill="black"/>
</svg>
