<svg width="40" height="40" viewBox="0 0 40 40" fill="none" xmlns="http://www.w3.org/2000/svg">
<path d="M9.28784 17.878C9.48702 17.8239 9.69127 17.7834 9.89895 17.7572C16.8943 16.8745 23.1023 16.8737 30.0978 17.7546C30.3057 17.7807 30.5098 17.8212 30.7091 17.8752C30.3347 15.007 29.6197 12.3413 28.5312 9.73077C27.9407 8.31444 26.5971 7.36919 25.0689 7.23074C21.6734 6.92309 18.3239 6.92309 14.9284 7.23074C13.4002 7.36919 12.0565 8.31444 11.4661 9.73077C10.3773 12.3421 9.66204 15.0087 9.28784 17.878Z" stroke="#3B4CCF" stroke-width="2" stroke-linecap="round" stroke-linejoin="round"/>
<path d="M10.7196 29.8589V33.7713" stroke="#3B4CCF" stroke-width="2" stroke-linecap="round" stroke-linejoin="round"/>
<path d="M29.2791 29.8589V33.7713" stroke="#3B4CCF" stroke-width="2" stroke-linecap="round" stroke-linejoin="round"/>
<path d="M28.842 17.6049C22.7683 16.9237 17.2303 16.9245 11.1567 17.6073C8.8061 17.8715 6.69841 19.3959 6.28925 21.7257C6.06793 22.9859 5.99517 24.2524 6.00025 25.5475C6.00938 27.8703 7.91162 29.7238 10.2315 29.8416C16.8957 30.1795 23.1054 30.1789 29.7693 29.8394C32.0889 29.721 33.9906 27.8674 33.9998 25.5453C34.0048 24.2502 33.932 22.9837 33.7109 21.7236C33.3018 19.3932 31.1932 17.8686 28.842 17.6049Z" fill="#3B4CCF" stroke="#3B4CCF" stroke-width="2" stroke-linecap="round" stroke-linejoin="round"/>
<path d="M13.9315 23.9296H12.2098" stroke="white" stroke-width="2" stroke-linecap="round" stroke-linejoin="round"/>
<path d="M26.0693 23.9296H27.7908" stroke="white" stroke-width="2" stroke-linecap="round" stroke-linejoin="round"/>
</svg>
