<svg width="24" height="24" viewBox="0 0 24 24" fill="none" xmlns="http://www.w3.org/2000/svg">
<g clip-path="url(#clip0_559_7832)">
<path d="M16.8818 12L8.99984 17L8.99984 7L16.8818 12Z" stroke="white" stroke-width="1.3"/>
<path d="M12 1C9.0826 0.999999 6.2847 2.15893 4.2218 4.22183C2.1589 6.28473 1 9.08262 1 12C0.999999 14.9174 2.1589 17.7153 4.2218 19.7782C6.2847 21.8411 9.0826 23 12 23C14.9174 23 17.7153 21.8411 19.7782 19.7782C21.8411 17.7153 23 14.9174 23 12C23 9.08262 21.8411 6.28473 19.7782 4.22183C17.7153 2.15893 14.9174 1 12 1Z" stroke="white" stroke-width="1.4"/>
</g>
<defs>
<clipPath id="clip0_559_7832">
<rect width="24" height="24" rx="12" fill="white"/>
</clipPath>
</defs>
</svg>
