<svg width="40" height="40" viewBox="0 0 40 40" fill="none" xmlns="http://www.w3.org/2000/svg">
<g clip-path="url(#clip0_1076_3539)">
<path d="M36.9267 31.2988C36.9267 34.4192 34.4022 36.9437 31.2975 36.9437H8.70247C5.58212 36.9437 3.05762 34.4192 3.05762 31.2988V8.70353C3.05762 5.58316 5.58212 3.05863 8.70247 3.05863H31.2975C34.4022 3.05863 36.9267 5.58316 36.9267 8.70353M31.2975 0.000976562H8.70247C3.90435 0.000976562 0 3.90537 0 8.70353V31.2831C0 36.0813 3.90435 39.9857 8.70247 39.9857H31.2975C36.0956 39.9857 40 36.0813 40 31.2831V8.70353C40 3.90537 36.0956 0.000976562 31.2975 0.000976562Z" fill="black"/>
<path d="M18.6452 10.1458C18.6452 11.4159 17.6103 12.4508 16.3402 12.4508C15.0701 12.4508 14.0352 11.4159 14.0352 10.1458C14.0352 8.87572 15.0701 7.84082 16.3402 7.84082C17.6103 7.84082 18.6452 8.87572 18.6452 10.1458Z" fill="black"/>
<path d="M31.3756 10.1458C31.3756 11.4159 30.3407 12.4508 29.0706 12.4508C27.8005 12.4508 26.7656 11.4159 26.7656 10.1458C26.7656 8.87572 27.8005 7.84082 29.0706 7.84082C30.3407 7.84082 31.3756 8.87572 31.3756 10.1458Z" fill="black"/>
<path d="M18.5668 20.0862L18.9275 18.675L16.45 18.0478L16.9674 16.2916C17.3751 14.9274 16.6538 13.5162 15.3681 13.1399C14.0823 12.7635 12.7181 13.5632 12.3104 14.9274L10.9305 19.6001C10.6797 20.4626 10.8678 21.3563 11.3853 21.9835V22.0149L15.0388 26.3897L13.8157 30.4195C13.5962 31.1251 14.0509 31.8935 14.8192 32.1287C15.5876 32.3639 16.3873 31.9719 16.6068 31.2663L18.0494 26.5308L18.0964 26.3583C18.1905 25.9506 18.1591 25.5116 17.9396 25.2294L16.1834 22.7362L15.3367 21.5445C15.4308 21.372 15.5249 21.1838 15.5876 20.98L15.713 20.5253L18.8804 21.325C18.5825 21.0114 18.4414 20.5566 18.5512 20.1176" fill="black"/>
<path d="M30.6704 25.1983L28.9142 22.7208L28.0832 21.4977L29.6669 16.3703C30.1059 15.0218 29.4474 13.5478 28.1459 13.1715C26.8758 12.8109 21.0898 14.912 21.0898 14.912C20.6821 15.0375 20.3842 15.3668 20.2744 15.7588L20.0862 16.1351L18.9886 20.1336C18.8004 20.7921 19.1925 21.4664 19.851 21.6389C20.5096 21.8113 21.1838 21.435 21.3563 20.7764L22.3755 17.0602L24.5551 16.3546L23.5359 19.4907C23.1752 20.604 23.5986 21.5291 24.461 22.4386L27.7539 26.3429L26.5308 30.3728C26.3113 31.0784 26.766 31.8467 27.5344 32.0819C28.3027 32.3171 29.1024 31.9251 29.3062 31.2195L30.7488 26.4841L30.7959 26.3116C30.8899 25.8882 30.8586 25.4805 30.6391 25.1826" fill="black"/>
<path d="M10.9591 23.3959L8.70119 30.3109C8.46599 31.0165 8.85799 31.7692 9.56361 32.0044C10.2692 32.2396 11.0219 31.8476 11.2571 31.1419L13.3112 24.8542L11.3041 22.4551C11.1944 22.706 11.0846 23.0196 10.9591 23.3959Z" fill="black"/>
<path d="M21.4189 30.3733C21.1994 31.0789 21.6071 31.8316 22.3127 32.0511C23.0183 32.2706 23.7709 31.8629 23.9905 31.1573L25.9348 24.7441L23.8807 22.2666" fill="black"/>
</g>
<defs>
<clipPath id="clip0_1076_3539">
<rect width="40" height="40.0004" fill="white" transform="translate(0 0.000976562)"/>
</clipPath>
</defs>
</svg>
