<svg width="40" height="41" viewBox="0 0 40 41" fill="none" xmlns="http://www.w3.org/2000/svg">
<g clip-path="url(#clip0_1076_3380)">
<path d="M36.9267 31.2998C36.9267 34.4202 34.4022 36.9447 31.2975 36.9447H8.70247C5.58212 36.9447 3.05762 34.4202 3.05762 31.2998V8.70451C3.05762 5.58413 5.58212 3.05961 8.70247 3.05961H31.2975C34.4022 3.05961 36.9267 5.58413 36.9267 8.70451M31.2975 0.00195312H8.70247C3.90435 0.00195312 0 3.90634 0 8.70451V31.2841C0 36.0823 3.90435 39.9867 8.70247 39.9867H31.2975C36.0956 39.9867 40 36.0823 40 31.2841V8.70451C40 3.90634 36.0956 0.00195312 31.2975 0.00195312Z" fill="black"/>
<path d="M9 10C9 9.44771 9.44772 9 10 9H30C30.5523 9 31 9.44772 31 10V25.0002C31 28.3139 28.3137 31.0002 25 31.0002H10C9.44772 31.0002 9 30.5525 9 30.0002V10Z" fill="white"/>
<path d="M13 15H27" stroke="black" stroke-width="1.8" stroke-linecap="round"/>
<path d="M13 20H27" stroke="black" stroke-width="1.8" stroke-linecap="round"/>
<path d="M13 25H20" stroke="black" stroke-width="1.8" stroke-linecap="round"/>
<path d="M9 10C9 9.44771 9.44772 9 10 9H30C30.5523 9 31 9.44772 31 10V25.0002C31 28.3139 28.3137 31.0002 25 31.0002H10C9.44772 31.0002 9 30.5525 9 30.0002V10Z" stroke="black" stroke-width="1.8"/>
<mask id="path-6-outside-1_1076_3380" maskUnits="userSpaceOnUse" x="8" y="8" width="24" height="24" fill="black">
<rect fill="white" x="8" y="8" width="24" height="24"/>
<path fill-rule="evenodd" clip-rule="evenodd" d="M10 9C9.44772 9 9 9.44772 9 10V9.91666C9 9.4104 9.4104 9 9.91666 9H10ZM30 9C30.5523 9 31 9.44772 31 10V9.91666C31 9.4104 30.5896 9 30.0833 9H30ZM31 17.2499C31 17.294 30.9969 17.3375 30.9908 17.38V24.1156C30.9908 24.1764 30.9667 24.2347 30.9237 24.2776C30.8807 24.3206 30.8224 24.3448 30.7617 24.3448H25.9492C25.5237 24.3448 25.1157 24.5138 24.8148 24.8146C24.514 25.1154 24.345 25.5234 24.345 25.9489V30.7705C24.345 30.8313 24.3209 30.8895 24.2779 30.9325C24.2349 30.9755 24.1766 30.9996 24.1158 30.9996H22.7817C22.7772 30.9998 22.7728 30.9999 22.7683 31H10C9.44772 31 9 30.5523 9 30V30.0835C9 30.5898 9.4104 31.0002 9.91666 31.0002H22.75C22.7561 31.0002 22.7622 31.0001 22.7683 31H25C28.3137 31 31 28.3137 31 25V17.2499ZM25.9494 25.7201C25.8886 25.7201 25.8303 25.7443 25.7873 25.7872C25.7444 25.8302 25.7202 25.8885 25.7202 25.9493V30.615C25.7205 30.6483 25.728 30.6811 25.7423 30.7112C25.7565 30.7413 25.7771 30.7679 25.8027 30.7892C25.8286 30.812 25.8597 30.8281 25.8933 30.8361C25.9268 30.8441 25.9618 30.8437 25.9952 30.835C27.1774 30.57 28.2589 29.972 29.1119 29.1117C29.9755 28.2613 30.5741 27.1787 30.8352 25.9951C30.8439 25.9617 30.8443 25.9267 30.8363 25.8932C30.8283 25.8596 30.8122 25.8285 30.7894 25.8026C30.7681 25.777 30.7415 25.7564 30.7114 25.7422C30.6813 25.7279 30.6485 25.7204 30.6152 25.7201H25.9494Z"/>
</mask>
<path fill-rule="evenodd" clip-rule="evenodd" d="M10 9C9.44772 9 9 9.44772 9 10V9.91666C9 9.4104 9.4104 9 9.91666 9H10ZM30 9C30.5523 9 31 9.44772 31 10V9.91666C31 9.4104 30.5896 9 30.0833 9H30ZM31 17.2499C31 17.294 30.9969 17.3375 30.9908 17.38V24.1156C30.9908 24.1764 30.9667 24.2347 30.9237 24.2776C30.8807 24.3206 30.8224 24.3448 30.7617 24.3448H25.9492C25.5237 24.3448 25.1157 24.5138 24.8148 24.8146C24.514 25.1154 24.345 25.5234 24.345 25.9489V30.7705C24.345 30.8313 24.3209 30.8895 24.2779 30.9325C24.2349 30.9755 24.1766 30.9996 24.1158 30.9996H22.7817C22.7772 30.9998 22.7728 30.9999 22.7683 31H10C9.44772 31 9 30.5523 9 30V30.0835C9 30.5898 9.4104 31.0002 9.91666 31.0002H22.75C22.7561 31.0002 22.7622 31.0001 22.7683 31H25C28.3137 31 31 28.3137 31 25V17.2499ZM25.9494 25.7201C25.8886 25.7201 25.8303 25.7443 25.7873 25.7872C25.7444 25.8302 25.7202 25.8885 25.7202 25.9493V30.615C25.7205 30.6483 25.728 30.6811 25.7423 30.7112C25.7565 30.7413 25.7771 30.7679 25.8027 30.7892C25.8286 30.812 25.8597 30.8281 25.8933 30.8361C25.9268 30.8441 25.9618 30.8437 25.9952 30.835C27.1774 30.57 28.2589 29.972 29.1119 29.1117C29.9755 28.2613 30.5741 27.1787 30.8352 25.9951C30.8439 25.9617 30.8443 25.9267 30.8363 25.8932C30.8283 25.8596 30.8122 25.8285 30.7894 25.8026C30.7681 25.777 30.7415 25.7564 30.7114 25.7422C30.6813 25.7279 30.6485 25.7204 30.6152 25.7201H25.9494Z" fill="black"/>
<path d="M30.9908 17.38L30.7928 17.3519L30.7908 17.3659V17.38H30.9908ZM30.9237 24.2776L30.7823 24.1362L30.7823 24.1362L30.9237 24.2776ZM24.8148 24.8146L24.9563 24.956L24.8148 24.8146ZM22.7817 30.9996V30.7995L22.7749 30.7998L22.7817 30.9996ZM25.7873 25.7872L25.9288 25.9287L25.9288 25.9287L25.7873 25.7872ZM25.7202 30.615H25.5202L25.5202 30.6167L25.7202 30.615ZM25.8027 30.7892L25.935 30.6391L25.9307 30.6355L25.8027 30.7892ZM25.8933 30.8361L25.8469 31.0307L25.8469 31.0307L25.8933 30.8361ZM25.9952 30.835L25.9514 30.6398L25.9448 30.6415L25.9952 30.835ZM29.1119 29.1117L28.9715 28.9692L28.9699 28.9709L29.1119 29.1117ZM30.8352 25.9951L30.6415 25.9447L30.6399 25.952L30.8352 25.9951ZM30.8363 25.8932L30.6417 25.9395L30.6417 25.9395L30.8363 25.8932ZM30.7894 25.8026L30.6356 25.9307L30.6393 25.9348L30.7894 25.8026ZM30.7114 25.7422L30.6258 25.9229L30.6258 25.9229L30.7114 25.7422ZM30.6152 25.7201L30.6169 25.5201H30.6152V25.7201ZM9.2 10C9.2 9.55817 9.55817 9.2 10 9.2V8.8C9.33726 8.8 8.8 9.33726 8.8 10H9.2ZM9.2 10V9.91666H8.8V10H9.2ZM9.2 9.91666C9.2 9.52086 9.52086 9.2 9.91666 9.2V8.8C9.29994 8.8 8.8 9.29995 8.8 9.91666H9.2ZM9.91666 9.2H10V8.8H9.91666V9.2ZM30 9.2C30.4418 9.2 30.8 9.55817 30.8 10H31.2C31.2 9.33726 30.6627 8.8 30 8.8V9.2ZM30.8 9.91666V10H31.2V9.91666H30.8ZM30.0833 9.2C30.4791 9.2 30.8 9.52086 30.8 9.91666H31.2C31.2 9.29995 30.7001 8.8 30.0833 8.8V9.2ZM30 9.2H30.0833V8.8H30V9.2ZM30.8 17.2499C30.8 17.2846 30.7975 17.3186 30.7928 17.3519L31.1888 17.4081C31.1962 17.3563 31.2 17.3035 31.2 17.2499H30.8ZM30.7908 17.38V24.1156H31.1908V17.38H30.7908ZM30.7908 24.1156C30.7908 24.1233 30.7878 24.1307 30.7823 24.1362L31.0651 24.4191C31.1456 24.3386 31.1908 24.2294 31.1908 24.1156H30.7908ZM30.7823 24.1362C30.7768 24.1417 30.7694 24.1448 30.7617 24.1448V24.5448C30.8755 24.5448 30.9846 24.4995 31.0651 24.4191L30.7823 24.1362ZM30.7617 24.1448H25.9492V24.5448H30.7617V24.1448ZM25.9492 24.1448C25.4707 24.1448 25.0118 24.3348 24.6734 24.6732L24.9563 24.956C25.2196 24.6927 25.5768 24.5448 25.9492 24.5448V24.1448ZM24.6734 24.6732C24.3351 25.0115 24.145 25.4704 24.145 25.9489H24.545C24.545 25.5765 24.6929 25.2193 24.9563 24.956L24.6734 24.6732ZM24.145 25.9489V30.7705H24.545V25.9489H24.145ZM24.145 30.7705C24.145 30.7782 24.1419 30.7856 24.1365 30.7911L24.4193 31.0739C24.4998 30.9935 24.545 30.8843 24.545 30.7705H24.145ZM24.1365 30.7911C24.131 30.7966 24.1236 30.7996 24.1158 30.7996V31.1996C24.2297 31.1996 24.3388 31.1544 24.4193 31.0739L24.1365 30.7911ZM24.1158 30.7996H22.7817V31.1996H24.1158V30.7996ZM22.7749 30.7998C22.7714 30.7999 22.7679 30.8 22.7644 30.8L22.7723 31.2C22.7776 31.1999 22.783 31.1997 22.7884 31.1995L22.7749 30.7998ZM22.7683 30.8H10V31.2H22.7683V30.8ZM10 30.8C9.55817 30.8 9.2 30.4418 9.2 30H8.8C8.8 30.6627 9.33726 31.2 10 31.2V30.8ZM9.2 30.0835V30H8.8V30.0835H9.2ZM9.91666 30.8002C9.52086 30.8002 9.2 30.4793 9.2 30.0835H8.8C8.8 30.7002 9.29995 31.2002 9.91666 31.2002V30.8002ZM22.75 30.8002H9.91666V31.2002H22.75V30.8002ZM22.7644 30.8C22.7596 30.8001 22.7548 30.8002 22.75 30.8002V31.2002C22.7574 31.2002 22.7648 31.2001 22.7723 31.2L22.7644 30.8ZM25 30.8H22.7683V31.2H25V30.8ZM30.8 25C30.8 28.2033 28.2033 30.8 25 30.8V31.2C28.4242 31.2 31.2 28.4242 31.2 25H30.8ZM30.8 17.2499V25H31.2V17.2499H30.8ZM25.9288 25.9287C25.9342 25.9232 25.9416 25.9201 25.9494 25.9201V25.5201C25.8356 25.5201 25.7264 25.5653 25.6459 25.6458L25.9288 25.9287ZM25.9202 25.9493C25.9202 25.9415 25.9233 25.9341 25.9288 25.9287L25.6459 25.6458C25.5654 25.7263 25.5202 25.8355 25.5202 25.9493H25.9202ZM25.9202 30.615V25.9493H25.5202V30.615H25.9202ZM25.923 30.6256C25.9212 30.6218 25.9202 30.6176 25.9202 30.6134L25.5202 30.6167C25.5207 30.679 25.5348 30.7405 25.5615 30.7968L25.923 30.6256ZM25.9307 30.6355C25.9275 30.6328 25.9248 30.6294 25.923 30.6256L25.5615 30.7968C25.5882 30.8532 25.6268 30.903 25.6747 30.9429L25.9307 30.6355ZM25.9396 30.6415C25.9378 30.6411 25.9362 30.6403 25.9349 30.6391L25.6705 30.9393C25.721 30.9837 25.7815 31.0151 25.8469 31.0307L25.9396 30.6415ZM25.9448 30.6415C25.9431 30.6419 25.9413 30.642 25.9396 30.6415L25.8469 31.0307C25.9123 31.0462 25.9805 31.0455 26.0456 31.0286L25.9448 30.6415ZM28.9699 28.9709C28.1438 29.8041 27.0963 30.3832 25.9515 30.6399L26.039 31.0302C27.2584 30.7568 28.374 30.1399 29.2539 29.2526L28.9699 28.9709ZM30.6399 25.952C30.3871 27.0979 29.8076 28.1459 28.9716 28.9692L29.2522 29.2542C30.1434 28.3766 30.7611 27.2596 31.0305 26.0382L30.6399 25.952ZM30.6417 25.9395C30.6421 25.9412 30.6421 25.943 30.6417 25.9447L31.0288 26.0455C31.0457 25.9805 31.0464 25.9122 31.0308 25.8468L30.6417 25.9395ZM30.6393 25.9348C30.6405 25.9362 30.6413 25.9378 30.6417 25.9395L31.0308 25.8468C31.0153 25.7814 30.9839 25.7209 30.9395 25.6704L30.6393 25.9348ZM30.6258 25.9229C30.6296 25.9247 30.633 25.9274 30.6357 25.9306L30.9431 25.6746C30.9032 25.6267 30.8533 25.5881 30.797 25.5614L30.6258 25.9229ZM30.6135 25.9201C30.6178 25.9202 30.622 25.9211 30.6258 25.9229L30.797 25.5614C30.7407 25.5347 30.6792 25.5207 30.6169 25.5201L30.6135 25.9201ZM25.9494 25.9201H30.6152V25.5201H25.9494V25.9201Z" fill="black" mask="url(#path-6-outside-1_1076_3380)"/>
</g>
<defs>
<clipPath id="clip0_1076_3380">
<rect width="40" height="40.0004" fill="white" transform="translate(0 0.00195312)"/>
</clipPath>
</defs>
</svg>
