<svg width="40" height="41" viewBox="0 0 40 41" fill="none" xmlns="http://www.w3.org/2000/svg">
<g clip-path="url(#clip0_1076_3393)">
<path d="M36.9388 31.3043C36.9388 34.4126 34.4113 36.94 31.303 36.94H8.71272C5.6044 36.94 3.07692 34.4126 3.07692 31.3043V8.7145C3.07692 5.60624 5.6044 3.07882 8.71272 3.07882H31.303C34.4113 3.07882 36.9388 5.60624 36.9388 8.7145M31.303 0.00195312H8.71272C3.90895 0.00195312 0 3.91083 0 8.7145V31.3043C0 36.108 3.90895 40.0012 8.71272 40.0012H31.303C36.1068 40.0012 40.0157 36.0923 40.0157 31.3043V8.7145C40.0157 3.91083 36.1068 0.00195312 31.303 0.00195312Z" fill="black"/>
<path d="M27.5346 30.2998C26.7967 31.0376 25.8391 31.4615 24.803 31.4615C22.668 31.4615 20.9412 29.6876 20.9412 27.5055C20.9412 26.438 21.3493 25.449 22.0715 24.7112C22.7936 23.9734 23.7669 23.5652 24.803 23.5652C25.2583 23.5652 25.6194 23.2042 25.6194 22.7489C25.6194 22.2937 25.2583 21.9326 24.803 21.9326C23.3431 21.9326 21.9616 22.5135 20.9255 23.5809C19.8894 24.6327 19.3242 26.0456 19.3242 27.5369C19.3242 30.6138 21.7889 33.1255 24.8187 33.1255C26.2787 33.1255 27.6602 32.5447 28.712 31.4772C29.0259 31.1632 29.0259 30.6295 28.712 30.3155C28.398 30.0015 27.8642 30.0015 27.566 30.3155" fill="black"/>
<path d="M32.1512 25.9357C31.9471 25.4333 31.4605 25.1194 30.9424 25.1194H28.6033V19.311C28.6033 18.5732 28.0068 17.9609 27.2846 17.9609H27.0492L23.4699 18.0708C23.2501 18.0708 23.0303 18.165 22.8576 18.322L20.3302 20.5983C19.922 20.9593 19.8749 21.6029 20.236 22.0111C20.4244 22.2309 20.7069 22.3408 20.9738 22.3408C21.2093 22.3408 21.4448 22.2623 21.6175 22.0896L23.8938 20.0488L25.9503 19.9703V26.438C25.9503 27.1758 26.5468 27.7881 27.269 27.7881H30.0633L31.4762 31.1161C31.6959 31.6184 32.1826 31.9324 32.685 31.9324C32.8576 31.9324 33.046 31.901 33.2187 31.8225C33.8938 31.5243 34.192 30.7236 33.9095 30.0486" fill="black"/>
<path d="M27.3472 17.3955C28.2106 17.3955 28.9171 16.6891 28.9171 15.8257C28.9171 14.9623 28.2106 14.2559 27.3472 14.2559C26.4838 14.2559 25.7773 14.9623 25.7773 15.8257C25.7773 16.6891 26.4838 17.3955 27.3472 17.3955Z" fill="black"/>
<path d="M10.5808 9.90763C11.5855 9.90763 12.4018 9.09132 12.4018 8.08663C12.4018 7.08194 11.5855 6.26562 10.5808 6.26562C9.57609 6.26562 8.75977 7.08194 8.75977 8.08663C8.75977 9.09132 9.57609 9.90763 10.5808 9.90763Z" fill="black"/>
<path d="M18.131 11.5241C17.8641 11.2573 17.4245 11.2573 17.1576 11.5241L15.4936 13.1725C15.3366 13.3452 15.0697 13.3451 14.9128 13.2039L13.1074 11.4457C12.6993 10.8962 12.0242 10.5352 11.2707 10.5352H9.24556C7.92688 10.5352 6.85938 11.5555 6.85938 12.7957V17.1755H8.11526V12.8742L8.28795 12.7015L8.46063 12.8742V17.1755H13.4999V13.7533L13.9708 14.2086C14.3162 14.5225 14.7401 14.6795 15.1796 14.6795C15.6506 14.6795 16.1058 14.5068 16.4512 14.1458L18.0996 12.4974C18.3664 12.2306 18.3664 11.791 18.0996 11.5241" fill="black"/>
</g>
<defs>
<clipPath id="clip0_1076_3393">
<rect width="40" height="40.0004" fill="white" transform="translate(0 0.00195312)"/>
</clipPath>
</defs>
</svg>
