<svg width="40" height="40" viewBox="0 0 40 40" fill="none" xmlns="http://www.w3.org/2000/svg">
<g clip-path="url(#clip0_1076_3323)">
<path d="M36.9267 31.2978C36.9267 34.4182 34.4022 36.9427 31.2975 36.9427H8.70247C5.58212 36.9427 3.05762 34.4182 3.05762 31.2978V8.70255C3.05762 5.58218 5.58212 3.05765 8.70247 3.05765H31.2975C34.4022 3.05765 36.9267 5.58218 36.9267 8.70255M31.2975 0H8.70247C3.90435 0 0 3.90439 0 8.70255V31.2822C0 36.0803 3.90435 39.9847 8.70247 39.9847H31.2975C36.0956 39.9847 40 36.0803 40 31.2822V8.70255C40 3.90439 36.0956 0 31.2975 0Z" fill="black"/>
<path d="M27.5346 30.2998C26.7967 31.0376 25.8391 31.4615 24.803 31.4615C22.668 31.4615 20.9412 29.6876 20.9412 27.5055C20.9412 26.438 21.3493 25.449 22.0715 24.7112C22.7936 23.9734 23.7669 23.5652 24.803 23.5652C25.2583 23.5652 25.6194 23.2042 25.6194 22.7489C25.6194 22.2937 25.2583 21.9326 24.803 21.9326C23.3431 21.9326 21.9616 22.5135 20.9255 23.5809C19.8894 24.6327 19.3242 26.0456 19.3242 27.5369C19.3242 30.6138 21.7889 33.1255 24.8187 33.1255C26.2787 33.1255 27.6602 32.5447 28.712 31.4772C29.0259 31.1632 29.0259 30.6295 28.712 30.3155C28.398 30.0015 27.8642 30.0015 27.566 30.3155" fill="black"/>
<path d="M32.1512 25.9357C31.9471 25.4333 31.4605 25.1194 30.9424 25.1194H28.6033V19.311C28.6033 18.5732 28.0068 17.9609 27.2846 17.9609H27.0492L23.4699 18.0708C23.2501 18.0708 23.0303 18.165 22.8576 18.322L20.3302 20.5983C19.922 20.9593 19.8749 21.6029 20.236 22.0111C20.4244 22.2309 20.7069 22.3408 20.9738 22.3408C21.2093 22.3408 21.4448 22.2623 21.6175 22.0896L23.8938 20.0488L25.9503 19.9703V26.438C25.9503 27.1758 26.5468 27.7881 27.269 27.7881H30.0633L31.4762 31.1161C31.6959 31.6184 32.1826 31.9324 32.685 31.9324C32.8576 31.9324 33.046 31.901 33.2187 31.8225C33.8938 31.5243 34.192 30.7236 33.9095 30.0486" fill="black"/>
<path d="M27.3472 17.3955C28.2106 17.3955 28.9171 16.6891 28.9171 15.8257C28.9171 14.9623 28.2106 14.2559 27.3472 14.2559C26.4838 14.2559 25.7773 14.9623 25.7773 15.8257C25.7773 16.6891 26.4838 17.3955 27.3472 17.3955Z" fill="black"/>
<path fill-rule="evenodd" clip-rule="evenodd" d="M17.9598 18.3324H17.0535C17.1349 19.2744 17.0264 19.9843 16.2819 20.0003C15.5462 20.0172 15.364 19.3363 15.4677 18.3766C13.593 18.2742 11.5225 18.3606 9.57316 18.3324C9.52178 18.8715 9.67397 19.2405 9.48301 19.6049C9.18639 20.1721 8.28491 20.0857 8.03192 19.6049C7.86713 19.2884 7.9786 18.8827 7.9408 18.3756C7.72852 18.2733 7.32237 18.3597 7.03447 18.3315C7.1159 16.5782 6.92591 14.7094 7.03447 12.973C7.08003 12.2574 7.26227 11.492 7.35144 10.7773C7.46292 9.90586 7.44353 8.77518 7.85065 8.2737C8.48169 7.49706 10.9738 7.01342 12.3852 7.00028C13.2576 6.99183 14.2812 7.17777 15.1953 7.39564C16.091 7.60882 16.9915 7.87176 17.3269 8.53759C17.5498 8.98178 17.607 9.96878 17.6884 10.6008C17.7815 11.3089 17.9133 12.0536 17.9608 12.7532C18.0858 14.5582 17.8668 16.5303 17.9608 18.3315M12.5665 8.67H13.8818C14.192 8.67 14.9627 8.73198 15.0596 8.49345C15.2389 8.05019 14.7368 8.01733 14.2444 8.00981C13.1975 7.99385 12.5093 8.00981 11.57 8.00981C10.7606 8.00981 9.67494 7.80509 9.98222 8.57985C10.6704 8.73668 11.5962 8.66906 12.5665 8.66906M12.6576 9.32644H10.7528C10.1693 9.32644 9.34149 9.19872 8.84907 9.32644C8.3392 9.46167 8.30915 10.4862 8.21512 11.1727C8.10365 11.9794 7.98248 12.6875 8.03289 13.1486C8.60867 13.4453 9.38802 13.3251 10.1189 13.3251H14.7426C15.5035 13.3251 16.2771 13.42 16.9188 13.1918C17.0438 12.6208 16.8829 11.9277 16.7831 11.2591C16.6842 10.6102 16.6551 9.89647 16.374 9.41471C15.2273 9.25694 13.973 9.3255 12.6576 9.3255M9.69432 15.903C9.69432 16.3284 9.33664 16.6749 8.89656 16.6749C8.45649 16.6749 8.09783 16.3284 8.09783 15.903C8.09783 15.4776 8.45552 15.1292 8.89656 15.1292C9.33761 15.1292 9.69432 15.4747 9.69432 15.903ZM16.6852 15.903C16.6852 16.3284 16.3284 16.6749 15.8874 16.6749C15.4464 16.6749 15.0887 16.3284 15.0887 15.903C15.0887 15.4776 15.4464 15.1292 15.8874 15.1292C16.3284 15.1292 16.6852 15.4747 16.6852 15.903Z" fill="black"/>
</g>
<defs>
<clipPath id="clip0_1076_3323">
<rect width="40" height="40.0004" fill="white"/>
</clipPath>
</defs>
</svg>
