<svg width="40" height="41" viewBox="0 0 40 41" fill="none" xmlns="http://www.w3.org/2000/svg">
<g clip-path="url(#clip0_1076_3430)">
<path d="M36.9388 31.3053C36.9388 34.4136 34.4113 36.941 31.303 36.941H8.71272C5.6044 36.941 3.07692 34.4136 3.07692 31.3053V8.71548C3.07692 5.60722 5.6044 3.07979 8.71272 3.07979H31.303C34.4113 3.07979 36.9388 5.60722 36.9388 8.71548M31.303 0.00292969H8.71272C3.90895 0.00292969 0 3.9118 0 8.71548V31.3053C0 36.109 3.90895 40.0022 8.71272 40.0022H31.303C36.1068 40.0022 40.0157 36.0933 40.0157 31.3053V8.71548C40.0157 3.9118 36.1068 0.00292969 31.303 0.00292969Z" fill="black"/>
<path d="M17.4987 8.76758H13.9393C13.3435 8.76758 12.873 9.25367 12.873 9.8652V14.1773C12.873 14.4595 13.0926 14.6947 13.3748 14.6947C13.6571 14.6947 13.8766 14.4595 13.8766 14.1773V10.4924L14.0177 10.3513L14.1588 10.4924V13.848V19.2734C14.1588 19.681 14.4724 19.9947 14.8644 19.9947C15.2564 19.9947 15.5857 19.6654 15.5857 19.2734V13.848L15.7269 13.7069L15.868 13.848V19.2734C15.868 19.681 16.1816 19.9947 16.5893 19.9947C16.997 19.9947 17.2949 19.6654 17.2949 19.2734V13.8166V10.5081L17.436 10.367L17.5771 10.5081V14.193C17.5771 14.4752 17.7967 14.7104 18.0789 14.7104C18.3611 14.7104 18.5807 14.4752 18.5807 14.193V9.88088C18.5807 9.26935 18.1103 8.78326 17.5144 8.78326" fill="black"/>
<path d="M15.7267 8.51719C16.3696 8.51719 16.8871 7.98406 16.8871 7.32549C16.8871 6.66692 16.3696 6.13379 15.7267 6.13379C15.0839 6.13379 14.5664 6.66692 14.5664 7.32549C14.5664 7.98406 15.0839 8.51719 15.7267 8.51719Z" fill="black"/>
<path d="M8.60956 8.51719C9.25245 8.51719 9.7699 7.98406 9.7699 7.32549C9.7699 6.66692 9.25245 6.13379 8.60956 6.13379C7.96667 6.13379 7.44922 6.66692 7.44922 7.32549C7.44922 7.98406 7.96667 8.51719 8.60956 8.51719Z" fill="black"/>
<path d="M10.3952 8.76758H6.83579C6.23994 8.76758 5.76953 9.25367 5.76953 9.8652V14.1773C5.76953 14.4595 5.98905 14.6947 6.2713 14.6947H6.31834C6.56923 13.9891 6.69467 13.3462 6.75739 12.8288V10.5081L6.89851 10.367L7.03963 10.5081V12.7504C6.94555 13.5657 6.69467 14.7418 6.02042 15.9648H7.05531V19.2734C7.05531 19.681 7.36892 19.9947 7.76093 19.9947C8.15293 19.9947 8.48222 19.6654 8.48222 19.2734V15.9648H8.76446V19.2734C8.76446 19.681 9.07807 19.9947 9.47007 19.9947C9.86208 19.9947 10.1914 19.6654 10.1914 19.2734V15.9648H11.1949C10.5207 14.7418 10.2698 13.5501 10.1914 12.7504V10.5081L10.3325 10.367L10.4736 10.5081V12.8131C10.5363 13.3305 10.6618 13.9734 10.9283 14.6947H10.9754C11.2419 14.6947 11.4771 14.4752 11.4771 14.193V9.88088C11.4771 9.26935 11.0067 8.78326 10.4109 8.78326" fill="black"/>
<path d="M27.533 30.2962C26.796 31.0488 25.8238 31.4565 24.7889 31.4565C22.6564 31.4565 20.9159 29.6846 20.9159 27.5051C20.9159 26.4545 21.3236 25.451 22.0449 24.714C22.7819 23.9613 23.754 23.5537 24.7733 23.5537C25.228 23.5537 25.5886 23.193 25.5886 22.7383C25.5886 22.2836 25.228 21.9072 24.7733 21.9072C23.315 21.9072 21.9194 22.4874 20.8845 23.5537C19.8496 24.6199 19.2852 26.0155 19.2852 27.5051C19.2852 30.5941 21.747 33.1029 24.7733 33.1029C26.2315 33.1029 27.6271 32.5228 28.662 31.4565C28.9756 31.1272 28.9756 30.6098 28.662 30.2962C28.3484 29.9826 27.8152 29.9826 27.5173 30.2962" fill="black"/>
<path d="M32.1596 25.9373C31.9401 25.4355 31.4697 25.1219 30.9522 25.1219H28.6158V19.3202C28.6158 18.5675 28.02 17.9717 27.283 17.9717H27.0478L23.4727 18.0814C23.2375 18.0814 23.0337 18.1755 22.8455 18.3323L20.321 20.606C19.9133 20.9666 19.8819 21.6095 20.2426 22.0172C20.4307 22.2367 20.6973 22.3622 20.9796 22.3622C21.1991 22.3622 21.4343 22.2838 21.6224 22.1113L23.8961 20.0728L25.9659 19.9944V26.4547C25.9659 27.2074 26.5617 27.8032 27.283 27.8032H30.0741L31.4853 31.1274C31.7049 31.6292 32.1909 31.9428 32.6927 31.9428C32.8652 31.9428 33.0534 31.9114 33.2258 31.833C33.9001 31.5351 34.198 30.7354 33.9158 30.0612" fill="black"/>
<path d="M27.316 17.3919C28.1627 17.3919 28.8526 16.6863 28.8526 15.8239C28.8526 14.9615 28.1627 14.2559 27.316 14.2559C26.4692 14.2559 25.7793 14.9615 25.7793 15.8239C25.7793 16.6863 26.4535 17.3919 27.316 17.3919Z" fill="black"/>
</g>
<defs>
<clipPath id="clip0_1076_3430">
<rect width="40" height="40.0004" fill="white" transform="translate(0 0.00292969)"/>
</clipPath>
</defs>
</svg>
