<svg width="40" height="41" viewBox="0 0 40 41" fill="none" xmlns="http://www.w3.org/2000/svg">
<g clip-path="url(#clip0_1076_3567)">
<path d="M36.9267 31.2998C36.9267 34.4202 34.4022 36.9447 31.2975 36.9447H8.70247C5.58212 36.9447 3.05762 34.4202 3.05762 31.2998V8.70451C3.05762 5.58413 5.58212 3.05961 8.70247 3.05961H31.2975C34.4022 3.05961 36.9267 5.58413 36.9267 8.70451M31.2975 0.00195312H8.70247C3.90435 0.00195312 0 3.90634 0 8.70451V31.2841C0 36.0823 3.90435 39.9867 8.70247 39.9867H31.2975C36.0956 39.9867 40 36.0823 40 31.2841V8.70451C40 3.90634 36.0956 0.00195312 31.2975 0.00195312Z" fill="black"/>
<path d="M9 9.91666C9 9.4104 9.4104 9 9.91666 9H30.0833C30.5896 9 31 9.4104 31 9.91666V17.2499C31 17.294 30.9969 17.3375 30.9908 17.38V24.1156C30.9908 24.1764 30.9667 24.2347 30.9237 24.2776C30.8807 24.3206 30.8224 24.3448 30.7617 24.3448H25.9492C25.5237 24.3448 25.1157 24.5138 24.8148 24.8146C24.514 25.1154 24.345 25.5234 24.345 25.9489V30.7705C24.345 30.8313 24.3209 30.8895 24.2779 30.9325C24.2349 30.9755 24.1766 30.9996 24.1158 30.9996H22.7817C22.7711 31 22.7606 31.0002 22.75 31.0002H9.91666C9.4104 31.0002 9 30.5898 9 30.0835V9.91666Z" fill="black"/>
<path d="M25.7873 25.7872C25.8303 25.7443 25.8886 25.7201 25.9494 25.7201H30.6152C30.6485 25.7204 30.6813 25.7279 30.7114 25.7422C30.7415 25.7564 30.7681 25.777 30.7894 25.8026C30.8122 25.8285 30.8283 25.8596 30.8363 25.8932C30.8443 25.9267 30.8439 25.9617 30.8352 25.9951C30.5741 27.1787 29.9755 28.2613 29.1119 29.1117C28.2589 29.972 27.1774 30.57 25.9952 30.835C25.9618 30.8437 25.9268 30.8441 25.8933 30.8361C25.8597 30.8281 25.8286 30.812 25.8027 30.7892C25.7771 30.7679 25.7565 30.7413 25.7423 30.7112C25.728 30.6811 25.7205 30.6483 25.7202 30.615V25.9493C25.7202 25.8885 25.7444 25.8302 25.7873 25.7872Z" fill="black"/>
<path d="M14.6094 24.6082L13.8604 27H12L15.5758 16H17.4242L21 27H19.1396L18.3785 24.6082H14.6094ZM17.9195 23.1257L16.494 18.6036L15.0685 23.1257H17.9195Z" fill="white"/>
<path d="M23.4497 17.6954L23.0336 19H22L23.9866 13H25.0134L27 19H25.9664L25.5436 17.6954H23.4497ZM25.2886 16.8867L24.4966 14.4202L23.7047 16.8867H25.2886Z" fill="white"/>
</g>
<defs>
<clipPath id="clip0_1076_3567">
<rect width="40" height="40.0004" fill="white" transform="translate(0 0.00195312)"/>
</clipPath>
</defs>
</svg>
