<svg width="40" height="40" viewBox="0 0 40 40" fill="none" xmlns="http://www.w3.org/2000/svg">
<g clip-path="url(#clip0_1076_3626)">
<path d="M36.9267 31.2978C36.9267 34.4182 34.4022 36.9427 31.2975 36.9427H8.70247C5.58212 36.9427 3.05762 34.4182 3.05762 31.2978V8.70255C3.05762 5.58218 5.58212 3.05765 8.70247 3.05765H31.2975C34.4022 3.05765 36.9267 5.58218 36.9267 8.70255M31.2975 0H8.70247C3.90435 0 0 3.90439 0 8.70255V31.2822C0 36.0803 3.90435 39.9847 8.70247 39.9847H31.2975C36.0956 39.9847 40 36.0803 40 31.2822V8.70255C40 3.90439 36.0956 0 31.2975 0Z" fill="black"/>
<path d="M14.3582 10.8496C14.6186 10.4421 14.513 9.89145 14.1224 9.61975C13.7317 9.34805 13.2039 9.45818 12.9435 9.86572L11.2433 12.5264C11.1893 12.6109 11.1496 12.7046 11.1259 12.8032L10.2505 16.1223V11.688C10.2505 11.1982 9.86986 10.8011 9.40037 10.8011C8.93088 10.8011 8.55028 11.1982 8.55028 11.688V17.896C8.55028 19.6698 7.05131 19.8262 6.44682 19.971C6.27652 20.0118 6.12457 20.0483 6 20.1132V26.7648L8.55028 25.8779C9.57039 25.5232 10.2505 25.7301 10.6755 25.8779C11.3556 26.2327 12.1641 26.4552 13.0142 26.4552C13.6943 26.4552 14.7144 26.1596 15.1395 26.0118C15.1395 26.0118 16.8396 25.5683 17.2647 24.6813L18.9355 21.7221C19.0022 21.5691 18.9489 21.3884 18.8022 21.291L18.7489 21.2632C17.7625 20.7208 16.8265 20.8892 16.0163 22.0002C15.8241 22.2639 15.351 23.2173 14.926 23.2167C14.0293 23.2166 13.6545 22.8023 13.349 22.4642C13.307 22.4177 13.2663 22.3727 13.2258 22.3304C12.5725 21.6488 12.5833 19.4532 13.2258 18.7829C13.8682 18.1127 14.1442 18.1127 14.1442 18.1127L16.1892 18.3025L17.6625 20.2239C17.9558 20.6064 18.4908 20.6684 18.8574 20.3624C19.224 20.0564 19.2834 19.4983 18.9902 19.1159L17.29 16.8987C17.1451 16.7097 16.9325 16.5908 16.7015 16.5693L14.3817 16.354L15.1395 14.9704L17.5228 13.3128C17.9134 13.0411 18.019 12.4905 17.7585 12.0829C17.4981 11.6754 16.9703 11.5652 16.5797 11.8369L14.0294 13.6107C13.9196 13.6871 13.8283 13.7891 13.7628 13.9086L11.9507 16.5657C11.2195 16.9166 11.5194 17.0204 11.5135 17.0319L11.7197 17.6389L12.7396 13.3824L14.3582 10.8496Z" fill="black"/>
<path d="M25.6418 31.0847C25.3814 31.5117 25.487 32.0885 25.8776 32.3732C26.2683 32.6578 26.7961 32.5424 27.0565 32.1155L28.7567 29.3281C28.8107 29.2395 28.8504 29.1414 28.8741 29.0381L29.7495 25.561V30.2064C29.7495 30.7196 30.1301 31.1355 30.5996 31.1355C31.0691 31.1355 31.4497 30.7196 31.4497 30.2064V23.7027C31.4497 21.8445 32.9487 21.6807 33.5532 21.529C33.7235 21.4862 33.8754 21.448 34 21.38V14.4116L31.4497 15.3408C30.4296 15.7124 29.7495 15.4956 29.3245 15.3408C28.6444 14.9691 27.8359 14.736 26.9858 14.736C26.3057 14.736 25.2856 15.0457 24.8605 15.2006C24.8605 15.2006 23.1604 15.6651 22.7353 16.5944L21.0645 19.6945C20.9978 19.8547 21.0511 20.0441 21.1978 20.1461L21.2511 20.1753C22.2375 20.7434 23.1735 20.567 23.9837 19.4031C24.1759 19.1269 24.649 18.1281 25.074 18.1287C25.9707 18.1288 26.3455 18.5628 26.651 18.917C26.693 18.9657 26.7337 19.0129 26.7742 19.0572C27.4275 19.7712 27.4167 22.0715 26.7742 22.7736C26.1318 23.4758 25.8558 23.4758 25.8558 23.4758L23.8108 23.2769L22.3375 21.264C22.0442 20.8633 21.5092 20.7984 21.1426 21.1189C20.776 21.4395 20.7166 22.0242 21.0098 22.4248L22.71 24.7476C22.8549 24.9455 23.0675 25.0702 23.2985 25.0927L25.6183 25.3183L24.8605 26.7677L22.4772 28.5042C22.0866 28.7889 21.981 29.3657 22.2415 29.7927C22.5019 30.2196 23.0297 30.335 23.4203 30.0504L25.9706 28.1922C26.0804 28.1121 26.1717 28.0053 26.2372 27.8801L28.0493 25.0964C28.7805 24.7288 28.4806 24.62 28.4865 24.6081L28.2803 23.9722L27.2604 28.4313L25.6418 31.0847Z" fill="black"/>
</g>
<defs>
<clipPath id="clip0_1076_3626">
<rect width="40" height="40.0004" fill="white"/>
</clipPath>
</defs>
</svg>
