<svg width="40" height="40" viewBox="0 0 40 40" fill="none" xmlns="http://www.w3.org/2000/svg">
<g clip-path="url(#clip0_1076_3675)">
<path d="M36.9267 31.2978C36.9267 34.4182 34.4022 36.9427 31.2975 36.9427H8.70247C5.58212 36.9427 3.05762 34.4182 3.05762 31.2978V8.70255C3.05762 5.58218 5.58212 3.05765 8.70247 3.05765H31.2975C34.4022 3.05765 36.9267 5.58218 36.9267 8.70255M31.2975 0H8.70247C3.90435 0 0 3.90439 0 8.70255V31.2822C0 36.0803 3.90435 39.9847 8.70247 39.9847H31.2975C36.0956 39.9847 40 36.0803 40 31.2822V8.70255C40 3.90439 36.0956 0 31.2975 0Z" fill="black"/>
<path d="M10.5845 9.91028C11.588 9.91028 12.4034 9.09491 12.4034 8.09137C12.4034 7.08784 11.5724 6.27246 10.5845 6.27246C9.59667 6.27246 8.76562 7.08784 8.76562 8.09137C8.76562 9.09491 9.58099 9.91028 10.5845 9.91028Z" fill="black"/>
<path d="M18.141 11.5249C17.8588 11.2583 17.4354 11.2583 17.1689 11.5249L15.5225 13.1713C15.3656 13.3438 15.0991 13.3438 14.9423 13.2184L13.1548 11.4622C12.7471 10.9134 12.0885 10.5527 11.3202 10.5527H9.29744C7.98031 10.5527 6.91406 11.572 6.91406 12.8107V17.1855H8.16847V12.8734L8.34095 12.7009L8.51344 12.8734V17.1855H13.5624V13.7672L14.0328 14.2219C14.3778 14.5355 14.8012 14.6923 15.2402 14.6923C15.6949 14.6923 16.1653 14.5198 16.5103 14.1592L18.1724 12.4971C18.439 12.2305 18.439 11.7915 18.1724 11.5249" fill="black"/>
<path d="M17.9564 20.1964L17.9878 21.9369C18.0191 23.4109 19.2579 24.6183 20.7475 24.6183H28.9638C30.4848 24.6183 31.7079 23.3795 31.7079 21.8585V20.1808M28.9638 26.0138H20.7475C18.5052 26.0138 16.6393 24.1949 16.5922 21.9526L16.5452 20.1808H14.397C14.005 20.1808 13.6914 19.8672 13.6914 19.4751C13.6914 19.0831 14.005 18.7695 14.397 18.7695H33.1034V21.8429C33.1034 24.1322 31.2375 25.9981 28.9482 25.9981" fill="black"/>
<path d="M32.4127 20.196C32.0207 20.196 31.7071 19.8824 31.7071 19.4904C31.7071 16.5739 29.3394 14.2061 26.4386 14.2061V19.365C26.4386 19.757 26.125 20.0706 25.7329 20.0706C25.3409 20.0706 25.0273 19.757 25.0273 19.365V12.7949H26.4072C30.092 12.7949 33.1026 15.8055 33.1026 19.4904C33.1026 19.8824 32.789 20.196 32.4127 20.196Z" fill="black"/>
<path d="M27.299 31.4862C27.1109 31.4862 26.9384 31.4234 26.7973 31.2823L21.3249 25.8099C21.0584 25.5433 21.0584 25.0886 21.3249 24.822C21.6072 24.5398 22.0462 24.5398 22.3284 24.822L27.8008 30.2945C28.0831 30.5767 28.0831 31.0157 27.8008 31.2823C27.6597 31.4234 27.4872 31.4862 27.3147 31.4862" fill="black"/>
<path d="M21.8267 31.4862C21.6385 31.4862 21.466 31.4234 21.3249 31.2823C21.0584 31.0001 21.0584 30.561 21.3249 30.2945L26.7973 24.822C27.0638 24.5398 27.5186 24.5398 27.8008 24.822C28.0674 25.0886 28.0674 25.5433 27.8008 25.8099L22.3284 31.2823C22.1873 31.4234 22.0148 31.4862 21.8424 31.4862" fill="black"/>
<path d="M28.8675 30.5137C28.3657 30.5137 27.958 30.9214 27.958 31.4232C27.958 31.9249 28.3657 32.3326 28.8675 32.3326C29.3692 32.3326 29.7769 31.9249 29.7769 31.4232C29.7769 30.9214 29.3692 30.5137 28.8675 30.5137ZM28.8675 33.7438C27.5974 33.7438 26.5625 32.7089 26.5625 31.4388C26.5625 30.1687 27.5974 29.1182 28.8675 29.1182C30.1376 29.1182 31.1725 30.1531 31.1725 31.4388C31.1725 32.7246 30.1376 33.7438 28.8675 33.7438Z" fill="black"/>
<path d="M20.2582 30.5137C19.7564 30.5137 19.3487 30.9214 19.3487 31.4232C19.3487 31.9249 19.7564 32.3326 20.2582 32.3326C20.7599 32.3326 21.1676 31.9249 21.1676 31.4232C21.1676 30.9214 20.7599 30.5137 20.2582 30.5137ZM20.2582 33.7438C18.9724 33.7438 17.9375 32.7089 17.9375 31.4388C17.9375 30.1687 18.9724 29.1182 20.2582 29.1182C21.5439 29.1182 22.5631 30.1531 22.5631 31.4388C22.5631 32.7246 21.5282 33.7438 20.2582 33.7438Z" fill="black"/>
</g>
<defs>
<clipPath id="clip0_1076_3675">
<rect width="40" height="40.0004" fill="white"/>
</clipPath>
</defs>
</svg>
