<svg width="40" height="41" viewBox="0 0 40 41" fill="none" xmlns="http://www.w3.org/2000/svg">
<g clip-path="url(#clip0_1076_3442)">
<path d="M36.9388 31.3063C36.9388 34.4146 34.4113 36.942 31.303 36.942H8.71272C5.6044 36.942 3.07692 34.4146 3.07692 31.3063V8.71646C3.07692 5.60819 5.6044 3.08077 8.71272 3.08077H31.303C34.4113 3.08077 36.9388 5.60819 36.9388 8.71646M31.303 0.00390625H8.71272C3.90895 0.00390625 0 3.91278 0 8.71646V31.3063C0 36.11 3.90895 40.0031 8.71272 40.0031H31.303C36.1068 40.0031 40.0157 36.0943 40.0157 31.3063V8.71646C40.0157 3.91278 36.1068 0.00390625 31.303 0.00390625Z" fill="black"/>
<path d="M32.7992 17.793H30.4538C30.205 17.793 29.9663 17.8918 29.7904 18.0678C29.6145 18.2437 29.5156 18.4823 29.5156 18.7311C29.5156 18.98 29.6145 19.2186 29.7904 19.3945C29.9663 19.5705 30.205 19.6693 30.4538 19.6693H32.7992C32.9236 19.6693 33.0429 19.6199 33.1309 19.5319C33.2189 19.4439 33.2683 19.3246 33.2683 19.2002V18.2621C33.2683 18.1376 33.2189 18.0183 33.1309 17.9304C33.0429 17.8424 32.9236 17.793 32.7992 17.793Z" fill="black"/>
<path d="M20.0347 17.1033C20.0347 17.9971 19.3135 18.7027 18.4354 18.7027C17.5573 18.7027 16.8203 17.9814 16.8203 17.1033C16.8203 16.2252 17.5416 15.5039 18.4354 15.5039C19.3291 15.5039 20.0347 16.2252 20.0347 17.1033Z" fill="black"/>
<path d="M27.1712 30.6044L25.3053 26.3394C25.2269 26.1512 25.1171 26.0101 25.0231 25.7435C24.7722 25.179 24.4899 24.9595 23.9568 24.9595H20.3974L20.2249 23.7051H23.2199C23.5805 23.7051 23.8784 23.4072 23.8784 23.0308C23.8784 22.6545 23.5805 22.3566 23.2199 22.3566H20.0525L19.7859 20.2397C19.6918 19.5341 19.0489 19.048 18.3433 19.1265C17.6534 19.2205 17.1516 19.8634 17.2457 20.5534L17.92 25.7592C17.9984 26.4021 18.5472 26.8568 19.1744 26.8725H19.2998H23.4551L25.3837 31.3571C25.6032 31.8432 26.1834 32.0784 26.6695 31.8588C27.1712 31.6393 27.3908 31.0591 27.1712 30.5731" fill="black"/>
<path d="M20.333 32.1566C17.8399 32.1566 15.8171 30.1495 15.8171 27.6563C15.8171 26.3862 16.3503 25.2416 17.197 24.4262L16.9461 22.9209C15.4722 23.9715 14.5 25.6963 14.5 27.6563C14.5 30.8708 17.1029 33.4737 20.333 33.4737C22.1205 33.4737 23.7199 32.6583 24.7862 31.3882L24.2374 29.8829C23.469 31.2314 21.9951 32.1566 20.333 32.1566Z" fill="black"/>
<path fill-rule="evenodd" clip-rule="evenodd" d="M23.9981 7H32.3306C32.8487 7 33.2687 7.42003 33.2687 7.93817V8.11656C33.2692 8.13113 33.2693 8.14572 33.2692 8.16031V16.3036C33.2607 16.4556 33.1928 16.5981 33.0802 16.7005C32.9676 16.8029 32.8192 16.8569 32.6672 16.8509C30.261 16.7078 27.9907 15.6875 26.2862 13.983C25.1168 12.8136 24.2694 11.3778 23.8064 9.81451H16.4732C16.0154 11.3872 15.1691 12.8328 13.9969 14.0105C12.2915 15.724 10.0154 16.7506 7.6021 16.8947C7.52317 16.8977 7.44446 16.8845 7.37079 16.856C7.29712 16.8275 7.23005 16.7843 7.17369 16.7289C7.11732 16.6736 7.07286 16.6073 7.04301 16.5342C7.01316 16.4611 6.99856 16.3826 7.00011 16.3036V8.89094C7.00004 8.88608 7 8.88121 7 8.87634V7.93817C7 7.42003 7.42003 7 7.93817 7L16.2712 7L23.9981 7Z" fill="black"/>
<path fill-rule="evenodd" clip-rule="evenodd" d="M30.711 20.6084H32.7579C32.8936 20.6084 33.0238 20.6623 33.1198 20.7583C33.2157 20.8542 33.2696 20.9844 33.2696 21.1201V25.214C33.2696 25.2213 33.2696 25.2286 33.2694 25.236V25.2989C33.2694 25.817 32.8494 26.2371 32.3312 26.2371H32.2731C32.2642 26.2373 32.2552 26.2374 32.2462 26.2374H28.1524C28.0166 26.2374 27.8865 26.1835 27.7905 26.0875C27.6945 25.9916 27.6406 25.8614 27.6406 25.7257C27.8556 21.1201 30.711 20.6084 30.711 20.6084Z" fill="black"/>
<path d="M7.47031 17.793H9.81574C10.0646 17.793 10.3032 17.8918 10.4791 18.0678C10.6551 18.2437 10.7539 18.4823 10.7539 18.7311C10.7539 18.98 10.6551 19.2186 10.4791 19.3945C10.3032 19.5705 10.0646 19.6693 9.81574 19.6693H7.47031C7.3459 19.6693 7.22659 19.6199 7.13862 19.5319C7.05065 19.4439 7.00123 19.3246 7.00123 19.2002V18.2621C7.00123 18.1376 7.05065 18.0183 7.13862 17.9304C7.22659 17.8424 7.3459 17.793 7.47031 17.793Z" fill="black"/>
<path fill-rule="evenodd" clip-rule="evenodd" d="M9.55853 20.6084H7.51162C7.3759 20.6084 7.24574 20.6623 7.14977 20.7583C7.0538 20.8542 6.99989 20.9844 6.99989 21.1201V25.214C6.99989 25.2213 6.99997 25.2286 7.00013 25.236V25.2989C7.00013 25.817 7.42016 26.2371 7.9383 26.2371H7.99639C8.00536 26.2373 8.01435 26.2374 8.02335 26.2374H12.1172C12.2529 26.2374 12.3831 26.1835 12.479 26.0875C12.575 25.9916 12.6289 25.8614 12.6289 25.7257C12.414 21.1201 9.55853 20.6084 9.55853 20.6084Z" fill="black"/>
</g>
<defs>
<clipPath id="clip0_1076_3442">
<rect width="40" height="40.0004" fill="white" transform="translate(0 0.00390625)"/>
</clipPath>
</defs>
</svg>
