<svg width="40" height="41" viewBox="0 0 40 41" fill="none" xmlns="http://www.w3.org/2000/svg">
<g clip-path="url(#clip0_1076_3575)">
<path d="M36.9388 31.3043C36.9388 34.4126 34.4113 36.94 31.303 36.94H8.71272C5.6044 36.94 3.07692 34.4126 3.07692 31.3043V8.7145C3.07692 5.60624 5.6044 3.07882 8.71272 3.07882H31.303C34.4113 3.07882 36.9388 5.60624 36.9388 8.7145M31.303 0.00195312H8.71272C3.90895 0.00195312 0 3.91083 0 8.7145V31.3043C0 36.108 3.90895 40.0012 8.71272 40.0012H31.303C36.1068 40.0012 40.0157 36.0923 40.0157 31.3043V8.7145C40.0157 3.91083 36.1068 0.00195312 31.303 0.00195312Z" fill="black"/>
<path d="M9.98786 9C9.43905 9 9 9.43905 9 9.98786C9 10.5367 9.45473 10.9757 9.98786 10.9757C10.521 10.9757 10.9757 10.5367 10.9757 9.98786C10.9757 9.43905 10.521 9 9.98786 9Z" fill="black"/>
<path d="M9.98786 16.3066C9.43905 16.3066 9 16.7457 9 17.2945C9 17.8433 9.45473 18.2824 9.98786 18.2824C10.521 18.2824 10.9757 17.8433 10.9757 17.2945C10.9757 16.7457 10.521 16.3066 9.98786 16.3066Z" fill="black"/>
<path d="M13.2183 12.6533C12.6695 12.6533 12.2305 13.0924 12.2305 13.6412C12.2305 14.19 12.6852 14.629 13.2183 14.629C13.7515 14.629 14.2062 14.19 14.2062 13.6412C14.2062 13.0924 13.7671 12.6533 13.2183 12.6533Z" fill="black"/>
<path d="M13.2183 16.3066C12.6695 16.3066 12.2305 16.7457 12.2305 17.2945C12.2305 17.8433 12.6852 18.2824 13.2183 18.2824C13.7515 18.2824 14.2062 17.8433 14.2062 17.2945C14.2062 16.7457 13.7671 16.3066 13.2183 16.3066Z" fill="black"/>
<path d="M19.6636 9C19.1148 9 18.6758 9.43905 18.6758 9.98786C18.6758 10.5367 19.1305 10.9757 19.6636 10.9757C20.1968 10.9757 20.6515 10.5367 20.6515 9.98786C20.6515 9.43905 20.1968 9 19.6636 9Z" fill="black"/>
<path d="M19.6636 12.6533C19.1148 12.6533 18.6758 13.0924 18.6758 13.6412C18.6758 14.19 19.1305 14.629 19.6636 14.629C20.1968 14.629 20.6515 14.19 20.6515 13.6412C20.6515 13.0924 20.1968 12.6533 19.6636 12.6533Z" fill="black"/>
<path d="M26.1207 9C25.5719 9 25.1328 9.43905 25.1328 9.98786C25.1328 10.5367 25.5875 10.9757 26.1207 10.9757C26.6538 10.9757 27.1085 10.5367 27.1085 9.98786C27.1085 9.43905 26.6695 9 26.1207 9Z" fill="black"/>
<path d="M29.3394 9C28.7906 9 28.3516 9.43905 28.3516 9.98786C28.3516 10.5367 28.8063 10.9757 29.3394 10.9757C29.8725 10.9757 30.3273 10.5367 30.3273 9.98786C30.3273 9.43905 29.8882 9 29.3394 9Z" fill="black"/>
<path d="M29.3394 12.6533C28.7906 12.6533 28.3516 13.0924 28.3516 13.6412C28.3516 14.19 28.8063 14.629 29.3394 14.629C29.8725 14.629 30.3273 14.19 30.3273 13.6412C30.3273 13.0924 29.8882 12.6533 29.3394 12.6533Z" fill="black"/>
<path d="M18.4354 37.1703H29.7597C30.0333 36.7362 30.1999 36.2269 30.1999 35.6721V20.6975C30.1999 20.0703 29.6981 19.5528 29.0553 19.5528C28.4124 19.5528 27.9106 20.0703 27.9106 20.6975V26.4364C27.9106 26.6716 27.7224 26.8755 27.4872 26.8755C27.252 26.8755 27.0639 26.6716 27.0639 26.4364V18.6277C27.0639 18.0005 26.5464 17.483 25.9192 17.483C25.292 17.483 24.7745 18.0005 24.7745 18.6277V26.4208C24.7745 26.656 24.5864 26.8598 24.3512 26.8598C24.116 26.8598 23.9278 26.6716 23.9278 26.4208V17.0753C23.9278 16.4481 23.4104 15.9307 22.7831 15.9307C22.1559 15.9307 21.6385 16.4481 21.6385 17.0753V26.4051C21.6385 26.6403 21.4503 26.8441 21.2151 26.8441C20.9799 26.8441 20.7918 26.656 20.7918 26.4051V18.8472C20.7918 18.22 20.2743 17.7025 19.6471 17.7025C19.0199 17.7025 18.5024 18.22 18.5024 18.8472V30.6231L18.2829 30.8426L17.985 30.7642L16.3072 27.8633C15.68 26.7814 14.2531 26.4208 13.0927 27.0323L13.03 27.0637C12.8575 27.1734 12.7948 27.3773 12.8732 27.5497C12.8888 27.581 18.0814 36.5825 18.4354 37.1703Z" fill="black"/>
</g>
<defs>
<clipPath id="clip0_1076_3575">
<rect width="40" height="40.0004" fill="white" transform="translate(0 0.00195312)"/>
</clipPath>
</defs>
</svg>
