<svg width="40" height="41" viewBox="0 0 40 41" fill="none" xmlns="http://www.w3.org/2000/svg">
<g clip-path="url(#clip0_1076_3600)">
<path d="M36.9388 31.3053C36.9388 34.4136 34.4113 36.941 31.303 36.941H8.71272C5.6044 36.941 3.07692 34.4136 3.07692 31.3053V8.71548C3.07692 5.60722 5.6044 3.07979 8.71272 3.07979H31.303C34.4113 3.07979 36.9388 5.60722 36.9388 8.71548M31.303 0.00292969H8.71272C3.90895 0.00292969 0 3.9118 0 8.71548V31.3053C0 36.109 3.90895 40.0022 8.71272 40.0022H31.303C36.1068 40.0022 40.0157 36.0933 40.0157 31.3053V8.71548C40.0157 3.9118 36.1068 0.00292969 31.303 0.00292969Z" fill="black"/>
<path d="M12 18.5C15.0376 18.5 17.5 16.0376 17.5 13C17.5 9.96244 15.0376 7.5 12 7.5C8.96244 7.5 6.5 9.96244 6.5 13C6.5 16.0376 8.96244 18.5 12 18.5Z" fill="black"/>
<path d="M12 15.9043V13.4043" stroke="white" stroke-width="1.83333" stroke-linecap="round" stroke-linejoin="round"/>
<circle cx="11.9987" cy="10.3649" r="0.458333" fill="black" stroke="white" stroke-width="0.916667"/>
<path d="M29.1699 21.8174L23.8711 29.5247" stroke="black" stroke-width="1.5"/>
<path d="M31.3354 23L27 29.2622" stroke="black" stroke-width="1.5"/>
<path d="M29.6118 17L18.0508 33.3781" stroke="black" stroke-width="1.5" stroke-linecap="round"/>
<path d="M23.8733 19.5361C20.6934 19.485 17.4047 21.6014 15.3371 23.7689C15.1201 23.9984 15 24.2963 15 24.6051C15 24.914 15.1201 25.2119 15.3371 25.4414C17.3597 27.563 20.639 29.7283 23.8733 29.6765C27.1076 29.7283 30.3876 27.563 32.4118 25.4414C32.6288 25.2119 32.7489 24.914 32.7489 24.6051C32.7489 24.2963 32.6288 23.9984 32.4118 23.7689C30.3418 21.6014 27.0531 19.485 23.8733 19.5361Z" stroke="black" stroke-width="1.5" stroke-linecap="round" stroke-linejoin="round"/>
<path d="M25.9888 22.0061C25.5226 21.779 24.997 21.6514 24.4411 21.6514C22.5169 21.6514 20.957 23.1808 20.957 25.0674C20.957 26.0307 21.3637 26.9008 22.0178 27.5218L25.9888 22.0061Z" fill="black"/>
</g>
<defs>
<clipPath id="clip0_1076_3600">
<rect width="40" height="40.0004" fill="white" transform="translate(0 0.00292969)"/>
</clipPath>
</defs>
</svg>
