<svg width="40" height="41" viewBox="0 0 40 41" fill="none" xmlns="http://www.w3.org/2000/svg">
<g clip-path="url(#clip0_1076_3590)">
<path d="M36.9388 31.3043C36.9388 34.4126 34.4113 36.94 31.303 36.94H8.71272C5.6044 36.94 3.07692 34.4126 3.07692 31.3043V8.7145C3.07692 5.60624 5.6044 3.07882 8.71272 3.07882H31.303C34.4113 3.07882 36.9388 5.60624 36.9388 8.7145M31.303 0.00195312H8.71272C3.90895 0.00195312 0 3.91083 0 8.7145V31.3043C0 36.108 3.90895 40.0012 8.71272 40.0012H31.303C36.1068 40.0012 40.0157 36.0923 40.0157 31.3043V8.7145C40.0157 3.91083 36.1068 0.00195312 31.303 0.00195312Z" fill="black"/>
<path fill-rule="evenodd" clip-rule="evenodd" d="M18.9343 17.4656C19.1042 17.2148 19.3885 17.0645 19.6926 17.0645H25.6524C25.9273 17.0645 26.1876 17.1874 26.3612 17.3992L29.0667 20.7001H32.0863C32.5913 20.7001 33.0006 21.107 33.0006 21.609C33.0006 22.111 32.5913 22.5179 32.0863 22.5179H28.6323C28.3575 22.5179 28.0972 22.395 27.9236 22.1831L26.7399 20.739L25.3588 24.858L29.2554 33.0361C29.4716 33.4898 29.2769 34.0318 28.8205 34.2466C28.3642 34.4615 27.819 34.268 27.6029 33.8143L23.553 25.1915L22.7114 24.7206L22.0197 29.4655C21.9545 29.9124 21.5692 30.244 21.1149 30.244H15.6291C15.1242 30.244 14.7148 29.8371 14.7148 29.3351C14.7148 28.8331 15.1242 28.4262 15.6291 28.4262H20.3235L21.1184 22.9743L21.1149 22.9724L21.1208 22.9577L21.1243 22.9334L21.1317 22.9304L22.7606 18.8823H20.1792L18.2161 21.7801C17.934 22.1965 17.3658 22.3067 16.947 22.0263C16.5282 21.7459 16.4173 21.181 16.6994 20.7647L18.9343 17.4656Z" fill="black"/>
<path d="M27.5868 14.3657C27.5868 15.4011 26.7585 16.2294 25.7231 16.2294C24.6877 16.2294 23.8594 15.3851 23.8594 14.3657C23.8594 13.3462 24.7036 12.502 25.7231 12.502C26.7425 12.502 27.5868 13.3462 27.5868 14.3657Z" fill="black"/>
<path d="M13.1865 7C13.0395 7 12.8925 7.05143 12.7822 7.18L9.86661 9.14714H7.56352C7.41652 9.14714 7.28176 9.19857 7.17151 9.32714C7.049 9.44286 7 9.58429 7 9.73857V13.2743C7 13.4286 7.06125 13.57 7.17151 13.6857C7.28176 13.8014 7.41652 13.8529 7.56352 13.8529H9.86661L12.7822 15.82C12.8925 15.9357 13.0272 16 13.1865 16C13.3457 16 13.4682 15.9486 13.5785 15.82C13.701 15.7043 13.75 15.5629 13.75 15.4086V7.60429C13.75 7.45 13.701 7.30857 13.5785 7.19286C13.4682 7.07714 13.3457 7.01286 13.1865 7.01286" fill="black"/>
<path d="M16.7371 12.8421C16.9957 12.4342 17.125 11.9868 17.125 11.5132C17.125 11.0395 16.9957 10.5921 16.7371 10.1711C16.4784 9.76316 16.1293 9.46053 15.6897 9.30263L15.4698 9.25C15.3147 9.25 15.1724 9.31579 15.0431 9.42105C14.9397 9.53947 14.875 9.68421 14.875 9.85526C14.875 9.98684 14.9138 10.1053 14.9784 10.1842L15.25 10.4211L15.5603 10.6316C15.6638 10.7105 15.7543 10.8158 15.8319 10.9605C15.9095 11.1053 15.9483 11.2895 15.9483 11.5C15.9483 11.7105 15.9095 11.8947 15.8319 12.0395C15.7672 12.1842 15.6767 12.3026 15.5603 12.3684L15.25 12.5789L14.9784 12.8158C14.9138 12.9079 14.875 13.0132 14.875 13.1579C14.875 13.3289 14.9397 13.4737 15.0431 13.5789C15.1595 13.6974 15.3017 13.75 15.4698 13.75L15.6897 13.6974C16.1293 13.5263 16.4784 13.2237 16.7371 12.8158" fill="black"/>
<path d="M16.7644 7.05286L16.5409 7C16.3998 7 16.2705 7.06608 16.1646 7.18502C16.0588 7.30397 16 7.44934 16 7.60793C16 7.85903 16.1058 8.04405 16.3293 8.163C16.6468 8.34802 16.8584 8.48018 16.976 8.57269C17.3876 8.9163 17.7169 9.33921 17.9403 9.85462C18.1755 10.37 18.2931 10.9119 18.2931 11.4934C18.2931 12.0749 18.1755 12.6167 17.9403 13.1322C17.7169 13.6476 17.3876 14.0705 16.976 14.4141C16.8584 14.5066 16.6468 14.652 16.3293 14.837C16.1176 14.9692 16 15.1542 16 15.3921C16 15.5507 16.047 15.696 16.1646 15.815C16.2705 15.9339 16.3998 16 16.5527 16L16.7644 15.9471C17.5523 15.5771 18.1755 14.9824 18.6577 14.163C19.128 13.3436 19.375 12.4581 19.375 11.4934C19.375 10.5286 19.128 9.64317 18.6577 8.82379C18.1755 8.00441 17.5523 7.40969 16.7644 7.03965" fill="black"/>
</g>
<defs>
<clipPath id="clip0_1076_3590">
<rect width="40" height="40.0004" fill="white" transform="translate(0 0.00195312)"/>
</clipPath>
</defs>
</svg>
