<svg width="40" height="40" viewBox="0 0 40 40" fill="none" xmlns="http://www.w3.org/2000/svg">
<g clip-path="url(#clip0_1076_3688)">
<path d="M36.9267 31.2978C36.9267 34.4182 34.4022 36.9427 31.2975 36.9427H8.70247C5.58212 36.9427 3.05762 34.4182 3.05762 31.2978V8.70255C3.05762 5.58218 5.58212 3.05765 8.70247 3.05765H31.2975C34.4022 3.05765 36.9267 5.58218 36.9267 8.70255M31.2975 0H8.70247C3.90435 0 0 3.90439 0 8.70255V31.2822C0 36.0803 3.90435 39.9847 8.70247 39.9847H31.2975C36.0956 39.9847 40 36.0803 40 31.2822V8.70255C40 3.90439 36.0956 0 31.2975 0Z" fill="black"/>
<path d="M20 14.9706C22.2059 14.9706 23.9706 13.2059 24 11C24 8.73529 22.2353 7 19.9706 7C17.7353 7 16 8.73529 16 11C16 13.2353 17.7647 15 19.9706 15L20 14.9706Z" fill="black"/>
<path d="M29.8521 24.2803C29.3738 22.2056 28.1303 20.5335 26.9824 18.7686C26.1853 17.5609 25.0056 16.9726 23.4751 17.0036C21.4344 17.0036 19.3938 17.0655 17.385 17.0036C15.5994 16.9417 14.2284 17.6848 13.3037 19.1092C11.9964 21.1528 10.8486 23.2894 10.2109 25.6117C9.54127 27.9341 10.4978 30.1945 12.6341 31.464C14.1965 32.393 15.8864 32.8574 17.672 32.9813C18.8836 33.0742 19.9677 32.8265 20.9243 32.1143C21.5939 31.6189 21.7214 30.9686 21.5301 30.2255C21.3707 29.5442 20.7967 29.1727 20.1271 29.0798C19.5532 29.0178 18.9155 29.0178 18.3097 29.0178C16.9705 29.0178 15.6313 28.7392 14.4197 28.1508L13.8776 27.7793C14.3878 27.5625 14.8342 27.5315 15.3125 27.4696C15.7589 27.4077 16.1734 27.3148 16.5879 27.1909C17.098 27.0051 17.2894 26.7574 17.0343 26.1691C16.7473 25.5188 16.5241 24.8067 16.4603 24.1254C16.4603 23.8158 16.7792 23.3513 17.098 23.1655C17.5444 22.8868 18.0227 23.1036 18.3416 23.4752C18.5648 23.7229 18.7242 24.0325 18.9155 24.3112C19.9358 26.0452 21.2112 27.4386 23.6026 27.3148C23.2519 27.6864 22.9968 27.9341 22.7736 28.1818C22.3272 28.7082 22.0721 29.2656 22.4229 29.9158C22.7417 30.597 23.3794 30.7828 24.1128 30.8447C26.5679 30.9996 29.6608 27.8412 29.9159 26.0452C30.0115 25.4569 30.0434 24.8376 29.9159 24.2493L29.8521 24.2803ZM23.3475 26.6336C21.562 26.6336 20.159 25.2402 20.159 23.5371C20.159 21.8341 21.6257 20.4097 23.4432 20.4406C25.2288 20.4406 26.5679 21.8341 26.5361 23.599C26.5361 25.3331 25.165 26.6645 23.3475 26.6336Z" fill="black"/>
</g>
<defs>
<clipPath id="clip0_1076_3688">
<rect width="40" height="40.0004" fill="white"/>
</clipPath>
</defs>
</svg>
