<svg width="40" height="40" viewBox="0 0 40 40" fill="none" xmlns="http://www.w3.org/2000/svg">
<g clip-path="url(#clip0_1076_3705)">
<path d="M36.9267 31.2978C36.9267 34.4182 34.4022 36.9427 31.2975 36.9427H8.70247C5.58212 36.9427 3.05762 34.4182 3.05762 31.2978V8.70255C3.05762 5.58218 5.58212 3.05765 8.70247 3.05765H31.2975C34.4022 3.05765 36.9267 5.58218 36.9267 8.70255M31.2975 0H8.70247C3.90435 0 0 3.90439 0 8.70255V31.2822C0 36.0803 3.90435 39.9847 8.70247 39.9847H31.2975C36.0956 39.9847 40 36.0803 40 31.2822V8.70255C40 3.90439 36.0956 0 31.2975 0Z" fill="black"/>
<path d="M12 18.501C15.0376 18.501 17.5 16.0385 17.5 13.001C17.5 9.96342 15.0376 7.50098 12 7.50098C8.96244 7.50098 6.5 9.96342 6.5 13.001C6.5 16.0385 8.96244 18.501 12 18.501Z" fill="black"/>
<path d="M12 15.9053V13.4053" stroke="white" stroke-width="1.83333" stroke-linecap="round" stroke-linejoin="round"/>
<circle cx="11.9987" cy="10.3659" r="0.458333" fill="black" stroke="white" stroke-width="0.916667"/>
<path d="M23.9125 14.2209C23.9125 15.0899 23.1925 15.81 22.3234 15.81C21.4544 15.81 20.7344 15.0899 20.7344 14.2209C20.7344 13.3519 21.4544 12.6318 22.3234 12.6318C23.1925 12.6318 23.9125 13.3519 23.9125 14.2209Z" fill="black"/>
<path d="M26.8672 23.3678L25.1292 18.0047C25.0547 17.7564 25.005 17.6571 24.9306 17.4584C24.7319 16.8129 24.4091 16.4404 23.8132 16.4404H21.0572C20.5358 16.4404 20.1137 16.788 19.9647 17.2598L19.8654 17.5577L18.0281 23.3678C17.9287 23.6657 18.1025 23.9885 18.4005 24.063C18.6984 24.1375 19.0212 23.9885 19.0957 23.6905L20.6599 18.6006V22.4243L20.5358 23.1195L19.195 32.1076C19.1205 32.6042 19.4681 33.0511 19.9399 33.1256C20.4365 33.2001 20.8834 32.8525 20.9579 32.3559L22.0504 24.9072V24.8575L22.3732 24.5596L22.7208 24.9072L23.7636 32.3559C23.8381 32.8525 24.285 33.1753 24.7816 33.1256C25.2782 33.0511 25.6009 32.6042 25.5265 32.1076L24.1608 22.7222V18.7247L25.7251 23.6905C25.8244 23.9885 26.1472 24.1375 26.4451 24.0381C26.7431 23.9388 26.8921 23.6409 26.8176 23.3429" fill="black"/>
<path d="M31.8272 19.104C31.8272 19.7436 31.2973 20.2735 30.6577 20.2735C30.0182 20.2735 29.4883 19.7436 29.4883 19.104C29.4883 18.4645 30.0182 17.9346 30.6577 17.9346C31.2973 17.9346 31.8272 18.4645 31.8272 19.104Z" fill="black"/>
<path d="M33.9984 25.9477L32.7193 22.0008C32.6645 21.8181 32.6279 21.745 32.5731 21.5988C32.4269 21.1237 32.1894 20.8496 31.7508 20.8496H29.7226C29.3388 20.8496 29.0282 21.1054 28.9186 21.4526L28.8455 21.6719L27.4933 25.9477C27.4202 26.167 27.5481 26.4045 27.7674 26.4593C27.9867 26.5141 28.2242 26.4045 28.279 26.1852L29.4302 22.4393V25.2533L29.3388 25.765L28.3521 32.3797C28.2973 32.7451 28.5531 33.074 28.9003 33.1288C29.2658 33.1837 29.5947 32.9278 29.6495 32.5624L30.4535 27.0806V27.044L30.691 26.8248L30.9468 27.0806L31.7143 32.5624C31.7691 32.9278 32.098 33.1654 32.4635 33.1288C32.8289 33.074 33.0665 32.7451 33.0116 32.3797L32.0067 25.4726V22.5307L33.1578 26.1852C33.2309 26.4045 33.4685 26.5141 33.6877 26.441C33.907 26.368 34.0166 26.1487 33.9618 25.9294" fill="black"/>
</g>
<defs>
<clipPath id="clip0_1076_3705">
<rect width="40" height="40.0004" fill="white" transform="translate(0 0.000976562)"/>
</clipPath>
</defs>
</svg>
