<svg width="40" height="40" viewBox="0 0 40 40" fill="none" xmlns="http://www.w3.org/2000/svg">
<g clip-path="url(#clip0_1076_3651)">
<path d="M36.9267 31.2988C36.9267 34.4192 34.4022 36.9437 31.2975 36.9437H8.70247C5.58212 36.9437 3.05762 34.4192 3.05762 31.2988V8.70353C3.05762 5.58316 5.58212 3.05863 8.70247 3.05863H31.2975C34.4022 3.05863 36.9267 5.58316 36.9267 8.70353M31.2975 0.000976562H8.70247C3.90435 0.000976562 0 3.90537 0 8.70353V31.2831C0 36.0813 3.90435 39.9857 8.70247 39.9857H31.2975C36.0956 39.9857 40 36.0813 40 31.2831V8.70353C40 3.90537 36.0956 0.000976562 31.2975 0.000976562Z" fill="black"/>
<path d="M12 18.5C15.0376 18.5 17.5 16.0376 17.5 13C17.5 9.96244 15.0376 7.5 12 7.5C8.96244 7.5 6.5 9.96244 6.5 13C6.5 16.0376 8.96244 18.5 12 18.5Z" fill="black"/>
<path d="M12 15.9043V13.4043" stroke="white" stroke-width="1.83333" stroke-linecap="round" stroke-linejoin="round"/>
<circle cx="11.9987" cy="10.3649" r="0.458333" fill="black" stroke="white" stroke-width="0.916667"/>
<path d="M33.6373 14.45C33.8858 14.1186 33.8187 13.6485 33.4873 13.4C33.1559 13.1515 32.6858 13.2186 32.4373 13.55L33.6373 14.45ZM32.4373 13.55L29.7477 17.1362L30.9477 18.0362L33.6373 14.45L32.4373 13.55Z" fill="black"/>
<path d="M25.001 24.5L19.7344 32.1385" stroke="black" stroke-width="1.5" stroke-linecap="round"/>
<path d="M21.5899 20.3658C21.6397 19.3939 21.9826 18.4599 22.5736 17.6867C23.1645 16.9134 23.9757 16.3373 24.9004 16.034C25.5991 15.7654 26.349 15.6568 27.0952 15.7161C27.8414 15.7754 28.5648 16.0012 29.2122 16.3769C29.8596 16.7525 30.4147 17.2684 30.8365 17.8868C31.2583 18.5051 31.5363 19.2101 31.6499 19.9499C31.7836 20.8029 31.7284 21.6749 31.488 22.5041C31.2476 23.3334 30.828 24.0998 30.2588 24.749C29.8668 25.0998 29.5799 25.5526 29.4302 26.0569C29.2805 26.5611 29.2737 27.0971 29.4108 27.605C29.5552 28.1862 29.6348 28.7817 29.6482 29.3805C29.6029 30.2038 29.2544 30.9812 28.6697 31.5626C28.0851 32.1441 27.3058 32.4884 26.4823 32.5292C25.6588 32.5699 24.8493 32.3043 24.2101 31.7834" stroke="black" stroke-width="1.5" stroke-linecap="round" stroke-linejoin="round"/>
<path d="M24.5712 21.3806C24.5562 20.8401 24.7566 20.3158 25.1282 19.923C25.3122 19.7285 25.5327 19.5722 25.7771 19.4629C26.0216 19.3537 26.2851 19.2936 26.5528 19.2862C26.8204 19.2788 27.0869 19.3242 27.337 19.4198C27.5871 19.5153 27.8159 19.6592 28.0104 19.8433C28.2049 20.0273 28.3612 20.2478 28.4704 20.4922C28.5797 20.7366 28.6398 21.0002 28.6472 21.2678" stroke="black" stroke-width="1.5" stroke-linecap="round" stroke-linejoin="round"/>
</g>
<defs>
<clipPath id="clip0_1076_3651">
<rect width="40" height="40.0004" fill="white" transform="translate(0 0.000976562)"/>
</clipPath>
</defs>
</svg>
