<svg width="40" height="40" viewBox="0 0 40 40" fill="none" xmlns="http://www.w3.org/2000/svg">
<g clip-path="url(#clip0_1076_3641)">
<path d="M36.9267 31.2988C36.9267 34.4192 34.4022 36.9437 31.2975 36.9437H8.70247C5.58212 36.9437 3.05762 34.4192 3.05762 31.2988V8.70353C3.05762 5.58316 5.58212 3.05863 8.70247 3.05863H31.2975C34.4022 3.05863 36.9267 5.58316 36.9267 8.70353M31.2975 0.000976562H8.70247C3.90435 0.000976562 0 3.90537 0 8.70353V31.2831C0 36.0813 3.90435 39.9857 8.70247 39.9857H31.2975C36.0956 39.9857 40 36.0813 40 31.2831V8.70353C40 3.90537 36.0956 0.000976562 31.2975 0.000976562Z" fill="black"/>
<path d="M22.5899 20.3658C22.6397 19.3939 22.9826 18.4599 23.5736 17.6867C24.1645 16.9134 24.9757 16.3373 25.9004 16.034C26.5991 15.7654 27.349 15.6568 28.0952 15.7161C28.8414 15.7754 29.5648 16.0012 30.2122 16.3769C30.8596 16.7525 31.4147 17.2684 31.8365 17.8868C32.2583 18.5051 32.5363 19.2101 32.6499 19.9499C32.7836 20.8029 32.7284 21.6749 32.488 22.5041C32.2476 23.3334 31.828 24.0998 31.2588 24.749C30.8668 25.0998 30.5799 25.5526 30.4302 26.0569C30.2805 26.5611 30.2737 27.0971 30.4108 27.605C30.5552 28.1862 30.6348 28.7817 30.6482 29.3805C30.6029 30.2038 30.2544 30.9812 29.6697 31.5626C29.0851 32.1441 28.3058 32.4884 27.4823 32.5292C26.6588 32.5699 25.8493 32.3043 25.2101 31.7834" stroke="black" stroke-width="1.5" stroke-linecap="round" stroke-linejoin="round"/>
<path d="M25.5712 21.3806C25.5562 20.8401 25.7566 20.3158 26.1282 19.923C26.3122 19.7285 26.5327 19.5722 26.7771 19.4629C27.0216 19.3537 27.2851 19.2936 27.5528 19.2862C27.8204 19.2788 28.0869 19.3242 28.337 19.4198C28.5871 19.5153 28.8159 19.6592 29.0104 19.8433C29.2049 20.0273 29.3612 20.2478 29.4704 20.4922C29.5797 20.7366 29.6398 21.0002 29.6472 21.2678" stroke="black" stroke-width="1.5" stroke-linecap="round" stroke-linejoin="round"/>
<mask id="path-4-inside-1_1076_3641" fill="white">
<path d="M20.587 15.7147V10.6545C20.587 10.1037 20.1395 9.65622 19.5887 9.65622C19.0379 9.65622 18.5904 10.1037 18.5904 10.6545V12.2035H8.59033V8.03832C8.59033 7.48754 8.14282 7.04004 7.59204 7.04004C7.04126 7.04004 6.59375 7.48754 6.59375 8.03832V15.7319H8.59033V14.2173H18.5904V15.7319"/>
</mask>
<path d="M20.587 15.7147V10.6545C20.587 10.1037 20.1395 9.65622 19.5887 9.65622C19.0379 9.65622 18.5904 10.1037 18.5904 10.6545V12.2035H8.59033V8.03832C8.59033 7.48754 8.14282 7.04004 7.59204 7.04004C7.04126 7.04004 6.59375 7.48754 6.59375 8.03832V15.7319H8.59033V14.2173H18.5904V15.7319" fill="black"/>
<path d="M18.5904 12.2035V13.9247H20.3116V12.2035H18.5904ZM8.59033 12.2035H6.86915V13.9247H8.59033V12.2035ZM6.59375 15.7319H4.87257V17.4531H6.59375V15.7319ZM8.59033 15.7319V17.4531H10.3115V15.7319H8.59033ZM8.59033 14.2173V12.4961H6.86915V14.2173H8.59033ZM18.5904 14.2173H20.3116V12.4961H18.5904V14.2173ZM22.3082 15.7147V10.6545H18.8658V15.7147H22.3082ZM22.3082 10.6545C22.3082 9.15312 21.09 7.93504 19.5887 7.93504V11.3774C19.1889 11.3774 18.8658 11.0543 18.8658 10.6545H22.3082ZM19.5887 7.93504C18.0874 7.93504 16.8692 9.15313 16.8692 10.6545H20.3116C20.3116 11.0543 19.9885 11.3774 19.5887 11.3774V7.93504ZM16.8692 10.6545V12.2035H20.3116V10.6545H16.8692ZM18.5904 10.4824H8.59033V13.9247H18.5904V10.4824ZM10.3115 12.2035V8.03832H6.86915V12.2035H10.3115ZM10.3115 8.03832C10.3115 6.53695 9.09338 5.31886 7.59204 5.31886V8.76122C7.19225 8.76122 6.86915 8.43814 6.86915 8.03832H10.3115ZM7.59204 5.31886C6.09069 5.31886 4.87257 6.53695 4.87257 8.03832H8.31493C8.31493 8.43814 7.99182 8.76122 7.59204 8.76122V5.31886ZM4.87257 8.03832V15.7319H8.31493V8.03832H4.87257ZM6.59375 17.4531H8.59033V14.0108H6.59375V17.4531ZM10.3115 15.7319V14.2173H6.86915V15.7319H10.3115ZM8.59033 15.9385H18.5904V12.4961H8.59033V15.9385ZM16.8692 14.2173V15.7319H20.3116V14.2173H16.8692Z" fill="black" mask="url(#path-4-inside-1_1076_3641)"/>
<path d="M10.9308 10.4476C10.9308 10.7438 10.6996 10.964 10.4316 10.964C10.1565 10.964 9.91528 10.7194 9.91528 10.4476C9.91528 10.1967 10.1528 9.94848 10.4316 9.94848C10.7036 9.94848 10.9308 10.1727 10.9308 10.4476Z" fill="black" stroke="black" stroke-width="1.72118"/>
<path d="M13.0637 10.964V9.94848H15.525C16.2538 9.94848 16.8829 10.3598 17.1939 10.964H13.0637Z" fill="black" stroke="black" stroke-width="1.72118"/>
</g>
<defs>
<clipPath id="clip0_1076_3641">
<rect width="40" height="40.0004" fill="white" transform="translate(0 0.000976562)"/>
</clipPath>
</defs>
</svg>
