<svg width="40" height="40" viewBox="0 0 40 40" fill="none" xmlns="http://www.w3.org/2000/svg">
<g clip-path="url(#clip0_1076_3357)">
<path d="M36.9267 31.2988C36.9267 34.4192 34.4022 36.9437 31.2975 36.9437H8.70247C5.58212 36.9437 3.05762 34.4192 3.05762 31.2988V8.70353C3.05762 5.58316 5.58212 3.05863 8.70247 3.05863H31.2975C34.4022 3.05863 36.9267 5.58316 36.9267 8.70353M31.2975 0.000976562H8.70247C3.90435 0.000976562 0 3.90537 0 8.70353V31.2831C0 36.0813 3.90435 39.9857 8.70247 39.9857H31.2975C36.0956 39.9857 40 36.0813 40 31.2831V8.70353C40 3.90537 36.0956 0.000976562 31.2975 0.000976562Z" fill="black"/>
<path d="M15.7902 9.23694C15.7902 10.2562 14.9749 11.0715 13.9557 11.0715C12.9365 11.0715 12.1211 10.2405 12.1211 9.23694C12.1211 8.2334 12.9521 7.40234 13.9557 7.40234C14.9592 7.40234 15.7902 8.2334 15.7902 9.23694Z" fill="black"/>
<path d="M24.6187 11.0867C24.6187 11.9805 23.8974 12.6861 23.0194 12.6861C22.1413 12.6861 21.4043 11.9648 21.4043 11.0867C21.4043 10.2086 22.1256 9.4873 23.0194 9.4873C23.9131 9.4873 24.6187 10.2086 24.6187 11.0867Z" fill="black"/>
<path d="M33.7595 26.3438L7.18164 32.1298H33.7595" fill="black"/>
<path d="M14.3153 17.2495L16.5106 19.5075C16.7614 19.7584 17.1534 19.7584 17.4043 19.5075C17.6552 19.2566 17.6552 18.8646 17.42 18.6137L14.4721 15.6188L14.723 13.1099C14.8014 12.2632 14.1585 11.5106 13.2804 11.4165C12.81 11.3694 12.371 11.5262 12.0574 11.8085C11.932 11.9182 11.8222 12.0437 11.7281 12.1848L9.6113 14.8191C9.45449 14.9916 9.25065 15.1641 9.21929 15.3836L8.54505 19.3977C8.49801 19.7427 8.73321 20.072 9.07817 20.1347C9.42313 20.1974 9.73674 19.9622 9.81514 19.6173L10.4267 15.901L11.3675 14.725L11.0068 18.3315L10.9598 18.5353L9.25065 29.5272C9.17225 30.0917 9.54857 30.6091 10.1131 30.6875C10.6619 30.7659 11.1793 30.3896 11.2734 29.8408C11.2734 29.8408 12.5121 22.3927 12.8414 20.6208L14.9269 23.3178L13.9704 28.508C13.8763 29.0568 14.2369 29.5899 14.8014 29.684C15.3502 29.7781 15.8833 29.4174 15.9931 28.8686L16.9966 23.3492V23.114C17.0123 22.8787 16.9496 22.6279 16.8085 22.424L14.1429 18.7548" fill="black"/>
<path d="M31.7533 24.5878L29.8873 20.3228C29.8089 20.1346 29.6992 19.9935 29.6051 19.7269C29.3542 19.1624 29.072 18.9429 28.5389 18.9429H24.9795L24.807 17.6885H27.8019C28.1625 17.6885 28.4604 17.3906 28.4604 17.0142C28.4604 16.6379 28.1625 16.34 27.8019 16.34H24.6345L24.3679 14.2231C24.2739 13.5175 23.631 13.0314 22.9254 13.1098C22.2354 13.2039 21.7337 13.8468 21.8278 14.5368L22.502 19.7426C22.5804 20.3855 23.1292 20.8402 23.7564 20.8559H23.8819H28.0371L29.9657 25.3405C30.1853 25.8266 30.7654 26.0618 31.2515 25.8422C31.7533 25.6227 31.9728 25.0425 31.7533 24.5564" fill="black"/>
<path d="M24.915 26.14C22.4219 26.14 20.3992 24.1329 20.3992 21.6397C20.3992 20.3696 20.9323 19.225 21.779 18.4096L21.5281 16.9043C20.0542 17.9549 19.082 19.6797 19.082 21.6397C19.082 24.8542 21.6849 27.4571 24.915 27.4571C26.7026 27.4571 28.3019 26.6417 29.3682 25.3716L28.8194 23.8663C28.0511 25.2148 26.5771 26.14 24.915 26.14Z" fill="black"/>
</g>
<defs>
<clipPath id="clip0_1076_3357">
<rect width="40" height="40.0004" fill="white" transform="translate(0 0.000976562)"/>
</clipPath>
</defs>
</svg>
