<svg width="40" height="40" viewBox="0 0 40 40" fill="none" xmlns="http://www.w3.org/2000/svg">
<g clip-path="url(#clip0_1076_3368)">
<path d="M36.9267 31.2988C36.9267 34.4192 34.4022 36.9437 31.2975 36.9437H8.70247C5.58212 36.9437 3.05762 34.4192 3.05762 31.2988V8.70353C3.05762 5.58316 5.58212 3.05863 8.70247 3.05863H31.2975C34.4022 3.05863 36.9267 5.58316 36.9267 8.70353M31.2975 0.000976562H8.70247C3.90435 0.000976562 0 3.90537 0 8.70353V31.2831C0 36.0813 3.90435 39.9857 8.70247 39.9857H31.2975C36.0956 39.9857 40 36.0813 40 31.2831V8.70353C40 3.90537 36.0956 0.000976562 31.2975 0.000976562Z" fill="black"/>
<path d="M27.8025 29.9652C27.0655 30.7178 26.109 31.1255 25.0741 31.1255C22.9416 31.1255 21.2011 29.3536 21.2011 27.1741C21.2011 26.1078 21.6088 25.12 22.3301 24.3673C23.0671 23.6147 24.0236 23.207 25.0585 23.207C25.5132 23.207 25.8738 22.8463 25.8738 22.3916C25.8738 21.9369 25.5132 21.5605 25.0585 21.5605C23.5845 21.5605 22.2203 22.1407 21.1698 23.207C20.1349 24.2732 19.5547 25.6688 19.5547 27.1584C19.5547 30.2474 22.0165 32.7563 25.0428 32.7563C26.5167 32.7563 27.8809 32.1761 28.9315 31.1098C29.2451 30.7805 29.2451 30.2631 28.9315 29.9495C28.6336 29.6359 28.0848 29.6359 27.7868 29.9495" fill="black"/>
<path d="M32.4276 25.6062C32.2238 25.1044 31.7377 24.7908 31.2202 24.7908H28.8839V18.9891C28.8839 18.2365 28.288 17.6406 27.5667 17.6406H27.3315L23.7564 17.7504C23.5369 17.7504 23.3174 17.8445 23.1449 18.0013L20.6047 20.2749C20.197 20.6356 20.1656 21.2784 20.5106 21.6861C20.6988 21.9057 20.981 22.0311 21.2476 22.0311C21.4828 22.0311 21.7023 21.9527 21.8905 21.7802L24.1641 19.7418L26.2339 19.6634V26.1237C26.2339 26.8763 26.8297 27.4722 27.551 27.4722H30.3421L31.769 30.7964C31.9886 31.2981 32.4746 31.6117 32.9764 31.6117C33.1489 31.6117 33.3371 31.5804 33.5095 31.502C34.1838 31.2041 34.4817 30.4044 34.1995 29.7301" fill="black"/>
<path d="M27.5992 17.0599C28.4459 17.0599 29.1515 16.3543 29.1515 15.4919C29.1515 14.6294 28.4616 13.9238 27.5992 13.9238C26.7368 13.9238 26.0625 14.6294 26.0625 15.4919C26.0625 16.3543 26.7524 17.0599 27.5992 17.0599Z" fill="black"/>
<path d="M12.8262 11.2109H13.1868L13.0143 10.6621" fill="black"/>
<path d="M14.2539 11.9795L14.5518 12.8889L14.8498 11.9795" fill="black"/>
<path d="M11.1641 11.9795L11.4463 12.8889L11.7599 11.9795" fill="black"/>
<path d="M16.6519 11.9804H15.6483L14.8957 14.2227C14.8329 14.3795 14.6918 14.4892 14.535 14.4892C14.3782 14.4892 14.2214 14.3795 14.1744 14.2227L13.4374 11.9961H12.5593L11.8067 14.2384C11.7439 14.3952 11.6028 14.5049 11.446 14.5049C11.2892 14.5049 11.1324 14.3952 11.0854 14.2384L10.3484 12.0118H9.20373C8.98421 12.0118 8.8274 11.8393 8.8274 11.6354C8.8274 11.4316 8.99989 11.2591 9.20373 11.2591H10.0975L9.5487 9.61267C9.48598 9.40883 9.59574 9.20498 9.79958 9.14226C10.0034 9.07954 10.2229 9.1893 10.2857 9.39315L10.8972 11.2748H12.0105L12.6534 9.39315H12.6691L12.7632 9.26771L12.8729 9.17362H12.9043H13.0297H13.1395H13.1708L13.2806 9.26771L13.359 9.36179V9.39315L14.0019 11.2748H15.1152L15.7581 9.39315C15.8208 9.1893 16.0403 9.09522 16.2442 9.15794C16.4323 9.22067 16.5421 9.44019 16.4794 9.64403L15.9306 11.2905H16.6675C16.8871 11.2905 17.0439 11.4629 17.0439 11.6668C17.0439 11.8706 16.8714 12.0431 16.6675 12.0431M19.5684 14.552L20.4935 13.6425L19.5684 12.733L20.4935 11.8236L19.5684 10.9141L20.4935 10.0047L19.5684 9.09522L20.4935 8.18577L19.5841 7.29199H6.61649L5.70703 8.18577L6.63217 9.09522L5.70703 10.0047L6.63217 10.9141L5.70703 11.8236L6.63217 12.733L5.70703 13.6425L6.63217 14.552L5.70703 15.4614L6.63217 16.3709L12.2771 16.3395L19.5527 16.3709L20.4778 15.4614L19.5527 14.552H19.5684Z" fill="black"/>
</g>
<defs>
<clipPath id="clip0_1076_3368">
<rect width="40" height="40.0004" fill="white" transform="translate(0 0.000976562)"/>
</clipPath>
</defs>
</svg>
