<svg width="40" height="41" viewBox="0 0 40 41" fill="none" xmlns="http://www.w3.org/2000/svg">
<g clip-path="url(#clip0_1076_3462)">
<path d="M36.9388 31.3063C36.9388 34.4146 34.4113 36.942 31.303 36.942H8.71272C5.6044 36.942 3.07692 34.4146 3.07692 31.3063V8.71646C3.07692 5.60819 5.6044 3.08077 8.71272 3.08077H31.303C34.4113 3.08077 36.9388 5.60819 36.9388 8.71646M31.303 0.00390625H8.71272C3.90895 0.00390625 0 3.91278 0 8.71646V31.3063C0 36.11 3.90895 40.0031 8.71272 40.0031H31.303C36.1068 40.0031 40.0157 36.0943 40.0157 31.3063V8.71646C40.0157 3.91278 36.1068 0.00390625 31.303 0.00390625Z" fill="black"/>
<path d="M26.9538 30.1893C26.2309 30.9294 25.2499 31.3425 24.2172 31.3425C22.0829 31.3425 20.3445 29.5697 20.3445 27.3838C20.3445 26.3167 20.7404 25.3356 21.4805 24.5955C22.2034 23.8554 23.1844 23.4424 24.2172 23.4424C24.6647 23.4424 25.0261 23.0809 25.0261 22.6162C25.0261 22.1515 24.6647 21.79 24.2172 21.79C22.7541 21.79 21.3772 22.3752 20.3273 23.4251C19.2946 24.4923 18.7266 25.8864 18.7266 27.3838C18.7266 30.4647 21.1879 32.9776 24.2172 32.9776C25.6802 32.9776 27.0571 32.3924 28.107 31.3425C28.4168 31.0155 28.4168 30.4992 28.107 30.1893C27.7972 29.8795 27.2637 29.8795 26.9538 30.1893Z" fill="black"/>
<path d="M31.5676 25.8343C31.3611 25.3351 30.8791 25.0253 30.3456 25.0253H28.0048V19.225C28.0048 18.4849 27.4196 17.8652 26.6795 17.8652H26.4385L22.8756 17.9857C22.6519 17.9857 22.4281 18.089 22.256 18.2439L19.7259 20.5158C19.3128 20.8773 19.2784 21.5141 19.6398 21.9272C19.8291 22.1509 20.1045 22.2714 20.3799 22.2714C20.6037 22.2714 20.8446 22.1854 21.034 22.0133L23.3059 19.9651L25.3714 19.8962V26.3678C25.3714 27.1079 25.9738 27.7103 26.6967 27.7103H29.485L30.8964 31.0322C31.1029 31.5313 31.602 31.8411 32.1012 31.8411C32.2733 31.8411 32.4626 31.8067 32.6348 31.7379C33.306 31.4453 33.6158 30.6363 33.3232 29.9651" fill="black"/>
<path d="M26.7467 17.281C27.6073 17.281 28.2958 16.5753 28.2958 15.7147C28.2958 15.3188 28.1581 14.9746 27.9343 14.6992C27.6417 14.355 27.2286 14.1484 26.7639 14.1484C25.9033 14.1484 25.2148 14.8541 25.2148 15.7147C25.2148 16.5753 25.9033 17.281 26.7639 17.281" fill="black"/>
<path d="M20.587 15.7147V10.6545C20.587 10.1037 20.1395 9.65622 19.5887 9.65622C19.0379 9.65622 18.5904 10.1037 18.5904 10.6545V12.2035H8.59033V8.03832C8.59033 7.48754 8.14282 7.04004 7.59204 7.04004C7.04126 7.04004 6.59375 7.48754 6.59375 8.03832V15.7319H8.59033V14.2173H18.5904V15.7319" fill="black"/>
<path d="M10.4316 11.8246C11.189 11.8246 11.7914 11.2049 11.7914 10.4476C11.7914 9.6903 11.1717 9.08789 10.4316 9.08789C9.69153 9.08789 9.05469 9.70751 9.05469 10.4476C9.05469 11.1877 9.67431 11.8246 10.4316 11.8246Z" fill="black"/>
<path d="M15.525 9.08789H12.2031V11.8246H18.2617C18.2617 10.3099 17.0397 9.08789 15.525 9.08789Z" fill="black"/>
</g>
<defs>
<clipPath id="clip0_1076_3462">
<rect width="40" height="40.0004" fill="white" transform="translate(0 0.00390625)"/>
</clipPath>
</defs>
</svg>
