<svg width="40" height="41" viewBox="0 0 40 41" fill="none" xmlns="http://www.w3.org/2000/svg">
<g clip-path="url(#clip0_1076_3403)">
<path d="M36.9388 31.3043C36.9388 34.4126 34.4113 36.94 31.303 36.94H8.71272C5.6044 36.94 3.07692 34.4126 3.07692 31.3043V8.7145C3.07692 5.60624 5.6044 3.07882 8.71272 3.07882H31.303C34.4113 3.07882 36.9388 5.60624 36.9388 8.7145M31.303 0.00195312H8.71272C3.90895 0.00195312 0 3.91083 0 8.7145V31.3043C0 36.108 3.90895 40.0012 8.71272 40.0012H31.303C36.1068 40.0012 40.0157 36.0923 40.0157 31.3043V8.7145C40.0157 3.91083 36.1068 0.00195312 31.303 0.00195312Z" fill="black"/>
<path d="M28 15.9863L25.2696 13.5H22.5939L24.2321 15.0027H20V16.9426H24.2321L22.5119 18.5H25.2423" fill="black"/>
<path d="M15.2104 29.5439C14.4725 30.2818 13.5149 30.7056 12.4788 30.7056C10.3438 30.7056 8.61695 28.9317 8.61695 26.7496C8.61695 25.6822 9.02512 24.6932 9.74725 23.9554C10.4694 23.2175 11.4427 22.8094 12.4788 22.8094C12.9341 22.8094 13.2951 22.4483 13.2951 21.9931C13.2951 21.5378 12.9341 21.1768 12.4788 21.1768C11.0188 21.1768 9.63736 21.7576 8.60126 22.8251C7.56515 23.8769 7 25.2897 7 26.781C7 29.8579 9.46468 32.3696 12.4945 32.3696C13.9545 32.3696 15.3359 31.7888 16.3878 30.7213C16.7017 30.4073 16.7017 29.8736 16.3878 29.5596C16.0738 29.2457 15.54 29.2457 15.2418 29.5596" fill="black"/>
<path d="M19.827 25.1798C19.6229 24.6775 19.1363 24.3635 18.6182 24.3635H16.2791V18.5551C16.2791 17.8173 15.6826 17.2051 14.9604 17.2051H14.7249L11.1457 17.315C10.9259 17.315 10.7061 17.4092 10.5334 17.5661L8.00595 19.8424C7.59779 20.2035 7.5507 20.8471 7.91176 21.2552C8.10015 21.475 8.38272 21.5849 8.6496 21.5849C8.88507 21.5849 9.12055 21.5064 9.29324 21.3337L11.5695 19.293L13.626 19.2145V25.6822C13.626 26.42 14.2226 27.0322 14.9447 27.0322H17.7391L19.152 30.3602C19.3717 30.8626 19.8584 31.1766 20.3607 31.1766C20.5334 31.1766 20.7218 31.1452 20.8945 31.0667C21.5695 30.7684 21.8678 29.9678 21.5852 29.2928" fill="black"/>
<path d="M15.023 16.6397C15.8864 16.6397 16.5928 15.9332 16.5928 15.0698C16.5928 14.2064 15.8864 13.5 15.023 13.5C14.1596 13.5 13.4531 14.2064 13.4531 15.0698C13.4531 15.9332 14.1596 16.6397 15.023 16.6397Z" fill="black"/>
<path d="M17.5 11V8H31.5V31.5H25.5" stroke="black" stroke-width="2" stroke-linecap="round" stroke-linejoin="round"/>
</g>
<defs>
<clipPath id="clip0_1076_3403">
<rect width="40" height="40.0004" fill="white" transform="translate(0 0.00195312)"/>
</clipPath>
</defs>
</svg>
