<svg width="40" height="40" viewBox="0 0 40 40" fill="none" xmlns="http://www.w3.org/2000/svg">
<g clip-path="url(#clip0_1076_3495)">
<path d="M36.9267 31.2978C36.9267 34.4182 34.4022 36.9427 31.2975 36.9427H8.70247C5.58212 36.9427 3.05762 34.4182 3.05762 31.2978V8.70255C3.05762 5.58218 5.58212 3.05765 8.70247 3.05765H31.2975C34.4022 3.05765 36.9267 5.58218 36.9267 8.70255M31.2975 0H8.70247C3.90435 0 0 3.90439 0 8.70255V31.2822C0 36.0803 3.90435 39.9847 8.70247 39.9847H31.2975C36.0956 39.9847 40 36.0803 40 31.2822V8.70255C40 3.90439 36.0956 0 31.2975 0Z" fill="black"/>
<path fill-rule="evenodd" clip-rule="evenodd" d="M31 9H9V31H31V9ZM11 12C11 11.4444 11.4444 11 12 11C12.5556 11 13 11.4444 13 12C13 12.5556 12.5556 13 12 13C11.4444 13 11 12.5556 11 12ZM28.0003 11.1583C27.4448 11.1583 27.0003 11.6027 27.0003 12.1583C27.0003 12.7138 27.4448 13.1583 28.0003 13.1583C28.5559 13.1583 29.0003 12.7138 29.0003 12.1583C29.0003 11.6027 28.5559 11.1583 28.0003 11.1583ZM22.9998 12.1583C22.9998 11.6027 23.4442 11.1583 23.9998 11.1583C24.5553 11.1583 24.9998 11.6027 24.9998 12.1583C24.9998 12.7138 24.5553 13.1583 23.9998 13.1583C23.4442 13.1583 22.9998 12.7138 22.9998 12.1583ZM20 11.1582C19.4444 11.1582 19 11.6026 19 12.1582C19 12.7138 19.4444 13.1582 20 13.1582C20.5556 13.1582 21 12.7138 21 12.1582C21 11.6026 20.5556 11.1582 20 11.1582ZM15.0004 12.1583C15.0004 11.6027 15.4449 11.1583 16.0004 11.1583C16.556 11.1583 17.0004 11.6027 17.0004 12.1583C17.0004 12.7138 16.556 13.1583 16.0004 13.1583C15.4449 13.1583 15.0004 12.7138 15.0004 12.1583ZM11.9998 15.0004C11.4443 15.0004 10.9998 15.4449 10.9998 16.0004C10.9998 16.556 11.4443 17.0004 11.9998 17.0004C12.5554 17.0004 12.9998 16.556 12.9998 16.0004C12.9998 15.4449 12.5554 15.0004 11.9998 15.0004ZM27.0003 16.158C27.0003 15.6024 27.4448 15.158 28.0003 15.158C28.5559 15.158 29.0003 15.6024 29.0003 16.158C29.0003 16.7135 28.5559 17.158 28.0003 17.158C27.4448 17.158 27.0003 16.7135 27.0003 16.158ZM23.9998 15.158C23.4442 15.158 22.9998 15.6024 22.9998 16.158C22.9998 16.7135 23.4442 17.158 23.9998 17.158C24.5553 17.158 24.9998 16.7135 24.9998 16.158C24.9998 15.6024 24.5553 15.158 23.9998 15.158ZM19.0001 16.158C19.0001 15.6024 19.4445 15.158 20.0001 15.158C20.5556 15.158 21.0001 15.6024 21.0001 16.158C21.0001 16.7135 20.5556 17.158 20.0001 17.158C19.4445 17.158 19.0001 16.7135 19.0001 16.158ZM16.0004 15.158C15.4449 15.158 15.0004 15.6024 15.0004 16.158C15.0004 16.7135 15.4449 17.158 16.0004 17.158C16.556 17.158 17.0004 16.7135 17.0004 16.158C17.0004 15.6024 16.556 15.158 16.0004 15.158ZM11 20C11 19.4444 11.4444 19 12 19C12.5556 19 13 19.4444 13 20C13 20.5556 12.5556 21 12 21C11.4444 21 11 20.5556 11 20ZM28.0003 19.1585C27.4448 19.1585 27.0003 19.603 27.0003 20.1585C27.0003 20.7141 27.4448 21.1585 28.0003 21.1585C28.5559 21.1585 29.0003 20.7141 29.0003 20.1585C29.0003 19.603 28.5559 19.1585 28.0003 19.1585ZM22.9998 20.1585C22.9998 19.603 23.4442 19.1585 23.9998 19.1585C24.5553 19.1585 24.9998 19.603 24.9998 20.1585C24.9998 20.7141 24.5553 21.1585 23.9998 21.1585C23.4442 21.1585 22.9998 20.7141 22.9998 20.1585ZM20.0001 19.1585C19.4445 19.1585 19.0001 19.603 19.0001 20.1585C19.0001 20.7141 19.4445 21.1585 20.0001 21.1585C20.5556 21.1585 21.0001 20.7141 21.0001 20.1585C21.0001 19.603 20.5556 19.1585 20.0001 19.1585ZM15.0004 20.1585C15.0004 19.603 15.4449 19.1585 16.0004 19.1585C16.556 19.1585 17.0004 19.603 17.0004 20.1585C17.0004 20.7141 16.556 21.1585 16.0004 21.1585C15.4449 21.1585 15.0004 20.7141 15.0004 20.1585ZM11.9998 22.9998C11.4443 22.9998 10.9998 23.4442 10.9998 23.9998C10.9998 24.5553 11.4443 24.9998 11.9998 24.9998C12.5554 24.9998 12.9998 24.5553 12.9998 23.9998C12.9998 23.4442 12.5554 22.9998 11.9998 22.9998ZM27.0003 24.1582C27.0003 23.6026 27.4448 23.1582 28.0003 23.1582C28.5559 23.1582 29.0003 23.6026 29.0003 24.1582C29.0003 24.7138 28.5559 25.1582 28.0003 25.1582C27.4448 25.1582 27.0003 24.7138 27.0003 24.1582ZM23.9998 23.1582C23.4442 23.1582 22.9998 23.6026 22.9998 24.1582C22.9998 24.7138 23.4442 25.1582 23.9998 25.1582C24.5553 25.1582 24.9998 24.7138 24.9998 24.1582C24.9998 23.6026 24.5553 23.1582 23.9998 23.1582ZM19 24.1582C19 23.6026 19.4444 23.1582 20 23.1582C20.5556 23.1582 21 23.6026 21 24.1582C21 24.7138 20.5556 25.1582 20 25.1582C19.4444 25.1582 19 24.7138 19 24.1582ZM16.0004 23.1582C15.4449 23.1582 15.0004 23.6026 15.0004 24.1582C15.0004 24.7138 15.4449 25.1582 16.0004 25.1582C16.556 25.1582 17.0004 24.7138 17.0004 24.1582C17.0004 23.6026 16.556 23.1582 16.0004 23.1582ZM10.9998 28.0003C10.9998 27.4448 11.4443 27.0003 11.9998 27.0003C12.5554 27.0003 12.9998 27.4448 12.9998 28.0003C12.9998 28.5559 12.5554 29.0003 11.9998 29.0003C11.4443 29.0003 10.9998 28.5559 10.9998 28.0003ZM28.0003 27.0003C27.4448 27.0003 27.0003 27.4448 27.0003 28.0003C27.0003 28.5559 27.4448 29.0003 28.0003 29.0003C28.5559 29.0003 29.0003 28.5559 29.0003 28.0003C29.0003 27.4448 28.5559 27.0003 28.0003 27.0003ZM22.9998 28.0003C22.9998 27.4448 23.4442 27.0003 23.9998 27.0003C24.5553 27.0003 24.9998 27.4448 24.9998 28.0003C24.9998 28.5559 24.5553 29.0003 23.9998 29.0003C23.4442 29.0003 22.9998 28.5559 22.9998 28.0003ZM20.0001 27.0003C19.4445 27.0003 19.0001 27.4448 19.0001 28.0003C19.0001 28.5559 19.4445 29.0003 20.0001 29.0003C20.5556 29.0003 21.0001 28.5559 21.0001 28.0003C21.0001 27.4448 20.5556 27.0003 20.0001 27.0003ZM15.0004 28.0003C15.0004 27.4448 15.4449 27.0003 16.0004 27.0003C16.556 27.0003 17.0004 27.4448 17.0004 28.0003C17.0004 28.5559 16.556 29.0003 16.0004 29.0003C15.4449 29.0003 15.0004 28.5559 15.0004 28.0003Z" fill="black"/>
</g>
<defs>
<clipPath id="clip0_1076_3495">
<rect width="40" height="40.0004" fill="white"/>
</clipPath>
</defs>
</svg>
