<svg width="40" height="40" viewBox="0 0 40 40" fill="none" xmlns="http://www.w3.org/2000/svg">
<g clip-path="url(#clip0_1076_3695)">
<path d="M36.9267 31.2988C36.9267 34.4192 34.4022 36.9437 31.2975 36.9437H8.70247C5.58212 36.9437 3.05762 34.4192 3.05762 31.2988V8.70353C3.05762 5.58316 5.58212 3.05863 8.70247 3.05863H31.2975C34.4022 3.05863 36.9267 5.58316 36.9267 8.70353M31.2975 0.000976562H8.70247C3.90435 0.000976562 0 3.90537 0 8.70353V31.2831C0 36.0813 3.90435 39.9857 8.70247 39.9857H31.2975C36.0956 39.9857 40 36.0813 40 31.2831V8.70353C40 3.90537 36.0956 0.000976562 31.2975 0.000976562Z" fill="black"/>
<path d="M9.48206 30.9388C9.45494 31.1918 9.52893 31.4453 9.68789 31.644C9.84685 31.8427 10.0779 31.9705 10.3307 31.9996H10.4464C10.6894 32.0004 10.9237 31.9095 11.1024 31.745C11.2812 31.5805 11.3914 31.3546 11.4108 31.1124L12.2402 23.3975H10.3114L9.48206 30.9388Z" fill="black"/>
<path d="M28.5387 31.112C28.5627 31.3508 28.6748 31.5719 28.8531 31.7324C29.0314 31.8929 29.2632 31.9812 29.5031 31.98H29.6092C29.862 31.9509 30.093 31.8231 30.252 31.6244C30.4109 31.4257 30.4849 31.1722 30.4578 30.9192L29.667 23.4453H27.7383L28.5387 31.112Z" fill="black"/>
<path d="M14.7966 23.7744C14.7974 23.9241 14.8441 24.07 14.9303 24.1924C15.0165 24.3148 15.1381 24.4079 15.2788 24.4591C17.2558 25.1631 18.5384 25.896 18.4034 27.9984C18.3968 28.0934 18.4091 28.1888 18.4395 28.279C18.4699 28.3693 18.5179 28.4527 18.5806 28.5244C18.6433 28.596 18.7196 28.6546 18.805 28.6968C18.8905 28.7389 18.9834 28.7637 19.0784 28.7699H21.0554C21.2472 28.7699 21.4312 28.6937 21.5668 28.558C21.7025 28.4224 21.7787 28.2384 21.7787 28.0466V27.9984C21.6437 25.896 22.9166 25.1631 24.9032 24.4591C25.0439 24.4109 25.166 24.3199 25.2525 24.1989C25.3389 24.0778 25.3854 23.9328 25.3854 23.7841V23.4658H14.7773L14.7966 23.7744Z" fill="black"/>
<path d="M26.0333 15.7506C26.4565 14.5911 26.5695 13.3412 26.3612 12.1246C25.879 9.9933 23.8828 9 20.0928 9C16.3028 9 14.3934 10.0222 13.8533 12.1053C13.6049 13.3227 13.7017 14.5853 14.133 15.7506H26.0333Z" fill="black"/>
<path d="M29.2518 17.1973H10.9287C10.4172 17.1973 9.92662 17.4005 9.56491 17.7622C9.20321 18.1239 9 18.6145 9 19.126V22.0191H31.1805V19.126C31.1805 18.6145 30.9773 18.1239 30.6156 17.7622C30.2539 17.4005 29.7633 17.1973 29.2518 17.1973Z" fill="black"/>
</g>
<defs>
<clipPath id="clip0_1076_3695">
<rect width="40" height="40.0004" fill="white" transform="translate(0 0.000976562)"/>
</clipPath>
</defs>
</svg>
