<svg width="40" height="40" viewBox="0 0 40 40" fill="none" xmlns="http://www.w3.org/2000/svg">
<g clip-path="url(#clip0_1076_3550)">
<path d="M36.9267 31.2988C36.9267 34.4192 34.4022 36.9437 31.2975 36.9437H8.70247C5.58212 36.9437 3.05762 34.4192 3.05762 31.2988V8.70353C3.05762 5.58316 5.58212 3.05863 8.70247 3.05863H31.2975C34.4022 3.05863 36.9267 5.58316 36.9267 8.70353M31.2975 0.000976562H8.70247C3.90435 0.000976562 0 3.90537 0 8.70353V31.2831C0 36.0813 3.90435 39.9857 8.70247 39.9857H31.2975C36.0956 39.9857 40 36.0813 40 31.2831V8.70353C40 3.90537 36.0956 0.000976562 31.2975 0.000976562Z" fill="black"/>
<path d="M10.4254 9.61328C9.87655 9.61328 9.4375 10.0523 9.4375 10.6011C9.4375 11.1499 9.87655 11.589 10.4254 11.589C10.9742 11.589 11.4132 11.1499 11.4132 10.6011C11.4132 10.0523 10.9742 9.61328 10.4254 9.61328Z" fill="black"/>
<path d="M10.4254 16.9209C9.87655 16.9209 9.4375 17.3599 9.4375 17.9088C9.4375 18.4576 9.87655 18.8966 10.4254 18.8966C10.9742 18.8966 11.4132 18.4576 11.4132 17.9088C11.4132 17.3599 10.9742 16.9209 10.4254 16.9209Z" fill="black"/>
<path d="M13.6598 15.2433C14.2086 15.2433 14.6476 14.8042 14.6476 14.2554C14.6476 13.7066 14.2086 13.2676 13.6598 13.2676C13.111 13.2676 12.6562 13.7066 12.6562 14.2554C12.6562 14.8042 13.0953 15.2433 13.6598 15.2433Z" fill="black"/>
<path d="M14.6476 17.9088C14.6476 17.3599 14.2086 16.9209 13.6598 16.9209C13.111 16.9209 12.6562 17.3599 12.6562 17.9088C12.6562 18.4576 13.0953 18.8966 13.6598 18.8966C14.2243 18.8966 14.6476 18.4576 14.6476 17.9088Z" fill="black"/>
<path d="M20.105 11.589C20.6539 11.589 21.0929 11.1499 21.0929 10.6011C21.0929 10.0523 20.6539 9.61328 20.105 9.61328C19.5562 9.61328 19.1172 10.0523 19.1172 10.6011C19.1172 11.1499 19.5562 11.589 20.105 11.589Z" fill="black"/>
<path d="M20.105 15.2433C20.6539 15.2433 21.0929 14.8042 21.0929 14.2554C21.0929 13.7066 20.6539 13.2676 20.105 13.2676C19.5562 13.2676 19.1172 13.7066 19.1172 14.2554C19.1172 14.8042 19.5562 15.2433 20.105 15.2433Z" fill="black"/>
<path d="M26.5465 11.589C27.0953 11.589 27.5344 11.1499 27.5344 10.6011C27.5344 10.0523 27.0953 9.61328 26.5465 9.61328C25.9977 9.61328 25.543 10.0523 25.543 10.6011C25.543 11.1499 25.982 11.589 26.5465 11.589Z" fill="black"/>
<path d="M29.7769 9.61328C29.2281 9.61328 28.7891 10.0523 28.7891 10.6011C28.7891 11.1499 29.2281 11.589 29.7769 11.589C30.3257 11.589 30.7648 11.1499 30.7648 10.6011C30.7648 10.0523 30.3257 9.61328 29.7769 9.61328Z" fill="black"/>
<path d="M29.7769 13.2676C29.2281 13.2676 28.7891 13.7066 28.7891 14.2554C28.7891 14.8042 29.2281 15.2433 29.7769 15.2433C30.3257 15.2433 30.7648 14.8042 30.7648 14.2554C30.7648 13.7066 30.3257 13.2676 29.7769 13.2676Z" fill="black"/>
<path d="M21.4185 20.8408C21.2304 20.8408 21.0422 20.9035 20.9011 21.0603L17.1692 23.4594H14.2213C14.0331 23.4594 13.8606 23.5221 13.7195 23.6789C13.5627 23.8201 13.5 23.9926 13.5 24.1807V28.4928C13.5 28.681 13.5784 28.8534 13.7195 28.9946C13.8606 29.1357 14.0331 29.1984 14.2213 29.1984H17.1692L20.9011 31.5975C21.0422 31.7386 21.2147 31.817 21.4185 31.817C21.6224 31.817 21.7792 31.7543 21.9203 31.5975C22.0771 31.4564 22.1398 31.2839 22.1398 31.0957V21.5778C22.1398 21.3896 22.0771 21.2171 21.9203 21.076C21.7792 20.9349 21.6224 20.8565 21.4185 20.8565" fill="black"/>
<path d="M25.4337 27.9135C25.7473 27.4274 25.9041 26.8943 25.9041 26.3298C25.9041 25.7653 25.7473 25.2322 25.4337 24.7304C25.1201 24.2443 24.6968 23.8837 24.1636 23.6955L23.8971 23.6328C23.7089 23.6328 23.5364 23.7112 23.3796 23.8367C23.2542 23.9778 23.1758 24.1503 23.1758 24.3541C23.1758 24.5109 23.2228 24.652 23.3012 24.7461L23.6305 25.0284L24.0068 25.2792C24.1323 25.3733 24.242 25.4988 24.3361 25.6712C24.4302 25.8437 24.4772 26.0633 24.4772 26.3141C24.4772 26.565 24.4302 26.7845 24.3361 26.957C24.2577 27.1295 24.148 27.2706 24.0068 27.349L23.6305 27.5999L23.3012 27.8822C23.2228 27.9919 23.1758 28.1174 23.1758 28.2899C23.1758 28.4937 23.2542 28.6662 23.3796 28.7916C23.5207 28.9327 23.6932 28.9955 23.8971 28.9955L24.1636 28.9327C24.6968 28.7289 25.1201 28.3683 25.4337 27.8822" fill="black"/>
<path d="M25.3083 21.0295L25.0104 20.9668C24.8222 20.9668 24.6497 21.0452 24.5086 21.1863C24.3675 21.3274 24.2891 21.4999 24.2891 21.6881C24.2891 21.986 24.4302 22.2055 24.7281 22.3467C25.1515 22.5662 25.4337 22.723 25.5905 22.8327C26.1393 23.2404 26.5784 23.7422 26.8763 24.3537C27.1899 24.9653 27.3467 25.6082 27.3467 26.2981C27.3467 26.988 27.1899 27.6309 26.8763 28.2424C26.5784 28.854 26.1393 29.3557 25.5905 29.7634C25.4337 29.8732 25.1515 30.0457 24.7281 30.2652C24.4459 30.422 24.2891 30.6415 24.2891 30.9238C24.2891 31.1119 24.3518 31.2844 24.5086 31.4255C24.6497 31.5667 24.8222 31.6451 25.026 31.6451L25.3083 31.5823C26.3589 31.1433 27.1899 30.4377 27.8328 29.4655C28.46 28.4933 28.7893 27.4427 28.7893 26.2981C28.7893 25.1534 28.46 24.1029 27.8328 23.1307C27.1899 22.1585 26.3589 21.4529 25.3083 21.0138" fill="black"/>
</g>
<defs>
<clipPath id="clip0_1076_3550">
<rect width="40" height="40.0004" fill="white" transform="translate(0 0.000976562)"/>
</clipPath>
</defs>
</svg>
