<svg width="40" height="41" viewBox="0 0 40 41" fill="none" xmlns="http://www.w3.org/2000/svg">
<g clip-path="url(#clip0_1076_3413)">
<path d="M36.9388 31.3053C36.9388 34.4136 34.4113 36.941 31.303 36.941H8.71272C5.6044 36.941 3.07692 34.4136 3.07692 31.3053V8.71548C3.07692 5.60722 5.6044 3.07979 8.71272 3.07979H31.303C34.4113 3.07979 36.9388 5.60722 36.9388 8.71548M31.303 0.00292969H8.71272C3.90895 0.00292969 0 3.9118 0 8.71548V31.3053C0 36.109 3.90895 40.0022 8.71272 40.0022H31.303C36.1068 40.0022 40.0157 36.0933 40.0157 31.3053V8.71548C40.0157 3.9118 36.1068 0.00292969 31.303 0.00292969Z" fill="black"/>
<path d="M26.6875 21.9182V21.9339L26.7032 21.8711" fill="black"/>
<path d="M20.0457 5.62402L18.6172 7.19385V8.73229L19.4806 7.79039V10.2236H20.5952V7.79039L21.49 8.77938V7.20955" fill="black"/>
<path d="M20.0477 34.3809L21.4762 32.811L21.4919 31.2726L20.6128 32.2145V29.7812H19.4982V32.2145L18.6191 31.2255V32.7953" fill="black"/>
<path d="M10.3933 7.64844H8.57227V30.5837H10.3933V7.64844Z" fill="black"/>
<path d="M31.4127 7.64844H29.6074V30.5837H31.4127V7.64844Z" fill="black"/>
<path d="M27.9114 11.1641H12.166V12.0746H27.9114V11.1641Z" fill="black"/>
<path d="M27.9114 27.8516H12.166V28.7621H27.9114V27.8516Z" fill="black"/>
<path d="M16.4996 14.4617C16.4996 15.0112 16.0444 15.4664 15.4949 15.4664C14.9455 15.4664 14.4902 15.0112 14.4902 14.4617C14.4902 13.9123 14.9455 13.457 15.4949 13.457C16.0444 13.457 16.4996 13.9123 16.4996 14.4617Z" fill="black"/>
<path d="M22.7315 16.3775C22.7315 16.8956 22.3076 17.3194 21.7896 17.3194C21.2715 17.3194 20.8477 16.8956 20.8477 16.3775C20.8477 15.8595 21.2715 15.4199 21.7896 15.4199C22.3076 15.4199 22.7315 15.8438 22.7315 16.3775Z" fill="black"/>
<path d="M26.9386 24.3509L25.8397 21.8235C25.7926 21.7136 25.7298 21.6351 25.667 21.4782C25.51 21.1485 25.353 21.0072 25.0391 21.0072H22.9355L22.8413 20.2694H24.5995C24.8193 20.2694 24.992 20.0967 24.992 19.8769C24.992 19.6571 24.8193 19.4845 24.5995 19.4845H22.7314L22.5744 18.2443C22.5273 17.8361 22.1506 17.5379 21.7267 17.585C21.3186 17.6478 21.0203 18.0245 21.0674 18.4327L21.4599 21.5095C21.5069 21.8863 21.8209 22.1532 22.1977 22.1689H22.2762H24.7251L25.8711 24.8219C25.9967 25.1202 26.342 25.2457 26.6246 25.1202C26.9229 24.9946 27.0484 24.6492 26.9229 24.3666" fill="black"/>
<path d="M22.9047 25.2774C21.429 25.2774 20.2516 24.0843 20.2516 22.6244C20.2516 21.8709 20.5656 21.1958 21.068 20.7092L20.9267 19.8301C20.0476 20.458 19.4824 21.4784 19.4824 22.6244C19.4824 24.5239 21.0209 26.0623 22.9204 26.0623C23.9878 26.0623 24.9297 25.5914 25.5577 24.8221L25.228 23.943C24.7727 24.7436 23.9093 25.2774 22.9204 25.2774" fill="black"/>
<path d="M18.3681 19.9872L17.2692 16.5964C17.2221 16.4394 17.1907 16.3766 17.1436 16.2511C17.018 15.8429 16.8139 15.6074 16.4372 15.6074H14.6946C14.365 15.6074 14.0981 15.8272 14.0039 16.1255L13.9411 16.3138L12.7795 19.9872C12.7167 20.1756 12.8266 20.3797 13.0149 20.4268C13.2033 20.4739 13.4074 20.3797 13.4545 20.1913L14.4435 16.9732V19.3907L14.365 19.8303L13.5173 25.513C13.4702 25.827 13.69 26.1096 13.9882 26.1567C14.3022 26.2038 14.5848 25.984 14.6319 25.67L15.3226 20.9605V20.9291L15.5267 20.7408L15.7464 20.9605L16.4058 25.67C16.4529 25.984 16.7354 26.1881 17.0494 26.1567C17.3634 26.1096 17.5674 25.827 17.5203 25.513L16.6569 19.5791V17.0517L17.6459 20.1913C17.7087 20.3797 17.9128 20.4739 18.1012 20.4111C18.2896 20.3483 18.3837 20.1599 18.3367 19.9715" fill="black"/>
</g>
<defs>
<clipPath id="clip0_1076_3413">
<rect width="40" height="40.0004" fill="white" transform="translate(0 0.00292969)"/>
</clipPath>
</defs>
</svg>
