<svg width="40" height="40" viewBox="0 0 40 40" fill="none" xmlns="http://www.w3.org/2000/svg">
<g clip-path="url(#clip0_1076_3314)">
<path d="M36.9267 31.2978C36.9267 34.4182 34.4022 36.9427 31.2975 36.9427H8.70247C5.58212 36.9427 3.05762 34.4182 3.05762 31.2978V8.70255C3.05762 5.58218 5.58212 3.05765 8.70247 3.05765H31.2975C34.4022 3.05765 36.9267 5.58218 36.9267 8.70255M31.2975 0H8.70247C3.90435 0 0 3.90439 0 8.70255V31.2822C0 36.0803 3.90435 39.9847 8.70247 39.9847H31.2975C36.0956 39.9847 40 36.0803 40 31.2822V8.70255C40 3.90439 36.0956 0 31.2975 0Z" fill="black"/>
<path d="M27.5328 30.2943C26.7959 31.0469 25.8237 31.4546 24.7888 31.4546C22.6563 31.4546 20.9315 29.6827 20.9315 27.5032C20.9315 26.4369 21.3392 25.4491 22.0605 24.6964C22.7818 23.9594 23.7539 23.5361 24.7888 23.5361C25.2435 23.5361 25.6042 23.1754 25.6042 22.7207C25.6042 22.266 25.2435 21.8896 24.7888 21.8896C23.3306 21.8896 21.935 22.4698 20.9158 23.5361C19.8809 24.5867 19.3008 25.9979 19.3008 27.4875C19.3008 30.5765 21.7626 33.0854 24.7888 33.0854C26.2471 33.0854 27.6426 32.5052 28.6775 31.4389C28.9911 31.1253 28.9911 30.5922 28.6775 30.2786C28.3639 29.965 27.8308 29.965 27.5328 30.2786" fill="black"/>
<path d="M32.1595 25.9353C31.94 25.4335 31.4696 25.1199 30.9365 25.1199H28.6001V19.3182C28.6001 18.5656 28.0043 17.9697 27.2673 17.9697H27.0321L23.4571 18.0795C23.2219 18.0795 23.018 18.1736 22.8455 18.3304L20.3054 20.604C19.8977 20.9647 19.8663 21.6076 20.227 22.0152C20.4151 22.2348 20.6974 22.3602 20.9639 22.3602C21.1991 22.3602 21.4186 22.2818 21.6068 22.1093L23.8804 20.0709L25.9502 19.9925V26.4528C25.9502 27.1897 26.546 27.8013 27.2673 27.8013H30.0584L31.4853 31.1255C31.7048 31.6273 32.1909 31.9409 32.6927 31.9409C32.8651 31.9409 33.0533 31.9095 33.2258 31.8311C33.9 31.5332 34.1979 30.7335 33.9157 30.0592" fill="black"/>
<path d="M27.361 17.389C28.2234 17.389 28.929 16.6834 28.929 15.821C28.929 14.9585 28.2234 14.2529 27.361 14.2529C26.4986 14.2529 25.793 14.9585 25.793 15.821C25.793 16.6834 26.4829 17.389 27.361 17.389Z" fill="black"/>
<path d="M14.6598 14.959H10.2694V9.92562H14.6598C16.0397 9.92562 17.1843 11.0546 17.1843 12.4501C17.1843 13.8457 16.0397 14.9747 14.6598 14.9747M14.6598 6.64844H6.97656V23.6145H10.2537V18.2675H14.6441C17.8429 18.2675 20.4458 15.6646 20.4458 12.4658C20.4458 9.26704 17.8429 6.64844 14.6441 6.64844" fill="black"/>
</g>
<defs>
<clipPath id="clip0_1076_3314">
<rect width="40" height="40.0004" fill="white"/>
</clipPath>
</defs>
</svg>
