<svg width="40" height="40" viewBox="0 0 40 40" fill="none" xmlns="http://www.w3.org/2000/svg">
<g clip-path="url(#clip0_1076_3634)">
<path d="M36.9267 31.2978C36.9267 34.4182 34.4022 36.9427 31.2975 36.9427H8.70247C5.58212 36.9427 3.05762 34.4182 3.05762 31.2978V8.70255C3.05762 5.58218 5.58212 3.05765 8.70247 3.05765H31.2975C34.4022 3.05765 36.9267 5.58218 36.9267 8.70255M31.2975 0H8.70247C3.90435 0 0 3.90439 0 8.70255V31.2822C0 36.0803 3.90435 39.9847 8.70247 39.9847H31.2975C36.0956 39.9847 40 36.0803 40 31.2822V8.70255C40 3.90439 36.0956 0 31.2975 0Z" fill="black"/>
<path d="M19.3333 28.7724H30.6666C31.4666 28.7724 32 28.2376 32 27.4355V12.2216C32 11.4195 31.4666 10.8848 30.6666 10.8848H9.33333C8.53333 10.8848 8 11.4195 8 12.2216V27.4355C8 28.2376 8.53333 28.7724 9.33333 28.7724H14V31.4459C14 31.9967 14.6272 32.3111 15.0666 31.9807L19.3333 28.7724Z" fill="black"/>
<path d="M18.6246 21.4575C18.6246 21.7802 18.5651 22.0847 18.4461 22.371C18.3321 22.6573 18.1735 22.9072 17.9703 23.1206C17.7671 23.334 17.5291 23.5032 17.2565 23.6281C16.9839 23.7478 16.694 23.8077 16.3866 23.8077H15.777C15.4697 23.8077 15.1797 23.7478 14.9071 23.6281C14.6345 23.5032 14.3966 23.334 14.1933 23.1206C13.9901 22.9072 13.829 22.6573 13.7101 22.371C13.5961 22.0847 13.5391 21.7802 13.5391 21.4575V17.8502C13.5391 17.5275 13.5961 17.223 13.7101 16.9367C13.829 16.6504 13.9901 16.4005 14.1933 16.1871C14.3966 15.9737 14.6345 15.8071 14.9071 15.6874C15.1797 15.5625 15.4697 15.5 15.777 15.5H16.3866C16.694 15.5 16.9839 15.5625 17.2565 15.6874C17.5291 15.8071 17.7671 15.9737 17.9703 16.1871C18.1735 16.4005 18.3321 16.6504 18.4461 16.9367C18.5651 17.223 18.6246 17.5275 18.6246 17.8502V18.1703L17.7101 18.3265V17.7955C17.7101 17.6029 17.6754 17.4234 17.606 17.2568C17.5366 17.085 17.4424 16.9367 17.3234 16.8117C17.2045 16.6868 17.0632 16.5879 16.8997 16.515C16.741 16.4422 16.57 16.4057 16.3866 16.4057H15.777C15.5936 16.4057 15.4201 16.4422 15.2565 16.515C15.0979 16.5879 14.9591 16.6868 14.8402 16.8117C14.7212 16.9367 14.627 17.085 14.5576 17.2568C14.4883 17.4234 14.4536 17.6029 14.4536 17.7955V21.5121C14.4536 21.7047 14.4883 21.8869 14.5576 22.0587C14.627 22.2253 14.7212 22.371 14.8402 22.496C14.9591 22.6209 15.0979 22.7198 15.2565 22.7927C15.4201 22.8655 15.5936 22.902 15.777 22.902H16.3866C16.57 22.902 16.741 22.8655 16.8997 22.7927C17.0632 22.7198 17.2045 22.6209 17.3234 22.496C17.4424 22.371 17.5366 22.2253 17.606 22.0587C17.6754 21.8869 17.7101 21.7047 17.7101 21.5121V20.9812L18.6246 21.1374V21.4575Z" fill="white"/>
<path d="M26.4621 21.4575C26.4621 21.7802 26.4027 22.0847 26.2837 22.371C26.1697 22.6573 26.0111 22.9072 25.8079 23.1206C25.6046 23.334 25.3667 23.5032 25.0941 23.6281C24.8215 23.7478 24.5315 23.8077 24.2242 23.8077H23.6146C23.3072 23.8077 23.0173 23.7478 22.7447 23.6281C22.4721 23.5032 22.2341 23.334 22.0309 23.1206C21.8277 22.9072 21.6666 22.6573 21.5476 22.371C21.4336 22.0847 21.3766 21.7802 21.3766 21.4575V17.8502C21.3766 17.5275 21.4336 17.223 21.5476 16.9367C21.6666 16.6504 21.8277 16.4005 22.0309 16.1871C22.2341 15.9737 22.4721 15.8071 22.7447 15.6874C23.0173 15.5625 23.3072 15.5 23.6146 15.5H24.2242C24.5315 15.5 24.8215 15.5625 25.0941 15.6874C25.3667 15.8071 25.6046 15.9737 25.8079 16.1871C26.0111 16.4005 26.1697 16.6504 26.2837 16.9367C26.4027 17.223 26.4621 17.5275 26.4621 17.8502V18.1703L25.5476 18.3265V17.7955C25.5476 17.6029 25.5129 17.4234 25.4436 17.2568C25.3742 17.085 25.28 16.9367 25.161 16.8117C25.0421 16.6868 24.9008 16.5879 24.7372 16.515C24.5786 16.4422 24.4076 16.4057 24.2242 16.4057H23.6146C23.4312 16.4057 23.2577 16.4422 23.0941 16.515C22.9355 16.5879 22.7967 16.6868 22.6778 16.8117C22.5588 16.9367 22.4646 17.085 22.3952 17.2568C22.3258 17.4234 22.2911 17.6029 22.2911 17.7955V21.5121C22.2911 21.7047 22.3258 21.8869 22.3952 22.0587C22.4646 22.2253 22.5588 22.371 22.6778 22.496C22.7967 22.6209 22.9355 22.7198 23.0941 22.7927C23.2577 22.8655 23.4312 22.902 23.6146 22.902H24.2242C24.4076 22.902 24.5786 22.8655 24.7372 22.7927C24.9008 22.7198 25.0421 22.6209 25.161 22.496C25.28 22.371 25.3742 22.2253 25.4436 22.0587C25.5129 21.8869 25.5476 21.7047 25.5476 21.5121V20.9812L26.4621 21.1374V21.4575Z" fill="white"/>
<path d="M18.6246 21.4575C18.6246 21.7802 18.5651 22.0847 18.4461 22.371C18.3321 22.6573 18.1735 22.9072 17.9703 23.1206C17.7671 23.334 17.5291 23.5032 17.2565 23.6281C16.9839 23.7478 16.694 23.8077 16.3866 23.8077H15.777C15.4697 23.8077 15.1797 23.7478 14.9071 23.6281C14.6345 23.5032 14.3966 23.334 14.1933 23.1206C13.9901 22.9072 13.829 22.6573 13.7101 22.371C13.5961 22.0847 13.5391 21.7802 13.5391 21.4575V17.8502C13.5391 17.5275 13.5961 17.223 13.7101 16.9367C13.829 16.6504 13.9901 16.4005 14.1933 16.1871C14.3966 15.9737 14.6345 15.8071 14.9071 15.6874C15.1797 15.5625 15.4697 15.5 15.777 15.5H16.3866C16.694 15.5 16.9839 15.5625 17.2565 15.6874C17.5291 15.8071 17.7671 15.9737 17.9703 16.1871C18.1735 16.4005 18.3321 16.6504 18.4461 16.9367C18.5651 17.223 18.6246 17.5275 18.6246 17.8502V18.1703L17.7101 18.3265V17.7955C17.7101 17.6029 17.6754 17.4234 17.606 17.2568C17.5366 17.085 17.4424 16.9367 17.3234 16.8117C17.2045 16.6868 17.0632 16.5879 16.8997 16.515C16.741 16.4422 16.57 16.4057 16.3866 16.4057H15.777C15.5936 16.4057 15.4201 16.4422 15.2565 16.515C15.0979 16.5879 14.9591 16.6868 14.8402 16.8117C14.7212 16.9367 14.627 17.085 14.5576 17.2568C14.4883 17.4234 14.4536 17.6029 14.4536 17.7955V21.5121C14.4536 21.7047 14.4883 21.8869 14.5576 22.0587C14.627 22.2253 14.7212 22.371 14.8402 22.496C14.9591 22.6209 15.0979 22.7198 15.2565 22.7927C15.4201 22.8655 15.5936 22.902 15.777 22.902H16.3866C16.57 22.902 16.741 22.8655 16.8997 22.7927C17.0632 22.7198 17.2045 22.6209 17.3234 22.496C17.4424 22.371 17.5366 22.2253 17.606 22.0587C17.6754 21.8869 17.7101 21.7047 17.7101 21.5121V20.9812L18.6246 21.1374V21.4575Z" stroke="white" stroke-width="0.553846"/>
<path d="M26.4621 21.4575C26.4621 21.7802 26.4027 22.0847 26.2837 22.371C26.1697 22.6573 26.0111 22.9072 25.8079 23.1206C25.6046 23.334 25.3667 23.5032 25.0941 23.6281C24.8215 23.7478 24.5315 23.8077 24.2242 23.8077H23.6146C23.3072 23.8077 23.0173 23.7478 22.7447 23.6281C22.4721 23.5032 22.2341 23.334 22.0309 23.1206C21.8277 22.9072 21.6666 22.6573 21.5476 22.371C21.4336 22.0847 21.3766 21.7802 21.3766 21.4575V17.8502C21.3766 17.5275 21.4336 17.223 21.5476 16.9367C21.6666 16.6504 21.8277 16.4005 22.0309 16.1871C22.2341 15.9737 22.4721 15.8071 22.7447 15.6874C23.0173 15.5625 23.3072 15.5 23.6146 15.5H24.2242C24.5315 15.5 24.8215 15.5625 25.0941 15.6874C25.3667 15.8071 25.6046 15.9737 25.8079 16.1871C26.0111 16.4005 26.1697 16.6504 26.2837 16.9367C26.4027 17.223 26.4621 17.5275 26.4621 17.8502V18.1703L25.5476 18.3265V17.7955C25.5476 17.6029 25.5129 17.4234 25.4436 17.2568C25.3742 17.085 25.28 16.9367 25.161 16.8117C25.0421 16.6868 24.9008 16.5879 24.7372 16.515C24.5786 16.4422 24.4076 16.4057 24.2242 16.4057H23.6146C23.4312 16.4057 23.2577 16.4422 23.0941 16.515C22.9355 16.5879 22.7967 16.6868 22.6778 16.8117C22.5588 16.9367 22.4646 17.085 22.3952 17.2568C22.3258 17.4234 22.2911 17.6029 22.2911 17.7955V21.5121C22.2911 21.7047 22.3258 21.8869 22.3952 22.0587C22.4646 22.2253 22.5588 22.371 22.6778 22.496C22.7967 22.6209 22.9355 22.7198 23.0941 22.7927C23.2577 22.8655 23.4312 22.902 23.6146 22.902H24.2242C24.4076 22.902 24.5786 22.8655 24.7372 22.7927C24.9008 22.7198 25.0421 22.6209 25.161 22.496C25.28 22.371 25.3742 22.2253 25.4436 22.0587C25.5129 21.8869 25.5476 21.7047 25.5476 21.5121V20.9812L26.4621 21.1374V21.4575Z" stroke="white" stroke-width="0.553846"/>
</g>
<defs>
<clipPath id="clip0_1076_3634">
<rect width="40" height="40.0004" fill="white"/>
</clipPath>
</defs>
</svg>
