<svg width="40" height="40" viewBox="0 0 40 40" fill="none" xmlns="http://www.w3.org/2000/svg">
<g clip-path="url(#clip0_1076_3527)">
<path d="M36.9267 31.2978C36.9267 34.4182 34.4022 36.9427 31.2975 36.9427H8.70247C5.58212 36.9427 3.05762 34.4182 3.05762 31.2978V8.70255C3.05762 5.58218 5.58212 3.05765 8.70247 3.05765H31.2975C34.4022 3.05765 36.9267 5.58218 36.9267 8.70255M31.2975 0H8.70247C3.90435 0 0 3.90439 0 8.70255V31.2822C0 36.0803 3.90435 39.9847 8.70247 39.9847H31.2975C36.0956 39.9847 40 36.0803 40 31.2822V8.70255C40 3.90439 36.0956 0 31.2975 0Z" fill="black"/>
<path d="M33.2994 23.3202C33.1394 22.6402 32.7094 22.1302 32.2194 21.6802C31.6094 21.1102 31.1394 20.4502 30.7994 19.6902C30.6694 19.4002 30.5394 19.1102 30.3894 18.8202C29.6494 17.3902 28.5194 16.4202 26.9694 15.9602C25.9494 15.6602 24.8894 15.6402 23.8394 15.6102C22.1694 15.5602 20.4894 15.5302 18.8094 15.4902C18.6994 15.4902 18.5794 15.5502 18.4894 15.6202C17.9294 16.1102 17.3894 16.6202 16.8394 17.1202C16.6794 17.2602 16.6094 17.4102 16.6094 17.6302C16.6194 18.9302 16.6094 20.2202 16.6094 21.5202C16.6094 22.1302 16.6094 22.7302 16.6094 23.3502C17.6294 23.3502 18.5694 23.1502 19.4894 22.8302C21.0694 22.2802 22.5894 21.5702 24.2594 21.3002C24.4894 21.2602 24.5694 21.3102 24.6594 21.4902C25.3894 22.9402 26.4294 24.1102 27.7294 25.0702C28.2994 25.4902 28.8294 25.9602 29.3894 26.4002C29.7194 26.6702 29.8494 27.0002 29.7994 27.4202C29.7694 27.7102 29.7794 28.0002 29.7794 28.2902C29.7794 28.5102 29.7094 28.6402 29.5094 28.7602C29.3194 28.8702 29.1494 29.0602 29.0494 29.2602C28.9094 29.5402 29.0294 29.7002 29.3494 29.7102C29.5594 29.7102 29.7694 29.7102 29.9794 29.7102C30.6994 29.7102 30.8194 29.6302 30.9894 28.9202C31.0194 28.7902 31.0494 28.6602 31.0494 28.5302C31.0594 27.6602 31.0794 26.8002 31.0594 25.9302C31.0594 25.7302 30.9394 25.5102 30.7994 25.3502C30.5694 25.0802 30.2794 24.8702 30.0194 24.6202C29.5694 24.1902 29.3494 23.6602 29.3794 23.0402C29.4094 22.3802 29.4394 21.7102 29.4694 21.0402C29.4694 20.8102 29.4694 20.5902 29.4694 20.3602C29.6994 20.5802 29.8294 20.8202 29.9994 21.0402C30.4694 21.6602 30.9094 22.3002 31.4294 22.8702C31.9094 23.3902 32.5594 23.5802 33.3194 23.5302C33.3094 23.4202 33.2994 23.3602 33.2894 23.2902L33.2994 23.3202Z" fill="black"/>
<path d="M22.5604 10C21.6804 10 20.8104 10.01 19.9304 10C19.6404 10 19.4304 10.09 19.2204 10.28C18.6204 10.84 18.0104 11.39 17.4004 11.95C16.6104 12.67 15.8304 13.38 15.0204 14.11C14.9004 14.02 14.7904 13.94 14.7004 13.85C13.9004 12.97 13.1204 12.08 12.3104 11.22C12.0904 10.99 11.8204 10.68 11.5504 10.64C10.9104 10.56 10.2404 10.55 9.60043 10.64C8.84043 10.75 8.27043 11.17 8.08043 11.98C8.05043 12.1 7.90043 12.23 7.77043 12.28C7.38043 12.44 6.98043 12.56 6.58043 12.7C6.13376 12.86 5.98043 13.1733 6.12043 13.64C6.38043 14.52 6.79043 14.85 7.69043 14.9C8.47043 14.94 9.24043 14.98 10.0204 14.99C10.2604 14.99 10.3504 15.07 10.4004 15.29C10.4804 15.66 10.5904 16.02 10.6704 16.39C10.8504 17.16 11.0104 17.92 11.1904 18.72C12.1404 18.72 13.0504 18.72 13.9604 18.72C14.0704 18.72 14.1904 18.65 14.2704 18.57C17.1304 15.97 19.9904 13.37 22.8304 10.76C22.9504 10.65 23.0504 10.42 23.0304 10.25C23.0004 10.02 22.7704 10 22.5504 10H22.5604ZM15.6704 16.28C15.6704 15.67 15.6704 15.13 15.6704 14.58C15.6704 14.51 15.7804 14.45 15.8404 14.39C17.1204 13.22 18.3904 12.06 19.6704 10.89C19.7504 10.82 19.8604 10.76 19.9604 10.75C20.5104 10.74 21.0604 10.75 21.6104 10.75C21.6204 10.77 21.6304 10.8 21.6404 10.82C19.6704 12.62 17.6904 14.42 15.6604 16.27L15.6704 16.28Z" fill="black"/>
<path d="M14.9192 27.7895C14.9692 26.8695 14.9792 25.9495 15.0092 25.0295C15.0292 24.6295 15.0692 24.2395 15.1192 23.8395C15.1592 23.5395 15.2092 23.2295 15.6392 23.3195V19.6895H11.4492C11.7492 20.6695 12.2392 21.4895 12.9392 22.1795C13.1492 22.3795 13.2392 22.5995 13.2592 22.8795C13.3192 23.9995 13.3992 25.1195 13.4292 26.2395C13.4492 26.7895 13.4292 27.3595 13.3192 27.8895C13.2192 28.3695 13.0592 28.8795 12.4992 29.0995C12.3792 29.1495 12.3392 29.4095 12.2592 29.5695C12.3992 29.6295 12.5292 29.7195 12.6692 29.7395C12.9192 29.7695 13.1792 29.7795 13.4292 29.7395C13.6092 29.7095 13.8092 29.6195 13.9292 29.4995C14.1992 29.2095 14.4492 28.8895 14.6592 28.5495C14.7892 28.3295 14.8892 28.0595 14.9092 27.8095L14.9192 27.7895Z" fill="black"/>
<path d="M28.1181 25.7804C26.5781 24.7404 25.2881 23.4604 24.4181 21.8004C24.3781 21.7304 24.2381 21.6704 24.1581 21.6904C23.5681 21.8204 22.9781 21.9804 22.3281 22.1404C22.9481 23.1604 23.6881 24.0004 24.5681 24.7104C25.2981 25.2904 26.0181 25.8704 26.7481 26.4604C27.0481 26.7004 27.1681 27.0104 27.1281 27.4004C27.0981 27.7204 27.0881 28.0404 27.0881 28.3604C27.0881 28.5604 27.0081 28.6604 26.8381 28.7704C26.6481 28.9004 26.4681 29.0904 26.3581 29.2904C26.2281 29.5404 26.3581 29.7104 26.6581 29.7304C26.8681 29.7304 27.0781 29.7304 27.2881 29.7304C28.0181 29.7304 28.1781 29.6104 28.3181 28.8804C28.3581 28.7004 28.3681 28.5104 28.3781 28.3204C28.3881 27.6704 28.3781 27.0104 28.3981 26.3604C28.3981 26.1004 28.3281 25.9304 28.1181 25.7904V25.7804Z" fill="black"/>
<path d="M15.7794 26.5197C15.7794 26.8797 15.8094 27.2597 15.7294 27.6097C15.5994 28.1797 15.4894 28.7797 14.8494 29.0797C14.7194 29.1397 14.6894 29.4097 14.6094 29.5797C14.7494 29.6297 14.8994 29.7297 15.0394 29.7297C16.3294 29.7197 15.9294 29.9297 16.7494 28.8897C16.8294 28.7897 16.9394 28.6897 16.9894 28.5697C17.0994 28.3097 17.2494 28.0397 17.2594 27.7697C17.3294 26.4097 17.3694 25.0497 17.4194 23.7197H15.6894C15.7194 24.6897 15.7594 25.6097 15.7794 26.5197Z" fill="black"/>
<path d="M15.6381 18.2197C15.4381 18.3997 15.2881 18.5397 15.0781 18.7197H15.6381V18.2197Z" fill="black"/>
<path d="M10.2805 11.4395C10.0805 11.9595 9.99047 13.1795 9.99047 13.1795C9.95047 14.1595 10.1205 14.1995 10.1205 14.1995C10.4005 14.3395 10.8505 14.1195 10.8505 14.1195C11.3405 13.8495 11.9705 12.7395 11.9705 12.7395" stroke="white" stroke-width="0.25" stroke-miterlimit="10" stroke-linecap="round"/>
</g>
<defs>
<clipPath id="clip0_1076_3527">
<rect width="40" height="40.0004" fill="white"/>
</clipPath>
</defs>
</svg>
